<?xml version="1.0" standalone="no"?>
<!DOCTYPE svg PUBLIC "-//W3C//DTD SVG 1.1//EN" "http://www.w3.org/Graphics/SVG/1.1/DTD/svg11.dtd" >
<svg xmlns="http://www.w3.org/2000/svg" xmlns:xlink="http://www.w3.org/1999/xlink" version="1.1">
<metadata>
Created by FontForge 20200427 at Wed Feb  3 19:16:12 2016
 By www
Copyright (c) 2016 Latinotype. All rights reserved
</metadata>
<defs>
<font id="GlobaW00-Medium" horiz-adv-x="0" >
  <font-face 
    font-family="GlobaW00-Medium"
    font-weight="500"
    font-stretch="normal"
    units-per-em="1000"
    panose-1="1 0 0 0 0 0 0 0 0 0"
    ascent="800"
    descent="-200"
    x-height="500"
    cap-height="703"
    bbox="-877 -284 1464 961"
    underline-thickness="50"
    underline-position="-125"
    unicode-range="U+0020-FB02"
  />
<missing-glyph horiz-adv-x="937" 
d="M869 680v-800h-800v800h800zM796 638h-652l326 -326zM110 609v-656l328 328zM827 607l-326 -326l326 -326v652zM142 -78h656l-328 328z" />
    <glyph glyph-name="uniFB01" unicode="fi" horiz-adv-x="626" 
d="M522 495q32 0 49.5 -20t17.5 -54v-346q0 -39 -16.5 -57t-50.5 -18q-30 0 -50 21t-20 54v315h-199v-322q0 -32 -18 -51t-44 -19q-31 0 -53 18t-22 45v329h-61q-20 0 -33.5 14.5t-13.5 38.5q0 52 47 52h61v68q0 106 55 159t175 53q44 0 88 -8.5t70 -21.5q48 -24 48 -59
q0 -25 -14.5 -41.5t-36.5 -16.5q-6 0 -13.5 1t-16.5 4.5t-11 3.5q-52 19 -103 19q-104 0 -104 -107v-54h268h1z" />
    <glyph glyph-name="uniFB02" unicode="fl" horiz-adv-x="666" 
d="M541 775q30 0 48.5 -18.5t18.5 -47.5v-636q0 -37 -18 -55t-45 -18q-33 0 -53.5 19.5t-20.5 53.5v561q-20 8 -54 15t-58 7q-106 0 -106 -101v-60h118q19 0 32 -14.5t13 -34.5t-13 -35t-32 -15h-118v-328q0 -32 -19.5 -51t-46.5 -19q-28 0 -49.5 19.5t-21.5 50.5v328h-63
q-20 0 -32.5 13t-12.5 37q0 49 45 49h64v68q0 106 49.5 159t159.5 53q25 0 57.5 -3t70.5 -12t41 -10q6 14 14.5 19.5t31.5 5.5z" />
    <glyph glyph-name=".notdef" horiz-adv-x="937" 
d="M869 680v-800h-800v800h800zM796 638h-652l326 -326zM110 609v-656l328 328zM827 607l-326 -326l326 -326v652zM142 -78h656l-328 328z" />
    <glyph glyph-name=".null" 
 />
    <glyph glyph-name="nonmarkingreturn" horiz-adv-x="333" 
 />
    <glyph glyph-name="space" unicode=" " horiz-adv-x="218" 
 />
    <glyph glyph-name="exclam" unicode="!" horiz-adv-x="251" 
d="M127 705q31 0 49 -19.5t15 -50.5q-11 -196 -19 -373q-4 -51 -46 -51q-19 0 -31.5 14t-13.5 37q-5 187 -17 377q-1 30 16.5 48t46.5 18zM122 134q34 0 53 -18.5t19 -50.5t-19.5 -50t-52.5 -18q-34 0 -53 18.5t-19 50.5t19 50t53 18z" />
    <glyph glyph-name="quotedbl" unicode="&#x22;" horiz-adv-x="364" 
d="M97 784q58 0 58 -70q0 -36 -8.5 -97.5t-16.5 -93.5q-4 -15 -11.5 -26t-26.5 -11q-14 0 -23.5 9.5t-9.5 26.5q0 5 0.5 26.5t0.5 36t-1 24.5q-3 34 -9.5 69.5t-6.5 49.5q0 24 15.5 40t38.5 16zM265 784q57 0 57 -70q0 -36 -8.5 -97.5t-16.5 -93.5q-4 -15 -11.5 -26
t-26.5 -11q-14 0 -23.5 9.5t-9.5 26.5q0 5 0.5 26.5t0.5 36t-1 24.5q-3 34 -9.5 69.5t-6.5 49.5q0 24 15.5 40t39.5 16z" />
    <glyph glyph-name="numbersign" unicode="#" horiz-adv-x="714" 
d="M641 492q20 0 32.5 -12t12.5 -34q0 -45 -45 -45h-108l-29 -149h65q20 0 32 -11.5t12 -33.5q0 -45 -44 -45h-83l-24 -120q-5 -19 -17 -30.5t-29 -11.5q-21 0 -34 12t-13 31l2 21l20 98h-162l-24 -120q-3 -18 -15.5 -30t-29.5 -12q-21 0 -34 12t-13 31l2 21l20 98h-55
q-20 0 -32 11.5t-12 33.5q0 45 44 45h73l30 149h-86q-21 0 -33 12t-12 33q0 46 45 46h104l34 171q9 40 46 40q22 0 34.5 -11t12.5 -30l-3 -19l-30 -151h162l34 171q9 40 46 40q22 0 34.5 -11t12.5 -30l-3 -19l-30 -151h90zM409 252l30 149h-162l-30 -149h162z" />
    <glyph glyph-name="dollar" unicode="$" horiz-adv-x="516" 
d="M254 476q-45 0 -67 -14t-22 -37q0 -22 20.5 -37.5t97 -32t106 -31t44 -30.5t21.5 -35t7 -43q0 -56 -39.5 -93t-109.5 -47v-31q0 -31 -12.5 -46t-42.5 -15q-25 0 -40.5 17.5t-15.5 43.5v32q-61 10 -106 41q-17 12 -28 25.5t-11 32.5q0 23 15 38t37 15q5 0 14.5 -2
t33.5 -15q55 -34 118 -34q32 0 50.5 8t18.5 21q0 14 -17.5 22t-64.5 16.5t-67 13.5q-77 20 -113.5 59t-36.5 103q0 61 41 104.5t116 57.5v33q0 24 15.5 41t40.5 17q55 0 55 -58v-31q56 -7 94 -31.5t57 -59.5q15 -24 15 -47q0 -26 -15.5 -42t-38.5 -16q-29 0 -52 32
q-1 2 -6.5 9t-15 16.5t-24.5 16.5t-32.5 10t-39.5 3z" />
    <glyph glyph-name="percent" unicode="%" horiz-adv-x="1047" 
d="M335 -1q-17 0 -30 12t-13 30q0 14 12 32l377 610q16 24 37 24q20 0 33 -13t13 -31q0 -3 -1 -7.5t-3 -9t-5 -9t-4 -5.5l-377 -608q-17 -25 -39 -25zM232 302q-92 0 -143.5 52t-51.5 146q0 93 51.5 147t143.5 54q91 0 144 -54.5t53 -146.5q0 -93 -52.5 -145.5t-144.5 -52.5
zM232 387q50 0 78 30t28 83q0 54 -28 84.5t-78 30.5t-77.5 -30t-27.5 -85q0 -53 27.5 -83t77.5 -30zM816 -4q-93 0 -145 52t-52 146q0 93 52.5 146t144.5 53t143 -53t51 -146q0 -94 -51 -146t-143 -52zM816 81q50 0 77.5 30t27.5 84q0 53 -28 83t-77 30t-77 -30t-28 -83
q0 -54 27.5 -84t77.5 -30z" />
    <glyph glyph-name="ampersand" unicode="&#x26;" horiz-adv-x="715" 
d="M602 160q24 -49 35 -120l2 -22q0 -25 -16.5 -39.5t-39.5 -14.5q-16 0 -30.5 11.5t-22.5 49.5q-5 29 -17 61q-38 -41 -96.5 -68t-125.5 -27q-46 0 -89 12t-76.5 34.5t-52.5 57t-19 76.5q0 25 11 56.5t41.5 59.5t72.5 42q-57 30 -93 80t-36 111q0 41 17.5 77t50 62.5
t80 41.5t104.5 15q70 0 121.5 -16.5t83 -45t46 -65.5t14.5 -78q0 -30 -14 -63t-46 -63.5t-73 -49.5q61 -34 102 -77q16 24 29 56t15 57q4 21 15.5 35.5t40.5 14.5q24 0 37.5 -15.5t13.5 -45.5q0 -23 -9 -56.5t-30.5 -72.5t-45.5 -71zM306 606q-39 0 -67.5 -12.5t-46.5 -35
t-18 -49.5q0 -79 141 -124q40 11 72 32t44.5 45t12.5 45q0 30 -16.5 52.5t-46.5 34.5t-75 12zM303 102q45 0 85 20t69 53q-52 56 -162 99q-34 -6 -61.5 -21t-38 -33t-10.5 -32q0 -43 33.5 -64.5t84.5 -21.5z" />
    <glyph glyph-name="quotesingle" unicode="'" horiz-adv-x="197" 
d="M97 784q58 0 58 -70q0 -36 -8.5 -97.5t-16.5 -93.5q-4 -15 -11.5 -26t-26.5 -11q-14 0 -23.5 9.5t-9.5 26.5q0 5 0.5 26.5t0.5 36t-1 24.5q-3 34 -9.5 69.5t-6.5 49.5q0 24 15.5 40t38.5 16z" />
    <glyph glyph-name="parenleft" unicode="(" horiz-adv-x="340" 
d="M36 355q0 75 21 159t67.5 175.5t121.5 173.5q13 16 35 16q16 0 29 -10.5t13 -29.5q0 -21 -12 -38q-51 -76 -83.5 -163t-43 -159.5t-10.5 -123.5q0 -104 35 -219t101 -226q13 -22 13 -41t-13.5 -29.5t-28.5 -10.5q-4 0 -14 3t-21 15q-102 106 -156 244t-54 264z" />
    <glyph glyph-name="parenright" unicode=")" horiz-adv-x="339" 
d="M58 -169q-17 0 -28.5 10t-12.5 30q0 21 12 38q68 101 101.5 218.5t33.5 228.5q0 106 -34.5 222t-101.5 223q-11 18 -11 39q0 19 12.5 29.5t28.5 10.5q20 0 35 -16q64 -66 110 -148t73.5 -175t27.5 -185q0 -125 -55 -263t-156 -245q-15 -17 -35 -17z" />
    <glyph glyph-name="asterisk" unicode="*" horiz-adv-x="429" 
d="M350 690q17 0 28.5 -15.5t11.5 -33.5q0 -16 -10.5 -27t-33.5 -13l-81 -14l58 -62q19 -18 19 -35t-16 -31t-33 -14q-10 0 -20 7.5t-15 21.5l-42 76l-40 -73q-15 -32 -39 -32q-17 0 -33 14t-16 31q0 18 18 35q37 35 59 60q-18 4 -82 15q-44 6 -44 40q0 20 11.5 34.5
t28.5 14.5q15 0 29 -9q52 -26 76 -36l-11 82l-1 16q0 21 12 31t31 10t31 -9.5t12 -29.5l-2 -19l-10 -79l75 35q14 9 29 9z" />
    <glyph glyph-name="plus" unicode="+" horiz-adv-x="496" 
d="M427 355q17 0 28.5 -13t11.5 -32q0 -18 -11.5 -30.5t-28.5 -12.5h-132v-115q0 -20 -14 -35t-32 -15q-19 0 -32.5 14.5t-13.5 35.5v115h-133q-18 0 -29.5 11t-11.5 32q0 45 41 45h133v114q0 22 12 36.5t34 14.5q46 0 46 -51v-114h132z" />
    <glyph glyph-name="comma" unicode="," horiz-adv-x="263" 
d="M122 140q11 0 27.5 -3.5t31.5 -16t26 -35t11 -55.5q0 -56 -19 -108t-59 -92q-16 -18 -33 -18q-13 0 -24.5 11t-11.5 21q0 13 16 31q48 56 48 105q0 21 -13 21l-22 -3q-24 0 -40 17t-16 47q0 17 8 35.5t28 30.5t42 12z" />
    <glyph glyph-name="hyphen" unicode="-" horiz-adv-x="416" 
d="M57 281q0 48 44 48h213q18 0 32 -14t14 -34t-14.5 -35t-31.5 -15h-213q-19 0 -31.5 13t-12.5 37z" />
    <glyph glyph-name="period" unicode="." horiz-adv-x="233" 
d="M116 140q34 0 53 -19.5t19 -53.5q0 -33 -19 -52t-53 -19q-33 0 -52 19t-19 52q0 34 19 53.5t52 19.5z" />
    <glyph glyph-name="slash" unicode="/" horiz-adv-x="516" 
d="M78 -205q-20 0 -35 11.5t-15 31.5q0 8 6 26l362 980q12 34 43 34q22 0 35.5 -11.5t13.5 -31.5q0 -11 -6 -27l-362 -978q-5 -16 -17 -25.5t-25 -9.5z" />
    <glyph glyph-name="zero" unicode="0" horiz-adv-x="737" 
d="M368 -10q-160 0 -241 88t-81 270q0 178 84 269.5t238 91.5q323 -2 323 -361q0 -177 -83.5 -267t-239.5 -91zM368 110q93 0 142.5 58.5t49.5 179.5q0 241 -192 241q-92 0 -141.5 -59.5t-49.5 -181.5q0 -238 191 -238z" />
    <glyph glyph-name="one" unicode="1" horiz-adv-x="434" 
d="M276 708q39 0 62.5 -24t23.5 -65v-536q0 -43 -17.5 -63t-55.5 -20t-55.5 20.5t-17.5 62.5v421q0 9 -5 9q-3 0 -14 -6q-50 -47 -89 -73q-24 -12 -43 -12q-25 0 -39.5 16.5t-14.5 39.5q0 13 6.5 25.5t29.5 28.5q39 30 71 58t78 77q21 20 38 30.5t42 10.5z" />
    <glyph glyph-name="two" unicode="2" horiz-adv-x="612" 
d="M265 129q0 -4 3 -6.5t8 -1.5q23 0 100 3t116 3q34 0 52 -17.5t18 -46.5q0 -30 -17.5 -46.5t-52.5 -16.5h-346q-21 0 -41.5 6.5t-31.5 22t-11 34.5q1 36 42.5 80.5t130.5 114.5q58 45 100.5 82t68.5 71.5t27 71.5q1 34 -15 58.5t-44 38t-68 13.5q-33 0 -63.5 -9
t-52.5 -30.5t-31 -50.5q-15 -47 -60 -47q-28 0 -48 17.5t-20 50.5q0 27 13 54q20 46 59 76t91 45.5t117 15.5q43 0 88 -10.5t83 -36t63 -68t25 -102.5q0 -46 -17 -89t-57 -86.5t-134 -114.5l-78 -59q-17 -14 -17 -20z" />
    <glyph glyph-name="three" unicode="3" horiz-adv-x="627" 
d="M487 325q19 -8 39 -25t32 -45t12 -59q0 -101 -73 -154.5t-197 -51.5q-113 1 -198 39q-43 20 -43 61q0 24 15 42.5t40 18.5q21 0 48 -10q57 -23 142 -24q60 -1 92 19.5t32 60.5q0 20 -13.5 37.5t-38.5 25t-51 7.5h-94q-29 0 -46 14.5t-17 44.5q0 32 18.5 47.5t45.5 15.5
q77 0 103 3q42 5 71.5 30t30.5 66q1 42 -32 68.5t-95 26.5q-97 0 -156 -66q-29 -29 -60 -29q-28 0 -46 19t-18 46q0 14 8 32t19 31q14 16 44 37.5t84.5 38.5t124.5 17q59 0 103 -13t78.5 -35.5t60.5 -65t26 -104.5q0 -26 -8 -58t-30.5 -61.5t-52.5 -46.5z" />
    <glyph glyph-name="four" unicode="4" horiz-adv-x="644" 
d="M556 253q31 0 47.5 -16t16.5 -42t-16.5 -42.5t-47.5 -16.5h-35v-70q0 -29 -16 -47.5t-44 -18.5q-32 1 -49.5 19t-17.5 47v70l-284 -1q-49 0 -74 20.5t-25 48.5q0 15 9.5 36.5t41.5 59.5l294 359q18 23 38.5 39t54.5 16q32 0 52 -22t20 -60v-379h35zM194 251l200 1v247
q0 13 -7 13q-5 0 -11 -9l-181 -219q-14 -19 -14 -25q0 -8 13 -8z" />
    <glyph glyph-name="five" unicode="5" horiz-adv-x="610" 
d="M303 402q75 0 138 -20.5t95 -65.5t32 -103q0 -52 -20 -94.5t-56.5 -71t-87 -43t-109.5 -14.5q-46 0 -89.5 5.5t-94.5 23.5q-27 9 -41.5 26.5t-14.5 41.5q0 22 18 40.5t43 18.5q7 0 12 -0.5t32 -6.5q33 -10 64.5 -16.5t73.5 -6.5q63 0 100 21t37 62q0 45 -46.5 62.5
t-130.5 17.5q-29 0 -75.5 -5.5t-54.5 -5.5q-29 0 -52 16.5t-23 42.5q0 24 4 76l21 267q1 14 8.5 23t19.5 9h386q66 0 66 -66q0 -30 -17 -48t-49 -18h-297l-10 -132l-2 -37q0 -7 8 -7q1 0 20.5 2.5t43.5 4t48 1.5z" />
    <glyph glyph-name="six" unicode="6" horiz-adv-x="658" 
d="M372 409q42 0 85 -9.5t83 -36.5t59 -70t19 -89q0 -37 -12.5 -75.5t-43.5 -69.5t-83 -50.5t-125 -17.5q-82 0 -142 27.5t-96.5 76.5t-53 114t-16.5 140q0 129 44.5 209.5t118 118.5t168.5 38q43 0 83.5 -5.5t85.5 -23.5q29 -11 43.5 -28t14.5 -46q0 -28 -16 -45t-42 -17
q-9 0 -23 3.5t-22 4.5q-59 18 -126 18q-99 1 -149.5 -55.5t-51.5 -162.5v-6q33 26 84 41.5t114 15.5zM353 111q31 0 64.5 9t54.5 32t21 54q0 26 -20.5 48t-53.5 31t-64 9q-39 0 -72.5 -12.5t-47.5 -27t-18 -26.5t-4 -22q1 -41 39.5 -68t100.5 -27z" />
    <glyph glyph-name="seven" unicode="7" horiz-adv-x="582" 
d="M252 -4q-17 0 -35 6t-30 23.5t-11 42.5q0 142 127 366q12 22 32.5 57.5t27.5 49t7 23.5q0 15 -41 13l-254 1q-65 0 -65 61q0 63 65 63h400q81 0 81 -68q0 -18 -8.5 -40t-50.5 -86.5t-72 -115.5q-32 -57 -64.5 -146t-41.5 -172q-9 -77 -67 -78z" />
    <glyph glyph-name="eight" unicode="8" horiz-adv-x="663" 
d="M503 337q52 -23 77 -59t25 -92q0 -34 -13.5 -68.5t-46.5 -62t-86 -45.5t-128 -19q-58 -1 -108.5 11.5t-87 36.5t-56.5 58.5t-20 75.5q0 27 10 58t34 56.5t53 37.5q-53 26 -81.5 70.5t-27.5 103.5q0 48 20.5 88.5t59 69.5t91 44t113.5 15q62 0 115 -15t91 -43t58.5 -67
t19.5 -85q2 -60 -29 -104.5t-83 -64.5zM331 599q-72 0 -113 -28t-40 -75q-1 -40 32.5 -65t120.5 -39l13 -3q138 24 135 109q0 43 -37.5 72t-110.5 29zM331 103q68 1 107.5 23t39.5 61q0 33 -26.5 52t-125.5 37l-29 6q-52 -6 -81 -29t-29 -56q0 -44 39 -69t105 -25z" />
    <glyph glyph-name="nine" unicode="9" horiz-adv-x="654" 
d="M517 643q43 -43 66.5 -116.5t23.5 -173.5q0 -99 -25 -170t-69.5 -113t-97 -58.5t-89 -18.5t-49.5 -2q-37 0 -85 9.5t-78 30.5q-19 11 -31.5 26.5t-12.5 39.5t18 40t44 16q13 0 50 -14q19 -11 47 -18t59 -8q39 0 72.5 10.5t59.5 33.5t41.5 60.5t19.5 87.5
q-32 -28 -79.5 -44t-104.5 -16q-119 0 -189.5 61t-70.5 169q0 39 13.5 80t52 80.5t96 59t115.5 19.5q60 0 113 -18.5t90 -52.5zM315 360q35 0 74 15.5t56 42.5t17 58q0 17 -7 35.5t-24.5 36t-47 30t-68.5 12.5q-31 0 -65.5 -11t-59 -38.5t-24.5 -66.5q-1 -54 38 -84t111 -30
z" />
    <glyph glyph-name="colon" unicode=":" horiz-adv-x="257" 
d="M128 493q33 0 52.5 -19t19.5 -53t-19.5 -53t-52.5 -19t-52 19t-19 53t19 53t52 19zM128 140q33 0 52.5 -19.5t19.5 -53.5q0 -33 -19.5 -52t-52.5 -19t-52 19t-19 52q0 34 19 53.5t52 19.5z" />
    <glyph glyph-name="semicolon" unicode=";" horiz-adv-x="265" 
d="M134 493q33 0 52 -19t19 -53t-19 -53t-52 -19q-34 0 -53 19t-19 53t19 53t53 19zM124 140q45 0 70 -32.5t25 -77.5q0 -123 -78 -200q-16 -18 -33 -18q-13 0 -24.5 11t-11.5 21q0 13 16 31q48 56 48 105q0 21 -13 21l-22 -3q-24 0 -40 17t-16 47q0 26 14 45t32.5 26
t32.5 7z" />
    <glyph glyph-name="less" unicode="&#x3c;" horiz-adv-x="508" 
d="M402 110q-20 0 -49 13q-99 41 -249 108q-39 18 -57 35.5t-18 42.5q0 19 13 37t62 41l250 113q28 12 48 12q24 0 38.5 -15.5t14.5 -37.5q0 -21 -12.5 -33.5t-43.5 -23.5l-197 -75q-20 -7 -20 -18t20 -17q38 -15 98 -36t99 -36q22 -7 39 -19t17 -37q0 -23 -14.5 -38.5
t-38.5 -15.5z" />
    <glyph glyph-name="equal" unicode="=" horiz-adv-x="521" 
d="M62 406q0 48 43 48h309q19 0 32.5 -14t13.5 -34q0 -21 -13.5 -35.5t-32.5 -14.5h-309q-19 0 -31 13t-12 37zM68 217q0 47 44 47h296q18 0 30.5 -14t12.5 -33q0 -21 -12.5 -34.5t-30.5 -13.5h-296q-20 0 -32 13t-12 35z" />
    <glyph glyph-name="greater" unicode="&#x3e;" horiz-adv-x="508" 
d="M105 110q-23 0 -37.5 15.5t-14.5 38.5q0 15 9.5 29.5t45.5 26.5q35 13 96 35t101 37q21 6 21 17t-21 18l-197 75q-30 12 -42.5 24t-12.5 33q0 22 14.5 37.5t37.5 15.5q20 0 49 -12l250 -113q39 -18 57 -35.5t18 -42.5q0 -19 -13 -37t-62 -41q-150 -67 -249 -108
q-29 -13 -50 -13z" />
    <glyph glyph-name="question" unicode="?" horiz-adv-x="601" 
d="M263 201q-13 0 -26 6t-21 21t-7 33q0 93 116 147q62 29 88 54.5t26 60.5q0 44 -33.5 68.5t-96.5 24.5q-38 0 -72.5 -8t-59 -31t-41.5 -60q-5 -10 -18 -20.5t-30 -10.5q-26 0 -43 16.5t-17 38.5t9 40q22 64 91.5 101t181.5 37q46 0 92.5 -9t83.5 -31.5t60.5 -59.5
t23.5 -89q0 -44 -17 -76.5t-52 -60.5t-95 -54q-49 -22 -71.5 -45.5t-21.5 -56.5q-2 -17 -16 -26.5t-34 -9.5zM274 -7q-34 0 -53.5 18.5t-19.5 50.5t19 50t54 18q34 0 53 -18t19 -50t-19 -50.5t-53 -18.5z" />
    <glyph glyph-name="at" unicode="@" horiz-adv-x="1163" 
d="M757 525q38 -8 38 -54v-220q0 -63 28 -89t71 -26q17 0 37.5 8.5t40 31t33.5 62.5t14 98q0 72 -27.5 136.5t-82 113t-135.5 76t-182 27.5q-106 0 -191 -28.5t-142.5 -82.5t-87.5 -132.5t-30 -174.5t31.5 -174t90.5 -132.5t144.5 -83t188.5 -28.5q96 0 170 19t145 57
q28 13 36.5 14.5t12.5 1.5q19 0 32 -13.5t13 -31.5q0 -14 -8.5 -27.5t-27.5 -21.5q-155 -91 -373 -91q-128 0 -232 36t-177.5 103t-112.5 162t-39 210q0 158 72.5 275.5t200 176t285.5 58.5q127 0 225 -34.5t164.5 -94.5t101.5 -141.5t35 -174.5q0 -34 -6 -75t-22 -79.5
t-44 -71t-70.5 -52t-90.5 -19.5q-118 0 -160 78q-26 -42 -74 -65t-109 -23q-50 0 -99 20t-81 62t-43.5 87.5t-11.5 89.5q0 120 72.5 190.5t195.5 70.5q44 0 94.5 -6.5t86.5 -17.5zM560 147q30 0 54.5 14t34.5 36t11 41v176q-44 13 -91 13q-60 0 -92.5 -35.5t-32.5 -105.5
q0 -25 5.5 -49.5t20.5 -46.5t40 -32.5t50 -10.5z" />
    <glyph glyph-name="A" unicode="A" horiz-adv-x="692" 
d="M667 106q12 -29 12 -52q0 -25 -19 -40.5t-48 -15.5q-51 0 -66 50l-27 80h-347l-28 -83q-8 -22 -23.5 -34.5t-37.5 -12.5q-30 0 -50.5 17t-20.5 42q0 18 11 49q99 257 189 502q39 108 135 108q51 0 83 -27.5t51 -80.5zM212 249h267l-99 295q-4 14 -13 22.5t-20 8.5
q-9 0 -19 -8.5t-15 -22.5z" />
    <glyph glyph-name="B" unicode="B" horiz-adv-x="645" 
d="M498 326q46 -14 72.5 -49.5t26.5 -89.5q0 -89 -64.5 -139t-182.5 -50q-125 0 -205 2q-35 0 -55 23.5t-20 64.5v528q0 28 11 48.5t28 28.5t32 9q56 7 186 7q133 0 201.5 -56t68.5 -162q0 -28 -11 -61.5t-36 -62t-52 -41.5zM325 587q-49 1 -118 -1v-217h128q50 0 87 29
t37 83q0 50 -36.5 78t-97.5 28zM349 109q39 0 66.5 11t38 30t10.5 39q0 37 -29.5 57.5t-85.5 20.5h-142v-158h142z" />
    <glyph glyph-name="C" unicode="C" horiz-adv-x="705" 
d="M388 709q105 0 181.5 -47.5t108.5 -121.5q11 -22 11 -40q0 -29 -22 -49t-48 -20q-35 0 -60 38q-19 38 -43.5 62t-56.5 36.5t-76 12.5q-41 0 -77 -15t-63 -44t-42.5 -73t-15.5 -98q0 -53 15 -96.5t43 -74t65.5 -46.5t80.5 -16q34 0 75 12.5t78 46.5q23 22 54 22
q24 0 41.5 -18.5t17.5 -42.5q0 -42 -59 -83q-40 -28 -93 -46.5t-114 -18.5q-74 0 -138.5 25.5t-112 73t-73.5 115t-26 146.5q0 81 26.5 148.5t74 114.5t112 72t136.5 25z" />
    <glyph glyph-name="D" unicode="D" horiz-adv-x="756" 
d="M313 708q99 0 176 -25.5t127.5 -73t75.5 -113t25 -144.5t-25 -144.5t-75.5 -112.5t-127.5 -72.5t-176 -25.5q-66 0 -171 3q-33 0 -52.5 22.5t-19.5 62.5v535q0 39 19.5 61t52.5 22q9 0 47.5 2t68 2.5t55.5 0.5zM308 121q67 0 117.5 16.5t82 46.5t47 72.5t15.5 94.5
q0 77 -32 126.5t-89 74.5t-141 25l-97 -1v-453z" />
    <glyph glyph-name="E" unicode="E" horiz-adv-x="608" 
d="M510 117q24 0 39.5 -16.5t15.5 -41.5q0 -26 -15 -42.5t-40 -16.5h-379q-27 0 -44 17t-17 44v581q0 26 17.5 43.5t43.5 17.5h385q25 0 40.5 -16.5t15.5 -43.5q0 -62 -56 -62h-304v-199h280q25 0 40.5 -15.5t15.5 -40.5t-15.5 -40.5t-41.5 -15.5h-279v-153h298z" />
    <glyph glyph-name="F" unicode="F" horiz-adv-x="595" 
d="M503 577h-291v-197h230q32 0 52 -16t20 -44q0 -62 -72 -62h-230v-177q0 -41 -17.5 -61t-53.5 -20q-31 0 -51 22.5t-20 58.5v542q0 35 20 57.5t51 22.5h362q32 0 52.5 -16.5t20.5 -45.5q0 -64 -73 -64z" />
    <glyph glyph-name="G" unicode="G" horiz-adv-x="751" 
d="M622 337q35 0 53.5 -18.5t18.5 -45.5v-224q0 -49 -51 -49q-25 0 -40 12.5t-15 36.5v27q-32 -37 -89.5 -61.5t-131.5 -24.5q-67 0 -127 24t-105 69.5t-70.5 112t-25.5 147.5q0 84 28 153.5t77.5 117.5t116 73t139.5 25q49 0 102 -11.5t104 -42.5t76 -75t25 -85
q0 -27 -18.5 -45.5t-42.5 -18.5q-49 0 -69 51q-16 45 -60.5 72.5t-116.5 27.5q-101 0 -158.5 -63.5t-57.5 -176.5q0 -107 54.5 -167.5t150.5 -60.5q68 0 114.5 31t51.5 86v1h-117q-26 0 -43 14.5t-17 36.5q0 21 17.5 36t42.5 15h184z" />
    <glyph glyph-name="H" unicode="H" horiz-adv-x="750" 
d="M606 703q18 0 35.5 -7.5t27.5 -27.5t10 -47v-539q0 -42 -17.5 -62t-55.5 -20q-31 0 -51 23t-20 59v154h-320v-154q0 -42 -17.5 -62t-55.5 -20q-32 0 -52 23t-20 59v539q0 36 20 59t52 23q36 0 54.5 -23t18.5 -59v-258h320v258q0 36 20 59t51 23z" />
    <glyph glyph-name="I" unicode="I" horiz-adv-x="285" 
d="M214 81q0 -81 -72 -81q-32 0 -52 22.5t-20 58.5v541q0 36 20 58.5t52 22.5q36 0 54 -22t18 -59v-541z" />
    <glyph glyph-name="J" unicode="J" horiz-adv-x="389" 
d="M245 702q33 0 53 -19.5t20 -55.5v-381q0 -115 -58 -184t-156 -69q-22 0 -44.5 7t-35 24t-12.5 38q0 24 18 42t42 18q49 0 75.5 33t26.5 96v376q0 36 19 55.5t52 19.5z" />
    <glyph glyph-name="K" unicode="K" horiz-adv-x="662" 
d="M609 123q23 -23 23 -61q0 -24 -21 -43.5t-48 -19.5q-18 0 -34.5 7t-46.5 41q-49 57 -148 159q-12 11 -27.5 18.5t-24.5 7.5h-68v-151q0 -41 -17.5 -61t-54.5 -20q-32 0 -52 22.5t-20 58.5v541q0 35 20 58t52 23q36 0 54 -22t18 -59v-268l68 -2q19 0 31 23
q103 155 181 281q12 20 27.5 33.5t43.5 13.5t47 -19t19 -46q0 -31 -20 -59q-30 -41 -91.5 -129.5t-91.5 -129.5q-10 -12 -19 -17q20 -4 39 -23q15 -14 161 -157z" />
    <glyph glyph-name="L" unicode="L" horiz-adv-x="556" 
d="M478 124q29 0 49.5 -16.5t20.5 -45.5q0 -30 -19 -46t-51 -16h-338q-31 1 -50.5 23.5t-19.5 57.5v541q0 35 20 58t52 23q36 0 54 -22t18 -59v-498h264z" />
    <glyph glyph-name="M" unicode="M" horiz-adv-x="871" 
d="M136 -1q-66 0 -66 80l2 544q0 39 20.5 61.5t53.5 22.5q23 0 43.5 -9.5t51.5 -55.5l182 -303q8 -14 16 -14t16 14q31 55 93 157t84 140q17 29 38.5 50t53.5 21q76 0 76 -90v-540q0 -37 -16 -57.5t-44 -20.5q-74 0 -74 78v356q0 10 -7 10q-5 0 -11 -9l-147 -255
q-12 -21 -29 -32t-35 -11q-41 0 -66 43l-150 256q-4 8 -10 8q-7 0 -7 -9v-355q0 -39 -18 -59.5t-50 -20.5z" />
    <glyph glyph-name="N" unicode="N" horiz-adv-x="739" 
d="M601 703q69 0 67 -71v-557q0 -37 -18 -57t-52 -20q-29 0 -48.5 9t-41.5 40l-287 399q-6 8 -10 8q-5 0 -5 -13v-366q0 -37 -17.5 -56t-48.5 -19q-33 0 -51.5 18.5t-18.5 56.5l3 549q0 35 21 58t60 23q27 0 46.5 -9.5t37.5 -35.5l281 -396q6 -8 11 -8t5 12v364q0 35 17 53
t49 18z" />
    <glyph glyph-name="O" unicode="O" horiz-adv-x="776" 
d="M388 -11q-76 0 -141 24.5t-111.5 71.5t-71.5 114.5t-25 149.5t25 149.5t71.5 114.5t111 71.5t141.5 24.5q76 0 141 -24.5t111.5 -71.5t72 -114.5t25.5 -149.5t-25.5 -149.5t-72.5 -114.5t-111.5 -71.5t-140.5 -24.5zM388 122q43 0 80.5 15t65 44.5t42.5 72t15 95.5
q0 65 -23 114.5t-68.5 80.5t-111.5 32q-32 0 -67 -10t-68.5 -39.5t-50.5 -77.5t-17 -100q0 -106 56.5 -167t146.5 -60z" />
    <glyph glyph-name="P" unicode="P" horiz-adv-x="659" 
d="M336 709q145 0 221.5 -65t76.5 -181q0 -67 -22.5 -117.5t-64.5 -82.5t-102 -47.5t-135 -15.5h-96v-120q0 -38 -18 -59t-52 -21t-54 21.5t-20 58.5v543q0 35 19 57t53 23q94 6 194 6zM299 321q97 0 145.5 31t48.5 102q0 66 -45 97.5t-141 31.5l-93 -2v-259z" />
    <glyph glyph-name="Q" unicode="Q" horiz-adv-x="776" 
d="M653 99l40 -40q26 -24 26 -53q0 -20 -15.5 -36t-38.5 -16q-24 0 -53 29l-47 47q-77 -41 -177 -41q-76 0 -141 24.5t-111.5 71.5t-71.5 114.5t-25 149.5t25 149.5t71.5 114.5t111 71.5t141.5 24.5q76 0 141 -24.5t111.5 -71.5t72 -114.5t25.5 -149.5q0 -76 -22.5 -140
t-62.5 -110zM388 122q39 0 72 12l-29 29q-15 14 -15 36q0 24 15.5 39t37.5 15q24 0 41 -19l37 -36q44 60 44 151q0 65 -23 114.5t-68.5 80.5t-111.5 32q-32 0 -67 -10t-68.5 -39.5t-50.5 -77.5t-17 -100q0 -106 56.5 -167t146.5 -60z" />
    <glyph glyph-name="R" unicode="R" horiz-adv-x="677" 
d="M623 106q13 -20 13 -42q0 -29 -21 -46.5t-47 -17.5q-23 0 -40.5 10.5t-38.5 49.5l-49 86q-15 28 -41.5 48t-57.5 20h-129v-145q0 -33 -18.5 -51t-52.5 -18q-33 0 -52 18.5t-19 50.5v562q0 62 71 70h1q101 8 193 8q145 0 219 -61.5t74 -176.5q0 -71 -33 -122.5t-99 -79.5
q15 -4 32 -18t42 -55zM318 327q85 0 130.5 33t45.5 99q0 60 -41.5 93t-124.5 33q-66 0 -116 -3v-255h106z" />
    <glyph glyph-name="S" unicode="S" horiz-adv-x="655" 
d="M602 187q0 -89 -71.5 -142.5t-196.5 -53.5q-73 0 -132 17t-98 45q-42 30 -42 68q0 24 16.5 42.5t41.5 18.5q6 0 17.5 -2.5t53.5 -22.5q34 -17 70.5 -27t82.5 -10q27 0 56 4.5t47 18t18 33.5q0 10 -6 20.5t-22 20t-38 15.5t-102 23t-124 34.5t-74.5 42.5t-48.5 62t-18 87
q0 54 21 98t60 74.5t94 46.5t120 16q69 0 125.5 -17.5t94 -47t56.5 -65.5t19 -73q0 -29 -16.5 -48t-48.5 -19q-21 0 -38.5 8t-28.5 38q-15 48 -56 71t-111 23q-78 0 -118 -25.5t-40 -70.5q0 -36 31.5 -62.5t129.5 -47t132.5 -31.5t60 -24.5t44 -32.5t29 -45.5t10.5 -59.5z
" />
    <glyph glyph-name="T" unicode="T" horiz-adv-x="581" 
d="M513 703q27 0 43.5 -17t16.5 -48q0 -63 -60 -63h-150v-494q0 -41 -17.5 -61t-55.5 -20q-31 0 -50.5 22.5t-19.5 58.5v494h-153q-26 0 -42.5 17t-16.5 46q0 65 59 65h446z" />
    <glyph glyph-name="U" unicode="U" horiz-adv-x="735" 
d="M590 703q32 0 53 -22.5t21 -56.5v-327q0 -76 -21 -134t-60.5 -96.5t-95.5 -57.5t-123 -19q-66 0 -120.5 19t-93 57.5t-59.5 97t-21 133.5v327q0 34 21.5 56.5t53.5 22.5q33 0 50.5 -22t17.5 -57v-328q0 -178 152 -178q78 0 117 43.5t39 133.5v329q0 22 11 42t27 28.5
t31 8.5z" />
    <glyph glyph-name="V" unicode="V" horiz-adv-x="665" 
d="M329 -4q-92 0 -132 106q-89 235 -168 484q-11 35 -11 48q0 15 8.5 31t29 27t41.5 11q28 0 47 -15.5t27 -46.5q66 -238 144 -481q6 -20 20 -20q13 0 20 20q92 286 148 480q10 33 25.5 48.5t40.5 15.5q31 0 54.5 -19t23.5 -46q0 -24 -8 -50q-53 -161 -172 -487
q-19 -55 -52.5 -80.5t-85.5 -25.5z" />
    <glyph glyph-name="W" unicode="W" horiz-adv-x="962" 
d="M868 703q27 0 46 -16.5t19 -48.5q0 -23 -7 -51q-53 -260 -111 -492q-13 -56 -39.5 -82t-71.5 -26q-50 0 -75.5 24.5t-41.5 83.5q-50 182 -92 368q-6 21 -8.5 27t-5.5 6q-6 0 -15 -33q-64 -254 -97 -368q-16 -57 -41 -82.5t-68 -25.5q-44 0 -71.5 26t-40.5 82
q-63 242 -114 495q-7 28 -7 44q0 30 21 49.5t51 19.5q23 0 41.5 -9.5t27.5 -29t11 -41.5q27 -182 78 -440q6 -31 15 -31q8 0 15 31q91 374 101 418q9 42 36.5 64.5t63.5 22.5q24 0 46 -13t34.5 -34t16.5 -41q16 -77 55.5 -245.5t40.5 -172.5q7 -31 17 -31t16 31
q50 253 83 452q7 69 71 69z" />
    <glyph glyph-name="X" unicode="X" horiz-adv-x="689" 
d="M673 640q0 -6 -3 -17.5t-23 -44.5q-106 -146 -205 -268q97 -108 167 -181q17 -19 25.5 -34t8.5 -33q0 -24 -19.5 -43.5t-48.5 -19.5q-15 0 -29.5 6.5t-44.5 35.5q-72 77 -160 176q-13 -16 -66 -80t-88 -102q-32 -36 -65 -36q-24 0 -42 17t-18 39q0 31 34 69
q57 61 162 187q-97 113 -228 267q-23 26 -23 59q0 23 21.5 45t50.5 22q18 0 35.5 -8t44.5 -45q96 -122 196 -240q67 81 181 248q16 25 30.5 35t36.5 10q29 0 49.5 -19.5t20.5 -44.5z" />
    <glyph glyph-name="Y" unicode="Y" horiz-adv-x="644" 
d="M635 640q0 -28 -16 -53q-154 -241 -225 -332l1 -175q0 -38 -19.5 -59t-54.5 -21q-32 0 -51.5 22t-19.5 58v175q-92 116 -223 328q-18 30 -18 55q0 30 20.5 49.5t50.5 19.5q42 0 66 -40q42 -74 76 -128.5t62.5 -95.5t29.5 -43q8 -13 12 -13t13 13q85 129 167 267
q23 39 56 40q31 1 52 -17.5t21 -49.5z" />
    <glyph glyph-name="Z" unicode="Z" horiz-adv-x="585" 
d="M545 59q0 -28 -17 -43.5t-44 -15.5h-371q-33 0 -51 15t-18 40q0 6 3.5 22t27.5 53q173 244 289 421q11 22 11 24q0 8 -12 8h-279q-65 0 -65 61q0 28 17.5 43.5t47.5 15.5h396q38 0 59 -17t21 -44q0 -8 -3.5 -26t-28.5 -56q-104 -162 -288 -416q-11 -17 -11 -21
q0 -7 12 -7h243q29 0 45 -15t16 -42z" />
    <glyph glyph-name="bracketleft" unicode="[" horiz-adv-x="352" 
d="M290 -66q23 0 37 -13t14 -37q0 -49 -51 -49h-167q-25 0 -40.5 17.5t-15.5 45.5v904q0 29 15.5 47t40.5 18h162q23 0 36.5 -13t13.5 -36q0 -50 -50 -50h-95v-834h100z" />
    <glyph glyph-name="backslash" unicode="\" horiz-adv-x="492" 
d="M417 -208q-13 0 -25 6.5t-19 30.5l-341 985l-4 18q0 21 15.5 35t33.5 14q14 0 25.5 -10.5t16.5 -25.5l341 -988q4 -9 4 -19q0 -21 -15 -33.5t-32 -12.5z" />
    <glyph glyph-name="bracketright" unicode="]" horiz-adv-x="353" 
d="M230 867q25 0 40.5 -18t15.5 -47v-904q0 -28 -16 -45.5t-40 -17.5h-1h-167q-50 0 -50 49q0 24 13.5 37t36.5 13h101v834h-96q-25 0 -38 13t-13 37q0 23 14.5 36t36.5 13h162h1z" />
    <glyph glyph-name="asciicircum" unicode="^" horiz-adv-x="516" 
d="M254 781q50 0 91 -57q14 -19 55 -74.5t56 -78.5q25 -35 25 -54q0 -21 -15 -34t-33 -13q-9 0 -20.5 3.5t-27.5 22.5l-105 140q-3 3 -11.5 15t-14.5 12q-8 0 -28 -27l-96 -141q-11 -13 -21 -19.5t-24 -6.5q-20 0 -35 13.5t-15 34.5q0 24 23 54q24 37 106 152q22 30 42 44
t48 14z" />
    <glyph glyph-name="underscore" unicode="_" horiz-adv-x="453" 
d="M400 0q17 0 32 -14.5t15 -33.5q0 -20 -14.5 -35t-32.5 -15h-349q-20 0 -32 13t-12 37q0 48 44 48h349z" />
    <glyph glyph-name="grave" unicode="`" horiz-adv-x="434" 
d="M301 585q-15 0 -29 7q-63 26 -137 61q-17 7 -27 21t-10 28q0 21 13.5 35.5t32.5 14.5q18 0 39 -13q26 -18 127 -79q11 -7 18.5 -17.5t7.5 -20.5q0 -13 -10 -25t-25 -12z" />
    <glyph glyph-name="a" unicode="a" horiz-adv-x="533" 
d="M490 94q15 -22 15 -41q0 -21 -21.5 -40t-48.5 -19q-23 0 -44 21q-19 21 -23 50q-21 -32 -65.5 -53t-90.5 -21q-74 0 -123 37.5t-49 97.5q0 77 64 114t179 37l61 -1v28q0 48 -27.5 72t-73.5 24q-26 0 -50.5 -10t-47.5 -39q-23 -30 -56 -30q-25 0 -40 14.5t-15 39.5
q0 38 28.5 70t75.5 50.5t110 18.5q71 0 119 -20.5t75 -61t27 -101.5l-4 -136q0 -33 4 -56t21 -45zM224 91q30 0 60 16.5t43.5 38t14.5 37.5l-58 2q-64 0 -96.5 -12.5t-32.5 -41.5q0 -17 18.5 -28.5t50.5 -11.5z" />
    <glyph glyph-name="b" unicode="b" horiz-adv-x="584" 
d="M321 506q46 0 88 -17t73 -49.5t48.5 -80.5t17.5 -107q0 -60 -17.5 -109t-48.5 -82.5t-72.5 -50.5t-87.5 -17q-84 0 -144 48q-12 -41 -57 -41q-30 0 -47 20t-17 56v624q0 33 19 54t51 21q33 0 50.5 -20.5t17.5 -54.5v-230q52 36 126 36zM301 107q49 0 78 39t29 106
q0 63 -29 100t-78 37q-45 0 -75.5 -33t-30.5 -77v-68q0 -20 10 -44t36.5 -42t59.5 -18z" />
    <glyph glyph-name="c" unicode="c" horiz-adv-x="525" 
d="M291 113q15 0 35 4t62 30q17 11 35 11q25 0 41 -17.5t16 -40.5q0 -16 -9 -32t-22 -25q-29 -23 -71 -37.5t-92 -14.5q-52 0 -92.5 15.5t-68 38t-47.5 53.5t-31 70t-11 83q0 59 19 107t53 81t81 50t101 17q40 0 81.5 -13.5t74.5 -43.5t47 -60q10 -22 10 -43q0 -25 -19 -42
t-44 -17q-17 0 -32.5 10t-24.5 24q-21 37 -44.5 51.5t-50.5 14.5q-23 0 -50 -11t-45.5 -42.5t-18.5 -82.5q0 -33 11 -65t40 -52.5t66 -20.5z" />
    <glyph glyph-name="d" unicode="d" horiz-adv-x="584" 
d="M457 775q31 0 50 -21t19 -54v-624q0 -36 -16.5 -56t-46.5 -20q-44 0 -58 41q-58 -48 -143 -48q-46 0 -87.5 17t-72.5 50.5t-48.5 82.5t-17.5 109q0 59 17.5 107t48.5 80.5t73 49.5t88 17q74 0 125 -36v230q0 34 18 54.5t51 20.5zM283 107q21 0 46 10.5t42 36.5t17 57v68
q0 45 -30 77.5t-75 32.5q-49 0 -78 -37t-29 -100q0 -67 29 -106t78 -39z" />
    <glyph glyph-name="e" unicode="e" horiz-adv-x="545" 
d="M282 510q52 0 94 -16t72 -46.5t45.5 -75.5t15.5 -102q0 -25 -3 -46q-3 -18 -13.5 -28t-33.5 -10l-283 1q13 -40 45 -61t76 -21q22 0 47.5 7t40.5 16q17 10 35 10q26 0 39.5 -16t13.5 -36q0 -14 -7.5 -27.5t-31.5 -29.5q-27 -18 -66.5 -28t-79.5 -10q-54 0 -100.5 18
t-80.5 51.5t-52.5 83t-18.5 108.5t18 107.5t51 82t78.5 51t98.5 17.5zM280 391q-34 0 -59.5 -14.5t-37.5 -40.5t-15 -52h216q-2 52 -28 79.5t-76 27.5z" />
    <glyph glyph-name="f" unicode="f" horiz-adv-x="398" 
d="M386 760q36 -11 48 -27t12 -36q0 -22 -13 -36.5t-31 -14.5l-22 3q-21 7 -42 7q-41 0 -64.5 -26.5t-23.5 -79.5v-58h89q24 0 39 -14t15 -38q0 -21 -15 -37t-39 -16h-89v-313q0 -34 -18 -55t-49 -21q-29 0 -49.5 23.5t-20.5 52.5v313h-51q-23 0 -38.5 16t-15.5 37
q0 24 15 38t39 14h51v90q0 60 22 102t63.5 66.5t98.5 24.5q49 0 89 -15z" />
    <glyph glyph-name="g" unicode="g" horiz-adv-x="582" 
d="M546 605q19 0 33 -13t14 -32q0 -24 -15 -50q-12 -26 -32 -50t-43 -36q29 -45 29 -110q-1 -94 -67.5 -149t-184.5 -55q-18 0 -50 4q-32 -6 -32 -23q0 -12 13.5 -19t48.5 -8l80 -1q104 -5 147 -37.5t43 -102.5q0 -79 -65 -125t-175 -46q-114 0 -174 39.5t-60 106.5
q0 41 21 66.5t53 35.5q-23 9 -37 28t-14 44q0 49 54 72q-47 25 -73 69.5t-26 100.5q0 47 17.5 86t50 66t78 41t100.5 14q39 0 76 -7t64 -20q9 -3 17 -3q19 0 33 17.5t28 54.5q18 42 48 42zM279 219q63 0 96 25.5t33 69.5q0 45 -33 70.5t-96 25.5q-56 0 -88 -26t-32 -70
q0 -43 32 -69t88 -26zM242 -38q-66 -11 -66 -55q0 -19 31.5 -33.5t85.5 -14.5q52 0 84 15.5t32 36.5q0 23 -20 34.5t-65 13.5z" />
    <glyph glyph-name="h" unicode="h" horiz-adv-x="578" 
d="M333 508q95 0 143.5 -48.5t48.5 -145.5v-248q0 -29 -18 -47.5t-50 -18.5t-51.5 18.5t-19.5 47.5v226q0 51 -24.5 75t-63.5 24q-46 0 -74 -27t-29 -75v-223q0 -34 -16.5 -50t-51.5 -16q-32 0 -51 17.5t-19 48.5v643q0 30 19 48t51 18q33 0 50.5 -18t17.5 -48v-242
q52 41 138 41z" />
    <glyph glyph-name="i" unicode="i" horiz-adv-x="249" 
d="M125 590q-37 0 -61 23.5t-24 58.5q0 39 24 62.5t61 23.5q27 0 49 -13.5t30 -34t8 -38.5q0 -35 -25 -58.5t-62 -23.5zM126 0q-31 0 -51 21t-20 54v352q0 33 20 53.5t51 20.5q33 0 50 -20t17 -54v-352q0 -39 -16.5 -57t-50.5 -18z" />
    <glyph glyph-name="j" unicode="j" horiz-adv-x="248" 
d="M127 592q-17 0 -36.5 7.5t-33 27.5t-13.5 45q0 37 23.5 60t59.5 23t60 -23t24 -60q0 -34 -24 -57t-60 -23zM127 501q32 0 50 -20t18 -53v-401q0 -104 -26 -163t-75 -93q-28 -19 -59 -18q-29 1 -45 18.5t-16 44.5q0 9 3.5 20.5t29.5 40.5q26 23 38.5 55t12.5 85v411
q0 34 18.5 53.5t50.5 19.5z" />
    <glyph glyph-name="k" unicode="k" horiz-adv-x="545" 
d="M490 113q23 -34 23 -59q0 -14 -9.5 -29.5t-24 -22t-27.5 -6.5q-21 0 -38.5 10t-44.5 46q-49 68 -61 80q-13 14 -28 23.5t-41 9.5t-44 -3v-83q0 -40 -16 -59.5t-51 -19.5q-32 0 -51.5 21t-19.5 58v618q0 35 19.5 56.5t51.5 21.5q34 0 50.5 -21t16.5 -57v-424q12 -3 43 -3
q25 0 45 24t88 156q15 30 31.5 42.5t43.5 12.5q25 0 45 -17.5t20 -45.5q0 -26 -14 -48q-79 -132 -93 -150t-22 -24q24 -9 49 -37q22 -23 59 -70z" />
    <glyph glyph-name="l" unicode="l" horiz-adv-x="253" 
d="M195 80q0 -41 -16.5 -60.5t-51.5 -19.5q-32 0 -51 22t-19 58v615q0 36 19 58t51 22q34 0 51 -21t17 -59v-615z" />
    <glyph glyph-name="m" unicode="m" horiz-adv-x="861" 
d="M628 511q90 0 135 -46t45 -135v-257q0 -73 -69 -73q-32 0 -50 19t-18 54v231q0 42 -21.5 64.5t-61.5 22.5q-41 0 -63.5 -23.5t-23.5 -64.5v-230q0 -73 -71 -73q-31 0 -48.5 19t-17.5 54v231q0 42 -21.5 64.5t-61.5 22.5q-37 0 -61.5 -24.5t-25.5 -64.5v-229
q0 -35 -19 -54t-53 -19q-31 0 -48.5 19.5t-17.5 53.5v364q0 28 17.5 46t45.5 18q25 0 40 -12.5t20 -33.5q48 56 133 56q57 0 98.5 -20t62.5 -54q50 74 155 74z" />
    <glyph glyph-name="n" unicode="n" horiz-adv-x="576" 
d="M317 507q103 0 154.5 -51.5t51.5 -151.5v-238q0 -29 -18.5 -47.5t-51.5 -18.5q-32 0 -50 18.5t-18 47.5v222q0 51 -25.5 75.5t-65.5 24.5q-31 0 -55.5 -14.5t-34 -37.5t-10.5 -44v-226q0 -29 -19.5 -47.5t-51.5 -18.5q-30 0 -48.5 19t-18.5 47v369q0 28 17.5 45t48.5 17
q19 0 34 -11.5t21 -29.5q26 24 63 37.5t77 13.5z" />
    <glyph glyph-name="o" unicode="o" horiz-adv-x="582" 
d="M291 -9q-56 0 -103 17.5t-81 50.5t-52.5 81.5t-18.5 108.5q0 59 18.5 107t52.5 81.5t81 51t103 17.5t103 -17.5t81 -51t52.5 -81.5t18.5 -107q0 -60 -18.5 -108.5t-52.5 -81.5t-81 -50.5t-103 -17.5zM292 108q55 0 85 39t30 102q0 67 -30.5 103.5t-84.5 36.5
q-55 0 -86 -36.5t-31 -103.5q0 -63 30.5 -102t86.5 -39z" />
    <glyph glyph-name="p" unicode="p" horiz-adv-x="583" 
d="M320 506q46 0 88 -17t73 -49.5t48.5 -80.5t17.5 -107q0 -60 -17.5 -109t-48.5 -82.5t-72.5 -50.5t-87.5 -17q-70 0 -127 40v-203q0 -34 -18 -55t-50 -21t-51 21t-19 55v595q0 36 17 56t47 20q48 0 59 -49q57 54 141 54zM300 107q49 0 78 39t29 106q0 63 -29 100t-78 37
q-45 0 -75.5 -33t-30.5 -77v-68q0 -20 10 -44t36.5 -42t59.5 -18z" />
    <glyph glyph-name="q" unicode="q" horiz-adv-x="580" 
d="M463 501q30 0 46.5 -20t16.5 -56v-595q0 -34 -19 -55t-50 -21q-33 0 -51 21t-18 55v199q-52 -36 -126 -36q-46 0 -87.5 17t-72.5 50.5t-48.5 82.5t-17.5 109q0 59 17.5 107t48.5 80.5t73 49.5t88 17q86 0 142 -49q12 44 58 44zM283 107q21 0 46 10.5t42 36.5t17 57v68
q0 45 -30 77.5t-75 32.5q-49 0 -78 -37t-29 -100q0 -67 29 -106t78 -39z" />
    <glyph glyph-name="r" unicode="r" horiz-adv-x="401" 
d="M361 494q14 -7 24.5 -21.5t10.5 -34.5q0 -29 -16 -45.5t-38 -16.5q-7 0 -25 5t-34 5q-17 0 -37.5 -9t-36 -33.5t-16.5 -54.5v-214q0 -35 -19 -55t-51 -20q-31 0 -49 20t-18 55v354q0 33 18 52.5t48 19.5q22 0 38.5 -14.5t21.5 -38.5q21 27 49.5 43.5t60.5 16.5
q44 0 69 -14z" />
    <glyph glyph-name="s" unicode="s" horiz-adv-x="500" 
d="M253 -6q-100 0 -166 45q-17 12 -28 25.5t-11 32.5q0 23 15 38t37 15q5 0 14.5 -2t33.5 -15q55 -34 118 -34q32 0 50.5 8t18.5 21q0 14 -17.5 22t-64.5 16.5t-67 13.5q-77 20 -113.5 59t-36.5 103q0 74 59 120.5t163 46.5q41 0 80 -9.5t70 -32t47 -52.5q15 -24 15 -47
q0 -26 -15.5 -42t-38.5 -16q-29 0 -52 32q-1 2 -6.5 9t-15 16.5t-24.5 16.5t-32.5 10t-39.5 3q-45 0 -67 -14t-22 -37q0 -22 20.5 -37.5t97 -32t106 -31t44 -30.5t21.5 -35t7 -43q0 -66 -53 -104.5t-147 -38.5z" />
    <glyph glyph-name="t" unicode="t" horiz-adv-x="427" 
d="M366 388h-117v-210q0 -28 13 -46t34 -18t41 6q8 2 19 2q18 0 30.5 -14t12.5 -39q0 -21 -12 -35t-26 -20q-37 -16 -91 -16q-76 0 -117.5 42t-41.5 120v228h-49q-21 0 -37.5 14t-16.5 38q0 14 6 26.5t19 19t29 6.5h49v51q0 33 20 54.5t50 21.5t49 -21t19 -55v-51h117
q24 0 38.5 -15.5t14.5 -36.5t-14.5 -36.5t-38.5 -15.5z" />
    <glyph glyph-name="u" unicode="u" horiz-adv-x="558" 
d="M434 501q33 0 52 -20t19 -55v-359q0 -32 -16 -50t-46 -18q-24 0 -39 14t-18 39q-24 -28 -59 -43.5t-75 -15.5q-41 0 -77 11.5t-62.5 35.5t-41.5 61.5t-15 87.5v237q0 36 17.5 55.5t48.5 19.5q35 0 52 -19.5t17 -55.5v-230q0 -33 13 -54t31.5 -27.5t34.5 -6.5q43 0 71 28
t29 75v215q0 36 16.5 55.5t47.5 19.5z" />
    <glyph glyph-name="v" unicode="v" horiz-adv-x="546" 
d="M275 -13q-40 0 -67.5 21.5t-48.5 70.5q-103 232 -132 303q-12 30 -12 51q0 15 7.5 31t25 27t38.5 11q57 0 78 -64l45.5 -133t50.5 -144q6 -17 15 -17q10 0 15 17q64 184 73 211t20 63q20 68 68 68q32 0 53 -17.5t21 -46.5q0 -23 -8 -49q-50 -132 -125 -309
q-22 -51 -49 -72.5t-68 -21.5z" />
    <glyph glyph-name="w" unicode="w" horiz-adv-x="838" 
d="M237 -13q-32 0 -58 12t-40.5 32.5t-20.5 39.5q-62 211 -87 314q-7 29 -7 49q0 30 21 48t54 18q56 0 70 -72q7 -34 24.5 -129.5t29.5 -148.5q4 -19 14 -19q7 0 11 19l66 257q11 42 38.5 63.5t65.5 21.5q40 0 69.5 -21.5t40.5 -63.5l65 -256q6 -20 14 -20q7 0 13 21
q11 52 28 145.5t24 128.5q14 74 72 74q30 0 49.5 -17.5t19.5 -44.5q0 -24 -7 -53q-7 -27 -34.5 -132t-51.5 -181q-26 -85 -113 -85q-41 0 -72 19t-44 64l-60 221q-7 27 -13 27q-7 0 -14 -27l-55 -222q-24 -82 -112 -82z" />
    <glyph glyph-name="x" unicode="x" horiz-adv-x="542" 
d="M367 236l112 -118q25 -26 25 -51q0 -27 -20.5 -47t-46.5 -20q-23 0 -54 28q-30 27 -110 107l-106 -108q-27 -27 -58 -27q-22 0 -40.5 18.5t-18.5 38.5q0 16 5.5 30t23.5 32q52 52 104 108l-135 142q-25 25 -25 59q0 18 8 35.5t26 28t38 10.5q17 0 37 -11.5t37 -33.5
l109 -125q72 85 101 124q14 18 29.5 31.5t36.5 13.5q28 0 48.5 -18.5t20.5 -44.5q0 -36 -25 -65q-49 -57 -122 -137z" />
    <glyph glyph-name="y" unicode="y" horiz-adv-x="554" 
d="M463 503q29 0 49.5 -16.5t20.5 -44.5q0 -17 -12 -56q-25 -78 -49 -152t-43.5 -132.5t-36.5 -107t-19 -54.5q-32 -95 -89.5 -137.5t-145.5 -42.5q-31 0 -50 17.5t-19 43.5q0 27 17.5 44t47.5 21q44 6 67.5 17t35.5 32t21 46l3 9q-35 2 -59.5 23t-44.5 69
q-106 250 -129 308q-8 20 -8 39q0 16 8.5 33.5t28 28t40.5 10.5q53 0 72 -56q18 -53 40.5 -115.5t72.5 -189.5q1 -2 3.5 -5.5t7.5 -3.5q2 0 5.5 2t5.5 4l82 299q18 67 77 67z" />
    <glyph glyph-name="z" unicode="z" horiz-adv-x="513" 
d="M480 57q0 -24 -14.5 -40t-34.5 -16l-317 -1q-31 0 -48 16.5t-17 40.5q0 17 8 32.5t29 39.5q134 146 206 233q8 9 8 16q0 2 -1.5 4t-10.5 2q-157 2 -211 0q-25 0 -41 15.5t-16 44.5t16.5 43t41.5 14h342q27 0 45 -17t18 -39q0 -8 -2.5 -25.5t-25.5 -44.5
q-11 -13 -42 -48.5t-90 -101t-73 -81.5q-12 -13 -12 -18q0 -8 13 -8l176 -1q22 -1 37.5 -17.5t15.5 -42.5z" />
    <glyph glyph-name="braceleft" unicode="{" horiz-adv-x="418" 
d="M266 760q-35 0 -56.5 -23t-21.5 -66q0 -15 5 -40t34.5 -85.5t38 -92.5t8.5 -60q1 -37 -22 -66t-65 -40q87 -24 87 -94q0 -8 -3.5 -26t-25.5 -73t-28 -78t-6 -38q0 -25 15 -38t37 -13q25 0 47 8q16 7 25 7q20 0 32 -11.5t12 -33.5q0 -16 -10 -32.5t-30 -26.5
q-41 -18 -93 -17q-26 1 -53 7.5t-50.5 22.5t-39.5 41t-16 59q0 45 31.5 124.5t31.5 108.5q0 36 -26 50.5t-78 24.5q-17 4 -28.5 14t-11.5 24t13.5 25t29.5 11q59 2 83 16.5t25 52.5q0 15 -5 36t-34.5 76t-39.5 86.5t-12 56t-2 34.5q1 83 54.5 128t145.5 47q36 1 62.5 -5.5
t49.5 -17.5q13 -7 24.5 -20t11.5 -34q0 -23 -13.5 -38.5t-31.5 -15.5q-10 0 -31 9q-35 16 -70 16z" />
    <glyph glyph-name="bar" unicode="|" horiz-adv-x="217" 
d="M150 -201q0 -24 -9.5 -35t-31.5 -11q-18 0 -29.5 12.5t-11.5 33.5v933q0 19 11.5 31.5t29.5 12.5q41 0 41 -44v-933z" />
    <glyph glyph-name="braceright" unicode="}" horiz-adv-x="418" 
d="M370 333q16 0 29 -11t13 -25q0 -13 -11 -23.5t-28 -14.5q-52 -10 -78 -24.5t-26 -50.5q0 -28 23.5 -89.5t31 -89t7.5 -54.5q0 -20 -7.5 -41.5t-26.5 -41t-50.5 -33t-74.5 -14.5q-52 -1 -93 17q-15 7 -27 22.5t-12 36.5q0 22 11.5 33.5t31.5 11.5q11 0 25 -7q22 -8 48 -8
q22 0 37 13t15 38q0 29 -28.5 100t-32 89t-3.5 26q0 69 87 94q-42 11 -65 40t-22 66q0 57 38 135t43 103t5 40q0 43 -21.5 66t-56.5 23q-34 0 -69 -16q-21 -9 -32 -9q-18 0 -31 15.5t-13 38.5q0 15 8.5 29.5t27.5 24.5q23 11 49 17.5t63 5.5q91 -2 144.5 -47t54.5 -128
q1 -36 -8.5 -73.5t-39 -92.5t-35 -71t-7.5 -28t-2 -24q0 -38 24.5 -52.5t83.5 -16.5z" />
    <glyph glyph-name="asciitilde" unicode="~" horiz-adv-x="605" 
d="M554 309q0 -29 -13.5 -59.5t-45 -52.5t-67.5 -22q-35 0 -68 13t-70.5 50.5t-48 45.5t-24 13.5t-27.5 5.5q-19 0 -32.5 -13t-13.5 -34q0 -15 6.5 -29t6.5 -21q0 -15 -10 -26t-26 -11q-30 0 -50 29.5t-20 77.5q0 58 39 96t89 38q34 0 61.5 -12t46 -28t57 -57.5t70.5 -41.5
q19 0 31 11.5t12 29.5q0 8 -3.5 21.5t-3.5 18.5q0 19 12.5 30.5t32.5 11.5q24 0 41.5 -24t17.5 -61z" />
    <glyph glyph-name="exclamdown" unicode="&#xa1;" horiz-adv-x="240" 
d="M122 533q34 0 53 -18t19 -50q0 -31 -19 -49.5t-52 -18.5q-34 0 -53.5 18.5t-20.5 49.5q0 32 19.5 50t53.5 18zM122 318q38 0 41 -49q1 -28 2.5 -64.5t7 -141t6.5 -120.5q1 -25 -14.5 -40.5t-44.5 -15.5q-32 0 -50.5 15.5t-15.5 42.5q16 237 20 324q5 49 48 49z" />
    <glyph glyph-name="cent" unicode="&#xa2;" horiz-adv-x="541" 
d="M294 463q-48 0 -81 -34t-33 -102t34 -103t84 -35q14 0 35 4t61 30q20 11 36 11q25 0 41 -17.5t16 -40.5q0 -16 -9 -32t-23 -26q-39 -30 -91 -43v-30q0 -33 -13 -48t-43 -15q-26 0 -41 17t-15 46v25q-93 12 -151.5 81t-58.5 176q0 39 10 80t35.5 76.5t66 61.5t98.5 34v35
q0 28 15 44.5t41 16.5q29 0 42.5 -14.5t13.5 -46.5v-41q25 -7 53 -22.5t50 -39.5t32 -47q11 -23 11 -43q0 -25 -19 -42t-44 -17q-20 0 -34.5 10t-22.5 24q-38 67 -96 67z" />
    <glyph glyph-name="sterling" unicode="&#xa3;" horiz-adv-x="603" 
d="M527 108q18 0 31.5 -14t13.5 -33q0 -36 -41 -55q-41 -18 -121 -18q-53 0 -144 15.5t-121 15.5q-23 0 -49 -8l-18 -2q-18 0 -31 13t-13 32t8 32.5t35 24.5q24 9 59 11v96h-40q-21 0 -35.5 13t-14.5 36q0 48 50 48h40v75q-2 107 50.5 162t157.5 55q81 0 131 -23
q48 -19 48 -61q0 -21 -13.5 -34.5t-31.5 -13.5q-13 0 -30 5q-46 19 -93 19q-52 0 -79.5 -28.5t-27.5 -81.5v-74h186q22 0 36 -14t14 -34q0 -21 -14 -35t-36 -14h-186v-107q101 -19 149 -19q71 0 103 11q2 0 11.5 2.5t15.5 2.5z" />
    <glyph glyph-name="currency" unicode="&#xa4;" horiz-adv-x="649" 
d="M574 135q23 -23 23 -39t-12 -28t-27 -12t-37 20l-65 63q-28 -17 -64 -25.5t-72 -8.5q-37 0 -70 8t-59 23l-62 -60q-22 -20 -36 -20q-15 0 -27.5 12t-12.5 28q0 4 3 12t20 27l55 54q-16 23 -26 55t-10 70q0 74 38 126l-57 56q-23 21 -23 39q0 16 12.5 28t27.5 12t36 -21
l65 -62q24 13 58 21t68 8q37 0 72.5 -9t60.5 -24l68 66q21 21 37 21q15 0 27 -12t12 -28q0 -19 -23 -39l-62 -61q16 -24 26 -56t10 -65t-9 -65t-25 -55zM320 199q46 0 78 18t43.5 45.5t11.5 53.5q0 25 -11.5 52.5t-44 45.5t-77.5 18q-58 0 -94 -32t-36 -84q0 -54 35.5 -85.5
t94.5 -31.5z" />
    <glyph glyph-name="yen" unicode="&#xa5;" horiz-adv-x="580" 
d="M489 621q24 1 41 -14.5t17 -36.5q0 -30 -34 -61q-81 -93 -154 -157h98q21 0 34.5 -12.5t13.5 -30.5q0 -19 -13.5 -32t-34.5 -13h-113v-61h107q20 0 34 -13t14 -31q0 -17 -14 -29.5t-34 -12.5h-107v-55q0 -29 -14.5 -45.5t-40.5 -16.5q-25 0 -40 16.5t-15 45.5v54h-100
q-20 0 -34 12.5t-14 30.5q0 45 48 45l100 -1v61h-107q-21 0 -34.5 12t-13.5 33q0 43 48 43h90q-91 77 -154 149q-15 13 -23.5 31t-7.5 31q0 23 17.5 40.5t38.5 17.5q13 0 26.5 -7.5t36.5 -32.5q43 -56 86.5 -104t52.5 -49q10 1 52 48t88 107q19 19 32 28t27 10z" />
    <glyph glyph-name="brokenbar" unicode="&#xa6;" horiz-adv-x="216" 
d="M149 452q0 -18 -7 -32t-34 -14q-18 0 -29.5 13t-11.5 33v249q0 20 11.5 33t29.5 13q41 0 41 -46v-249zM149 -71q0 -24 -9.5 -34.5t-31.5 -10.5q-18 0 -29.5 12.5t-11.5 32.5v250q0 20 11.5 33.5t29.5 13.5q41 0 41 -47v-250z" />
    <glyph glyph-name="section" unicode="&#xa7;" horiz-adv-x="645" 
d="M487 54q103 -27 103 -122q0 -36 -15 -69.5t-46 -59.5t-78 -40.5t-106 -14.5q-65 0 -118 11.5t-84.5 30.5t-47.5 38q-9 9 -14.5 22.5t-5.5 25.5q0 14 7.5 28.5t19.5 21t23 6.5q17 0 43 -15q66 -55 177 -55q29 0 59.5 7.5t49.5 26.5t19 42q0 27 -29.5 43t-103.5 19
q-100 4 -163 23t-96.5 55.5t-33.5 98.5q0 55 33 93.5t98 55.5q-29 10 -54 28.5t-44 52.5t-19 83q0 107 70.5 166.5t193.5 59.5q115 0 182 -45.5t80 -120.5q4 -16 4 -37q0 -26 -16 -43.5t-47 -17.5q-27 0 -44 14t-20 38q-7 45 -40.5 71t-105.5 26q-47 0 -80.5 -17.5t-45 -44
t-11.5 -49.5q0 -93 157 -108q261 -27 261 -181q0 -52 -28.5 -91t-83.5 -56zM324 98q82 0 119.5 23.5t37.5 65.5q0 35 -37 61.5t-102 29.5q-49 2 -88.5 -9t-61 -31t-21.5 -50q0 -19 11 -40t47 -34.5t95 -15.5z" />
    <glyph glyph-name="dieresis" unicode="&#xa8;" horiz-adv-x="572" 
d="M159 595q-33 0 -55 21.5t-22 53.5q0 35 21.5 56.5t55.5 21.5t56 -21.5t22 -56.5q0 -32 -22 -53.5t-56 -21.5zM412 595q-34 0 -56 21.5t-22 53.5q0 35 22 56.5t56 21.5t56 -21.5t22 -56.5q0 -32 -22.5 -53.5t-55.5 -21.5z" />
    <glyph glyph-name="copyright" unicode="&#xa9;" horiz-adv-x="1184" 
d="M592 -245q-157 0 -284.5 58.5t-200.5 177.5t-73 280q0 146 64 263.5t192.5 185t301.5 67.5q125 0 228.5 -36t177 -104t112.5 -164t39 -212q0 -161 -73 -280t-200 -177.5t-284 -58.5zM592 -140q100 0 182 28.5t140 82t88.5 130.5t30.5 170t-30.5 169.5t-88.5 130t-140 82
t-182 28.5q-101 0 -183.5 -28.5t-140 -82t-88 -130t-30.5 -169.5t30.5 -170t88 -130.5t140 -82t183.5 -28.5zM582 24q-55 0 -102.5 18t-81 52t-52 83t-18.5 108q0 58 18.5 106.5t52.5 82t82 51.5t105 18q49 0 88.5 -13.5t72 -42.5t50.5 -72q5 -14 5 -29q0 -22 -15.5 -36.5
t-38.5 -14.5q-27 0 -47 29q-27 46 -57.5 60.5t-65.5 14.5q-65 0 -101 -40t-36 -114q0 -77 38 -117.5t108 -40.5q77 0 131 38q6 3 16 6.5t15 3.5q17 0 31 -15.5t14 -35.5q0 -11 -7.5 -23.5t-20.5 -22.5q-31 -25 -79 -39.5t-105 -14.5z" />
    <glyph glyph-name="ordfeminine" unicode="&#xaa;" horiz-adv-x="472" 
d="M416 384q19 -15 19 -30q0 -21 -12.5 -33.5t-34.5 -12.5q-16 0 -29 5.5t-19 14.5q-16 20 -20 40q-20 -28 -57.5 -45t-85.5 -17q-59 0 -93 28t-34 81q0 46 26.5 74.5t81 43t143.5 12.5v2q2 28 -21 47t-58 19q-31 0 -53.5 -7.5t-32.5 -30.5q-4 -10 -16 -16t-28 -6
q-20 0 -34.5 11.5t-14.5 30.5q1 53 48 82t125 29q63 0 104 -16.5t61.5 -48t19.5 -77.5l-8 -103q-1 -24 3 -43.5t20 -33.5zM192 386q21 0 45 7.5t41.5 26.5t18.5 43v6q-86 3 -122 -10t-36 -39q0 -15 14.5 -24.5t38.5 -9.5z" />
    <glyph glyph-name="guillemotleft" unicode="&#xab;" horiz-adv-x="533" 
d="M442 147q-4 0 -11 1.5t-24 12.5l-87 62q-32 22 -53.5 41.5t-21.5 45.5q0 17 11 34.5t64 54.5l87 62q14 9 20 12t15 3q16 0 28 -12t12 -26q0 -25 -29 -44l-86 -60q-2 -1 -14 -9.5t-12 -14.5q0 -5 26 -22l86 -60q29 -19 29 -44q0 -14 -12 -25.5t-28 -11.5zM225 147
q-14 0 -34 14l-88 62q-32 22 -53 41.5t-21 45.5q0 17 11 35t63 54l88 62q21 15 34 15q17 0 28.5 -12t11.5 -26q0 -24 -28 -44l-87 -60q-4 -3 -15 -11t-11 -13q0 -4 26 -22l87 -60q28 -20 28 -44q0 -14 -11.5 -25.5t-28.5 -11.5z" />
    <glyph glyph-name="logicalnot" unicode="&#xac;" horiz-adv-x="555" 
d="M451 359q41 -4 41 -49v-132q0 -20 -15 -34.5t-36 -14.5q-22 0 -37.5 14.5t-15.5 34.5v84h-288q-21 0 -36 12.5t-15 35.5q0 50 51 50h344z" />
    <glyph glyph-name="uni00AD" unicode="&#xad;" horiz-adv-x="359" 
d="M61 271q0 50 45 50h148q18 0 31 -14.5t13 -35.5q0 -20 -13 -34t-31 -14h-148q-19 0 -32 12.5t-13 35.5z" />
    <glyph glyph-name="registered" unicode="&#xae;" horiz-adv-x="721" 
d="M361 795q70 0 128.5 -21t100 -60.5t63.5 -94.5t22 -119q0 -67 -22 -122t-63 -93.5t-100 -58.5t-129 -20q-71 0 -129.5 20t-100 58.5t-63.5 93.5t-22 122q0 64 22 119t63.5 94.5t100.5 60.5t129 21zM361 272q113 0 179 61.5t66 166.5t-66 166.5t-179 61.5t-179 -61.5
t-66 -166.5t66 -166.5t179 -61.5zM468 440l20 -31q6 -8 6 -23q0 -10 -9.5 -21t-24.5 -11q-16 0 -25.5 6t-17.5 24l-13 29q-9 18 -17 27.5t-32 9.5h-44v-57q0 -16 -9.5 -24.5t-27.5 -8.5q-16 0 -25.5 9t-9.5 24v215q0 13 7.5 22.5t18.5 10.5v1q10 1 42.5 3.5t49.5 2.5
q59 0 92 -25.5t33 -69.5q0 -30 -16 -49.5t-37 -25.5q20 -7 39 -38zM353 504q22 0 41 11t19 32q0 14 -15.5 25.5t-37.5 11.5l-49 -1v-79h42z" />
    <glyph glyph-name="macron" unicode="&#xaf;" horiz-adv-x="594" 
d="M108 653q0 21 13.5 33.5t34.5 12.5h281q20 0 34 -13.5t14 -32.5q0 -20 -14 -34t-34 -14h-281q-20 0 -34 13.5t-14 34.5z" />
    <glyph glyph-name="degree" unicode="&#xb0;" horiz-adv-x="364" 
d="M181 491q-24 0 -49.5 7.5t-47.5 25t-36.5 46t-14.5 66.5q0 61 41.5 102.5t106.5 41.5q32 0 67 -14t59 -49.5t24 -80.5q0 -62 -42 -103.5t-108 -41.5zM181 563q36 0 58.5 20t22.5 53t-22.5 52.5t-58.5 19.5q-35 0 -57 -19.5t-22 -52.5t22.5 -53t56.5 -20z" />
    <glyph glyph-name="plusminus" unicode="&#xb1;" horiz-adv-x="500" 
d="M431 381q17 0 28.5 -13t11.5 -32q0 -18 -11.5 -31t-28.5 -13h-132v-84q0 -22 -13.5 -36.5t-32.5 -14.5q-21 0 -33.5 14.5t-12.5 36.5v84h-132q-18 0 -30 11.5t-12 32.5q0 45 42 45h132v88q0 23 11.5 37t34.5 14q46 0 46 -51v-88h132zM377 90q17 0 29 -13t12 -32
q0 -18 -12 -31.5t-29 -13.5h-244q-19 0 -31 12t-12 33q0 45 43 45h244z" />
    <glyph glyph-name="uni00B2" unicode="&#xb2;" horiz-adv-x="435" 
d="M174 336q0 -4 8 -4h2t50.5 5.5t107.5 5.5q20 0 33 -11.5t13 -31.5q0 -21 -12.5 -33.5t-33.5 -12.5h-251q-37 0 -37 41q0 30 26 60t73 65q83 64 102 80.5t25.5 29.5t6.5 26q0 61 -76 61q-28 0 -49.5 -9t-32.5 -37q-4 -13 -13 -21t-31 -8q-19 0 -31 14.5t-12 33.5
q0 17 6 32q18 42 60.5 65.5t110.5 23.5q74 0 118.5 -38t44.5 -100q0 -39 -18 -74t-106 -101l-76 -53q-8 -5 -8 -9z" />
    <glyph glyph-name="uni00B3" unicode="&#xb3;" horiz-adv-x="451" 
d="M402 567q0 -36 -17.5 -66t-42.5 -44q24 -10 39 -34t15 -51q0 -24 -9.5 -48t-32 -43t-58 -30.5t-82.5 -11.5q-34 0 -69.5 7.5t-60.5 19.5q-28 12 -28 45q0 16 11.5 28t25.5 12q13 0 37 -6q52 -16 85 -16q39 -1 61.5 11.5t22.5 34.5q0 17 -13 27.5t-29 12.5t-23 2l-57 -2
q-17 0 -31 12.5t-14 29.5q0 16 13.5 27t31.5 11q42 0 60 2q20 2 35.5 10.5t21.5 21.5t6 26q1 26 -20 44t-57 18q-28 0 -50.5 -7.5t-44.5 -31.5q-21 -21 -49 -21q-17 0 -29.5 12t-12.5 32q0 5 3.5 18.5t17.5 26.5q57 65 165 65q80 0 130 -42t49 -102z" />
    <glyph glyph-name="acute" unicode="&#xb4;" horiz-adv-x="434" 
d="M133 585q-16 0 -25.5 12t-9.5 25q0 10 7.5 21t18.5 17q99 60 126 79q23 13 39 13q19 0 32.5 -14.5t13.5 -35.5q0 -14 -10 -28t-26 -21q-89 -41 -137 -61q-5 -2 -14.5 -4.5t-14.5 -2.5z" />
    <glyph glyph-name="paragraph" unicode="&#xb6;" horiz-adv-x="756" 
d="M619 747q31 0 48.5 -17.5t17.5 -49.5v-630q0 -63 -9.5 -110t-31 -82t-56.5 -57q-23 -14 -53 -14q-31 0 -50.5 17.5t-19.5 41.5q0 13 4.5 30t31.5 38q22 16 35 40t13 82v27q-88 -4 -157 -4q-73 0 -137 21t-111.5 62.5t-73.5 103.5t-26 140q0 33 8 75t30 83.5t54 73.5
t72 53t79.5 28.5t69.5 7.5q94 0 194 -5q6 21 23.5 33t44.5 12z" />
    <glyph glyph-name="periodcentered" unicode="&#xb7;" horiz-adv-x="244" 
d="M122 391q33 0 52.5 -19.5t19.5 -50.5q0 -34 -19 -53.5t-53 -19.5q-33 0 -52.5 20t-19.5 53q0 31 19.5 50.5t52.5 19.5z" />
    <glyph glyph-name="cedilla" unicode="&#xb8;" horiz-adv-x="453" 
d="M225 11q-8 -26 -8 -39q0 -8 9 -8l26 1q22 0 46 -8.5t39 -30.5t15 -51q0 -57 -37.5 -88.5t-98.5 -31.5q-53 0 -88 15q-13 6 -21 17t-8 24q0 15 9.5 26t19.5 11q8 1 25 -3q24 -8 59 -8q22 0 39.5 8.5t17.5 22.5q0 10 -9 18.5t-33 8.5l-61 -4q-22 0 -22 23q0 24 4 57t9 53z
" />
    <glyph glyph-name="uni00B9" unicode="&#xb9;" horiz-adv-x="318" 
d="M202 709q24 0 39.5 -18t15.5 -48v-329q0 -33 -11 -48t-37 -15q-27 0 -39.5 15.5t-12.5 47.5v229q0 12 -9 12q-4 0 -37.5 -23.5t-53.5 -23.5q-17 0 -30 9.5t-13 29.5q0 22 18 37q26 18 50 38t56 55q18 19 31.5 25.5t32.5 6.5z" />
    <glyph glyph-name="ordmasculine" unicode="&#xba;" horiz-adv-x="484" 
d="M242 300q-92 0 -149.5 54t-57.5 147q0 46 15 83.5t43 64t66 40t83 13.5q91 0 149 -54.5t58 -146.5q0 -58 -26 -106t-75.5 -71.5t-105.5 -23.5zM242 396q31 0 56 16t34.5 41t9.5 48q0 48 -28.5 77.5t-71.5 29.5q-20 0 -44 -9.5t-41 -35.5t-17 -62q0 -35 17 -61t41 -35
t44 -9z" />
    <glyph glyph-name="guillemotright" unicode="&#xbb;" horiz-adv-x="532" 
d="M306 147q-16 0 -27.5 11.5t-11.5 25.5q0 25 28 44l86 60q23 16 25 18.5t2 3.5q0 5 -11.5 13t-15.5 11l-86 60q-28 19 -28 44q0 14 11.5 26t27.5 12q6 0 12.5 -2t14 -7.5t8.5 -5.5l88 -62q43 -30 58.5 -48t15.5 -41q0 -16 -11 -34t-63 -53l-88 -62q-11 -7 -18.5 -10.5
t-16.5 -3.5zM90 147q-16 0 -27.5 11.5t-11.5 25.5q0 25 29 44l86 60q26 18 26 22q0 2 -1.5 4.5t-24.5 19.5l-86 60q-29 19 -29 44q0 14 11.5 26t27.5 12q6 0 12.5 -2t14 -7.5t8.5 -5.5l88 -62q43 -30 59 -48t16 -41q0 -22 -16 -40t-59 -47l-88 -62q-11 -7 -18.5 -10.5
t-16.5 -3.5z" />
    <glyph glyph-name="onequarter" unicode="&#xbc;" horiz-adv-x="937" 
d="M257 314q0 -33 -11 -48t-37 -15q-27 0 -39.5 15.5t-12.5 47.5v229q0 12 -9 12q-4 0 -37.5 -23.5t-53.5 -23.5q-17 0 -30 9.5t-13 29.5q0 22 18 37q26 18 50 38t56 55q18 19 31.5 25.5t32.5 6.5q24 0 39.5 -18t15.5 -48v-329zM681 663q0 -4 -1.5 -9.5t-5.5 -13t-5 -8.5
l-377 -608q-17 -25 -40 -25q-17 0 -30 12t-13 30q0 14 12 32l377 610q16 24 38 24q20 0 32.5 -13t12.5 -31zM867 158q20 0 32.5 -10.5t12.5 -27.5q0 -18 -12.5 -29.5t-32.5 -11.5h-20v-32q0 -51 -49 -51q-47 -1 -47 51v32h-190q-70 0 -70 43q0 12 5.5 26.5t33.5 48.5
l185 220q14 17 29.5 28.5t41.5 11.5q61 0 61 -73v-226h20zM616 158h135v167q0 7 -6 7q-3 0 -9 -7l-111 -135q-18 -22 -18 -26q0 -6 9 -6z" />
    <glyph glyph-name="onehalf" unicode="&#xbd;" horiz-adv-x="980" 
d="M202 709q24 0 39.5 -18t15.5 -48v-329q0 -33 -11 -48t-37 -15q-27 0 -39.5 15.5t-12.5 47.5v229q0 12 -9 12q-4 0 -37.5 -23.5t-53.5 -23.5q-17 0 -30 9.5t-13 29.5q0 22 18 37q26 18 50 38t56 55q18 19 31.5 25.5t32.5 6.5zM252 -1q-17 0 -30 12t-13 30q0 14 12 32
l377 610q16 24 38 24q20 0 32.5 -13t12.5 -31q0 -4 -1.5 -9.5t-5.5 -13t-5 -8.5l-377 -608q-17 -25 -40 -25zM719 81q0 -4 8 -4h2t50.5 5.5t107.5 5.5q20 0 33 -11.5t13 -31.5q0 -21 -12.5 -33.5t-33.5 -12.5h-251q-37 0 -37 41q0 30 26 60t73 65q83 64 102 80.5t25.5 29.5
t6.5 26q0 61 -76 61q-28 0 -49.5 -9t-32.5 -37q-4 -13 -13 -21t-31 -8q-19 0 -31 14.5t-12 33.5q0 17 6 32q18 42 60.5 65.5t110.5 23.5q74 0 118.5 -38t44.5 -100q0 -39 -18 -74t-106 -101l-76 -53q-8 -5 -8 -9z" />
    <glyph glyph-name="threequarters" unicode="&#xbe;" horiz-adv-x="1022" 
d="M396 372q0 -24 -9.5 -48t-32 -43t-58 -30.5t-82.5 -11.5q-34 0 -69.5 7.5t-60.5 19.5q-28 12 -28 45q0 16 11.5 28t25.5 12q13 0 37 -6q52 -16 85 -16q39 -1 61.5 11.5t22.5 34.5q0 17 -13 27.5t-29 12.5t-23 2l-57 -2q-17 0 -31 12.5t-14 29.5q0 16 13.5 27t31.5 11
q42 0 60 2q20 2 35.5 10.5t21.5 21.5t6 26q1 26 -20 44t-57 18q-28 0 -50.5 -7.5t-44.5 -31.5q-21 -21 -49 -21q-17 0 -29.5 12t-12.5 32q0 5 3.5 18.5t17.5 26.5q57 65 165 65q80 0 130 -42t49 -102q0 -36 -17.5 -66t-42.5 -44q24 -10 39 -34t15 -51zM776 663q0 -3 -1 -7.5
t-3 -9t-5 -9t-4 -5.5l-377 -608q-17 -25 -40 -25q-17 0 -29.5 11.5t-12.5 30.5q0 6 1.5 11t3 8.5t3.5 7.5t3 5l378 610q14 24 37 24q20 0 33 -13t13 -31zM952 158q20 0 32.5 -10.5t12.5 -27.5q0 -18 -12.5 -29.5t-32.5 -11.5h-20v-32q0 -51 -49 -51q-47 -1 -47 51v32h-190
q-70 0 -70 43q0 12 5.5 26.5t33.5 48.5l185 220q14 17 29.5 28.5t41.5 11.5q61 0 61 -73v-226h20zM701 158h135v167q0 7 -6 7q-3 0 -9 -7l-111 -135q-18 -22 -18 -26q0 -6 9 -6z" />
    <glyph glyph-name="questiondown" unicode="&#xbf;" horiz-adv-x="545" 
d="M326 521q34 0 52.5 -18t18.5 -49q0 -30 -18.5 -47.5t-52.5 -17.5q-35 0 -54.5 17.5t-19.5 47.5q0 31 19.5 49t54.5 18zM324 323q31 0 44 -36q6 -19 6 -42q0 -46 -32 -74t-103 -51q-50 -16 -69 -32t-20 -46q0 -20 15 -38.5t42.5 -28t52.5 -9.5q51 -1 88.5 11.5t71.5 35.5
q15 9 24.5 13t20.5 4q25 0 40 -14t15 -36q0 -29 -26 -54q-31 -28 -88.5 -48t-136.5 -21q-46 0 -89.5 11t-77.5 34t-53.5 56.5t-19.5 75.5q0 41 13.5 72t47.5 53.5t115 44.5q27 7 48 19t21 36l-2 23q1 21 16 31t36 10z" />
    <glyph glyph-name="Agrave" unicode="&#xc0;" horiz-adv-x="692" 
d="M279 796q-20 8 -31.5 22t-11.5 31q0 23 14 39t37 16q13 0 43 -15l88 -47q12 -7 21 -19t9 -24q0 -15 -11.5 -28t-27.5 -13q-11 0 -35 6zM667 106q12 -29 12 -52q0 -25 -19 -40.5t-48 -15.5q-51 0 -66 50l-27 80h-347l-28 -83q-8 -22 -23.5 -34.5t-37.5 -12.5
q-30 0 -50.5 17t-20.5 42q0 18 11 49q99 257 189 502q39 108 135 108q51 0 83 -27.5t51 -80.5zM212 249h267l-99 295q-4 14 -13 22.5t-20 8.5q-9 0 -19 -8.5t-15 -22.5z" />
    <glyph glyph-name="Aacute" unicode="&#xc1;" horiz-adv-x="692" 
d="M306 758q-16 0 -28 13t-12 28q0 12 9 24t21 19l89 47q30 15 42 15q23 0 37.5 -16t14.5 -39q0 -13 -9.5 -28t-34.5 -25l-95 -32q-24 -6 -34 -6zM667 106q12 -29 12 -52q0 -25 -19 -40.5t-48 -15.5q-51 0 -66 50l-27 80h-347l-28 -83q-8 -22 -23.5 -34.5t-37.5 -12.5
q-30 0 -50.5 17t-20.5 42q0 18 11 49q99 257 189 502q39 108 135 108q51 0 83 -27.5t51 -80.5zM212 249h267l-99 295q-4 14 -13 22.5t-20 8.5q-9 0 -19 -8.5t-15 -22.5z" />
    <glyph glyph-name="Acircumflex" unicode="&#xc2;" horiz-adv-x="692" 
d="M224 739q-17 0 -27.5 13t-10.5 25q0 19 20 37l101 92q21 18 39 18t39 -18l104 -90q18 -15 18 -38q0 -14 -11.5 -27t-28.5 -13q-15 0 -36 16l-85 67l-87 -67q-20 -15 -35 -15zM667 106q12 -29 12 -52q0 -25 -19 -40.5t-48 -15.5q-51 0 -66 50l-27 80h-347l-28 -83
q-8 -22 -23.5 -34.5t-37.5 -12.5q-30 0 -50.5 17t-20.5 42q0 18 11 49q99 257 189 502q39 108 135 108q51 0 83 -27.5t51 -80.5zM212 249h267l-99 295q-4 14 -13 22.5t-20 8.5q-9 0 -19 -8.5t-15 -22.5z" />
    <glyph glyph-name="Atilde" unicode="&#xc3;" horiz-adv-x="692" 
d="M222 766q-19 0 -31.5 13t-11.5 33q0 25 16.5 46.5t38 30t38.5 8.5q18 0 35.5 -6t47.5 -21.5t44 -15.5q18 0 29 14q13 20 34 20q17 0 29 -13t11 -32q-1 -15 -10.5 -33t-32 -31t-47.5 -13q-18 0 -36 6t-48 22t-45 16q-18 0 -27 -20q-10 -24 -34 -24zM667 106q12 -29 12 -52
q0 -25 -19 -40.5t-48 -15.5q-51 0 -66 50l-27 80h-347l-28 -83q-8 -22 -23.5 -34.5t-37.5 -12.5q-30 0 -50.5 17t-20.5 42q0 18 11 49q99 257 189 502q39 108 135 108q51 0 83 -27.5t51 -80.5zM212 249h267l-99 295q-4 14 -13 22.5t-20 8.5q-9 0 -19 -8.5t-15 -22.5z" />
    <glyph glyph-name="Adieresis" unicode="&#xc4;" horiz-adv-x="692" 
d="M243 760q-30 0 -49.5 19t-19.5 48q0 31 19.5 50t49.5 19t50 -19t20 -50q0 -29 -20 -48t-50 -19zM447 760q-30 0 -50 19t-20 48q0 31 19.5 50t50.5 19q30 0 49.5 -19t19.5 -50q0 -29 -19.5 -48t-49.5 -19zM667 106q12 -29 12 -52q0 -25 -19 -40.5t-48 -15.5q-51 0 -66 50
l-27 80h-347l-28 -83q-8 -22 -23.5 -34.5t-37.5 -12.5q-30 0 -50.5 17t-20.5 42q0 18 11 49q99 257 189 502q39 108 135 108q51 0 83 -27.5t51 -80.5zM212 249h267l-99 295q-4 14 -13 22.5t-20 8.5q-9 0 -19 -8.5t-15 -22.5z" />
    <glyph glyph-name="Aring" unicode="&#xc5;" horiz-adv-x="692" 
d="M346 721q-24 0 -51.5 10t-46 37t-18.5 63q0 35 18.5 61t46 36t51.5 10q37 0 65.5 -17t39.5 -42.5t11 -47.5q0 -23 -11 -49t-39.5 -43.5t-65.5 -17.5zM346 878q-23 0 -36.5 -13t-13.5 -34q0 -22 13.5 -35.5t36.5 -13.5t36 13t13 36q0 21 -13 34t-36 13zM667 106
q12 -29 12 -52q0 -25 -19 -40.5t-48 -15.5q-51 0 -66 50l-27 80h-347l-28 -83q-8 -22 -23.5 -34.5t-37.5 -12.5q-30 0 -50.5 17t-20.5 42q0 18 11 49q99 257 189 502q39 108 135 108q51 0 83 -27.5t51 -80.5zM212 249h267l-99 295q-4 14 -13 22.5t-20 8.5q-9 0 -19 -8.5
t-15 -22.5z" />
    <glyph glyph-name="AE" unicode="&#xc6;" horiz-adv-x="1009" 
d="M910 117q24 0 39.5 -16.5t15.5 -41.5q0 -26 -15 -42.5t-40 -16.5h-378q-27 0 -44.5 17t-17.5 44v103h-281l-60 -113q-15 -28 -28 -40t-35 -12q-29 0 -49.5 20.5t-20.5 49.5q0 15 16 45l252 476q35 65 78.5 94.5t105.5 29.5q33 0 86 -11h382q25 0 40.5 -16.5t15.5 -43.5
q0 -62 -56 -62h-304v-199h280q25 0 40.5 -15.5t15.5 -40.5t-15.5 -40.5t-41.5 -15.5h-279v-153h298zM253 284h217v280q-17 5 -30 5q-18 0 -31.5 -8t-35.5 -49z" />
    <glyph glyph-name="Ccedilla" unicode="&#xc7;" horiz-adv-x="705" 
d="M383 580q-41 0 -77 -15t-63 -44t-42.5 -73t-15.5 -98q0 -53 15 -96.5t43 -74t65.5 -46.5t80.5 -16q34 0 75 12.5t78 46.5q23 22 54 22q24 0 41.5 -18.5t17.5 -42.5q0 -42 -59 -83q-36 -26 -83 -43.5t-102 -20.5l-2 -18q0 -8 9 -8l26 1q22 0 46 -8.5t39 -30.5t15 -51
q0 -57 -37.5 -88.5t-98.5 -31.5q-53 0 -88 15q-13 6 -21 17t-8 24q0 15 9.5 26t19.5 11q8 1 25 -3q24 -8 59 -8q22 0 39.5 8.5t17.5 22.5q0 10 -9 18.5t-33 8.5l-61 -4q-22 0 -22 23q0 39 6 78q-65 7 -121 36t-97 75.5t-63 109.5t-22 136q0 81 26.5 148.5t74 114.5t112 72
t136.5 25q105 0 181.5 -47.5t108.5 -121.5q11 -22 11 -40q0 -29 -22 -49t-48 -20q-35 0 -60 38q-19 38 -43.5 62t-56.5 36.5t-76 12.5z" />
    <glyph glyph-name="Egrave" unicode="&#xc8;" horiz-adv-x="608" 
d="M250 800q-20 8 -31.5 22t-11.5 31q0 23 14 39t37 16q13 0 43 -15l88 -47q12 -7 21 -19t9 -24q0 -15 -11.5 -28t-27.5 -13q-11 0 -35 6zM510 117q24 0 39.5 -16.5t15.5 -41.5q0 -26 -15 -42.5t-40 -16.5h-379q-27 0 -44 17t-17 44v581q0 26 17.5 43.5t43.5 17.5h385
q25 0 40.5 -16.5t15.5 -43.5q0 -62 -56 -62h-304v-199h280q25 0 40.5 -15.5t15.5 -40.5t-15.5 -40.5t-41.5 -15.5h-279v-153h298z" />
    <glyph glyph-name="Eacute" unicode="&#xc9;" horiz-adv-x="608" 
d="M277 762q-16 0 -28 13t-12 28q0 12 9 24t21 19l89 47q30 15 42 15q23 0 37.5 -16t14.5 -39q0 -13 -9.5 -28t-34.5 -25l-95 -32q-24 -6 -34 -6zM510 117q24 0 39.5 -16.5t15.5 -41.5q0 -26 -15 -42.5t-40 -16.5h-379q-27 0 -44 17t-17 44v581q0 26 17.5 43.5t43.5 17.5
h385q25 0 40.5 -16.5t15.5 -43.5q0 -62 -56 -62h-304v-199h280q25 0 40.5 -15.5t15.5 -40.5t-15.5 -40.5t-41.5 -15.5h-279v-153h298z" />
    <glyph glyph-name="Ecircumflex" unicode="&#xca;" horiz-adv-x="608" 
d="M195 743q-17 0 -27.5 13t-10.5 25q0 19 20 37l101 92q21 18 39 18t39 -18l104 -90q18 -15 18 -38q0 -14 -11.5 -27t-28.5 -13q-15 0 -36 16l-85 67l-87 -67q-20 -15 -35 -15zM510 117q24 0 39.5 -16.5t15.5 -41.5q0 -26 -15 -42.5t-40 -16.5h-379q-27 0 -44 17t-17 44
v581q0 26 17.5 43.5t43.5 17.5h385q25 0 40.5 -16.5t15.5 -43.5q0 -62 -56 -62h-304v-199h280q25 0 40.5 -15.5t15.5 -40.5t-15.5 -40.5t-41.5 -15.5h-279v-153h298z" />
    <glyph glyph-name="Edieresis" unicode="&#xcb;" horiz-adv-x="608" 
d="M214 764q-30 0 -49.5 19t-19.5 48q0 31 19.5 50t49.5 19t50 -19t20 -50q0 -29 -20 -48t-50 -19zM418 764q-30 0 -50 19t-20 48q0 31 19.5 50t50.5 19q30 0 49.5 -19t19.5 -50q0 -29 -19.5 -48t-49.5 -19zM510 117q24 0 39.5 -16.5t15.5 -41.5q0 -26 -15 -42.5t-40 -16.5
h-379q-27 0 -44 17t-17 44v581q0 26 17.5 43.5t43.5 17.5h385q25 0 40.5 -16.5t15.5 -43.5q0 -62 -56 -62h-304v-199h280q25 0 40.5 -15.5t15.5 -40.5t-15.5 -40.5t-41.5 -15.5h-279v-153h298z" />
    <glyph glyph-name="Igrave" unicode="&#xcc;" horiz-adv-x="285" 
d="M206 762q-11 0 -35 6l-95 32q-20 8 -31.5 22t-11.5 31q0 23 14 39t37 16q13 0 43 -15l88 -47q12 -7 21 -19t9 -24q0 -15 -11.5 -28t-27.5 -13zM214 81q0 -81 -72 -81q-32 0 -52 22.5t-20 58.5v541q0 36 20 58.5t52 22.5q36 0 54 -22t18 -59v-541z" />
    <glyph glyph-name="Iacute" unicode="&#xcd;" horiz-adv-x="285" 
d="M102 762q-16 0 -28 13t-12 28q0 12 9 24t21 19l89 47q30 15 42 15q23 0 37.5 -16t14.5 -39q0 -13 -9.5 -28t-34.5 -25l-95 -32q-24 -6 -34 -6zM214 81q0 -81 -72 -81q-32 0 -52 22.5t-20 58.5v541q0 36 20 58.5t52 22.5q36 0 54 -22t18 -59v-541z" />
    <glyph glyph-name="Icircumflex" unicode="&#xce;" horiz-adv-x="285" 
d="M285 820q18 -15 18 -38q0 -14 -11.5 -27t-28.5 -13q-15 0 -36 16l-85 67l-87 -67q-20 -15 -35 -15q-17 0 -27.5 13t-10.5 25q0 19 20 37l101 92q21 18 39 18t39 -18zM142 703q36 0 54 -22t18 -59v-541q0 -81 -72 -81q-32 0 -52 22.5t-20 58.5v541q0 36 20 58.5t52 22.5z
" />
    <glyph glyph-name="Idieresis" unicode="&#xcf;" horiz-adv-x="285" 
d="M39 764q-30 0 -49.5 19t-19.5 48q0 31 19.5 50t49.5 19t50 -19t20 -50q0 -29 -20 -48t-50 -19zM243 764q-30 0 -50 19t-20 48q0 31 19.5 50t50.5 19q30 0 49.5 -19t19.5 -50q0 -29 -19.5 -48t-49.5 -19zM214 81q0 -81 -72 -81q-32 0 -52 22.5t-20 58.5v541q0 36 20 58.5
t52 22.5q36 0 54 -22t18 -59v-541z" />
    <glyph glyph-name="Eth" unicode="&#xd0;" horiz-adv-x="773" 
d="M331 708q99 0 176 -25.5t127.5 -73t75.5 -113t25 -144.5t-25 -144.5t-75.5 -112.5t-127.5 -72.5t-176 -25.5q-64 0 -172 3q-32 0 -51.5 23t-19.5 62v199h-35q-20 0 -32.5 12t-12.5 32q0 46 45 46h35v246q0 39 19.5 61t51.5 22q9 0 48 2t68.5 2.5t55.5 0.5zM326 121
q67 0 117.5 16.5t82 46.5t47 72.5t15.5 94.5q0 77 -32 126.5t-89 74.5t-141 25l-98 -1v-202h133q18 0 31.5 -13.5t13.5 -32.5q0 -18 -13 -31t-32 -13h-133v-161z" />
    <glyph glyph-name="Ntilde" unicode="&#xd1;" horiz-adv-x="739" 
d="M248 770q-19 0 -31.5 13t-11.5 33q0 25 16.5 46.5t38 30t38.5 8.5q18 0 35.5 -6t47.5 -21.5t44 -15.5q18 0 29 14q13 20 34 20q17 0 29 -13t11 -32q-1 -15 -10.5 -33t-32 -31t-47.5 -13q-18 0 -36 6t-48 22t-45 16q-18 0 -27 -20q-10 -24 -34 -24zM601 703q69 0 67 -71
v-557q0 -37 -18 -57t-52 -20q-29 0 -48.5 9t-41.5 40l-287 399q-6 8 -10 8q-5 0 -5 -13v-366q0 -37 -17.5 -56t-48.5 -19q-33 0 -51.5 18.5t-18.5 56.5l3 549q0 35 21 58t60 23q27 0 46.5 -9.5t37.5 -35.5l281 -396q6 -8 11 -8t5 12v364q0 35 17 53t49 18z" />
    <glyph glyph-name="Ograve" unicode="&#xd2;" horiz-adv-x="776" 
d="M453 762q-11 0 -35 6l-95 32q-20 8 -31.5 22t-11.5 31q0 23 14 39t37 16q13 0 43 -15l88 -47q12 -7 21 -19t9 -24q0 -15 -11.5 -28t-27.5 -13zM388 -11q-76 0 -141 24.5t-111.5 71.5t-71.5 114.5t-25 149.5t25 149.5t71.5 114.5t111 71.5t141.5 24.5q76 0 141 -24.5
t111.5 -71.5t72 -114.5t25.5 -149.5t-25.5 -149.5t-72.5 -114.5t-111.5 -71.5t-140.5 -24.5zM388 122q43 0 80.5 15t65 44.5t42.5 72t15 95.5q0 65 -23 114.5t-68.5 80.5t-111.5 32q-32 0 -67 -10t-68.5 -39.5t-50.5 -77.5t-17 -100q0 -106 56.5 -167t146.5 -60z" />
    <glyph glyph-name="Oacute" unicode="&#xd3;" horiz-adv-x="776" 
d="M349 762q-16 0 -28 13t-12 28q0 12 9 24t21 19l89 47q30 15 42 15q23 0 37.5 -16t14.5 -39q0 -13 -9.5 -28t-34.5 -25l-95 -32q-24 -6 -34 -6zM388 -11q-76 0 -141 24.5t-111.5 71.5t-71.5 114.5t-25 149.5t25 149.5t71.5 114.5t111 71.5t141.5 24.5q76 0 141 -24.5
t111.5 -71.5t72 -114.5t25.5 -149.5t-25.5 -149.5t-72.5 -114.5t-111.5 -71.5t-140.5 -24.5zM388 122q43 0 80.5 15t65 44.5t42.5 72t15 95.5q0 65 -23 114.5t-68.5 80.5t-111.5 32q-32 0 -67 -10t-68.5 -39.5t-50.5 -77.5t-17 -100q0 -106 56.5 -167t146.5 -60z" />
    <glyph glyph-name="Ocircumflex" unicode="&#xd4;" horiz-adv-x="776" 
d="M267 743q-17 0 -27.5 13t-10.5 25q0 19 20 37l101 92q21 18 39 18t39 -18l104 -90q18 -15 18 -38q0 -14 -11.5 -27t-28.5 -13q-15 0 -36 16l-85 67l-87 -67q-20 -15 -35 -15zM388 709q76 0 141 -24.5t111.5 -71.5t72 -114.5t25.5 -149.5t-25.5 -149.5t-72.5 -114.5
t-111.5 -71.5t-140.5 -24.5t-141 24.5t-111.5 71.5t-71.5 114.5t-25 149.5t25 149.5t71.5 114.5t111 71.5t141.5 24.5zM388 122q43 0 80.5 15t65 44.5t42.5 72t15 95.5q0 65 -23 114.5t-68.5 80.5t-111.5 32q-32 0 -67 -10t-68.5 -39.5t-50.5 -77.5t-17 -100
q0 -106 56.5 -167t146.5 -60z" />
    <glyph glyph-name="Otilde" unicode="&#xd5;" horiz-adv-x="776" 
d="M265 770q-19 0 -31.5 13t-11.5 33q0 25 16.5 46.5t38 30t38.5 8.5q18 0 35.5 -6t47.5 -21.5t44 -15.5q18 0 29 14q13 20 34 20q17 0 29 -13t11 -32q-1 -15 -10.5 -33t-32 -31t-47.5 -13q-18 0 -36 6t-48 22t-45 16q-18 0 -27 -20q-10 -24 -34 -24zM388 -11
q-76 0 -141 24.5t-111.5 71.5t-71.5 114.5t-25 149.5t25 149.5t71.5 114.5t111 71.5t141.5 24.5q76 0 141 -24.5t111.5 -71.5t72 -114.5t25.5 -149.5t-25.5 -149.5t-72.5 -114.5t-111.5 -71.5t-140.5 -24.5zM388 122q43 0 80.5 15t65 44.5t42.5 72t15 95.5q0 65 -23 114.5
t-68.5 80.5t-111.5 32q-32 0 -67 -10t-68.5 -39.5t-50.5 -77.5t-17 -100q0 -106 56.5 -167t146.5 -60z" />
    <glyph glyph-name="Odieresis" unicode="&#xd6;" horiz-adv-x="776" 
d="M286 764q-30 0 -49.5 19t-19.5 48q0 31 19.5 50t49.5 19t50 -19t20 -50q0 -29 -20 -48t-50 -19zM490 764q-30 0 -50 19t-20 48q0 31 19.5 50t50.5 19q30 0 49.5 -19t19.5 -50q0 -29 -19.5 -48t-49.5 -19zM388 -11q-76 0 -141 24.5t-111.5 71.5t-71.5 114.5t-25 149.5
t25 149.5t71.5 114.5t111 71.5t141.5 24.5q76 0 141 -24.5t111.5 -71.5t72 -114.5t25.5 -149.5t-25.5 -149.5t-72.5 -114.5t-111.5 -71.5t-140.5 -24.5zM388 122q43 0 80.5 15t65 44.5t42.5 72t15 95.5q0 65 -23 114.5t-68.5 80.5t-111.5 32q-32 0 -67 -10t-68.5 -39.5
t-50.5 -77.5t-17 -100q0 -106 56.5 -167t146.5 -60z" />
    <glyph glyph-name="multiply" unicode="&#xd7;" horiz-adv-x="536" 
d="M462 193q22 -19 22 -39q0 -16 -12 -28.5t-27 -12.5q-21 0 -37 16l-140 125l-139 -125q-17 -16 -38 -16q-15 0 -26.5 12.5t-11.5 28.5q0 21 22 39l130 118l-136 121q-8 7 -14.5 18t-6.5 22q0 18 12.5 30t27.5 12q8 0 16.5 -2.5t23.5 -16.5l141 -127l140 127q9 9 17.5 14
t21.5 5q15 0 27.5 -12t12.5 -30q0 -11 -6.5 -22t-14.5 -18l-135 -121z" />
    <glyph glyph-name="Oslash" unicode="&#xd8;" horiz-adv-x="783" 
d="M723 607l-41 -41q59 -88 59 -217q0 -82 -25.5 -149.5t-72.5 -114.5t-111.5 -71.5t-140.5 -24.5q-66 0 -124.5 19t-102.5 54l-49 -47q-18 -17 -37 -17q-17 0 -32 15t-15 33q0 19 18 35l52 51q-59 89 -59 217q0 82 25 149.5t71.5 114.5t111.5 71.5t141 24.5
q67 0 126.5 -19.5t103.5 -55.5l45 44q11 15 34 15q17 0 29 -10.5t14.5 -20.5t2.5 -14q0 -20 -23 -41zM189 349q0 -64 21 -112l307 297q-53 42 -126 42q-32 0 -66.5 -10t-68 -39.5t-50.5 -77.5t-17 -100zM595 349q0 62 -22 112l-307 -299q50 -40 125 -40q43 0 80.5 15
t65.5 44.5t43 72.5t15 95z" />
    <glyph glyph-name="Ugrave" unicode="&#xd9;" horiz-adv-x="735" 
d="M431 762q-11 0 -35 6l-95 32q-20 8 -31.5 22t-11.5 31q0 23 14 39t37 16q13 0 43 -15l88 -47q12 -7 21 -19t9 -24q0 -15 -11.5 -28t-27.5 -13zM590 703q32 0 53 -22.5t21 -56.5v-327q0 -76 -21 -134t-60.5 -96.5t-95.5 -57.5t-123 -19q-66 0 -120.5 19t-93 57.5t-59.5 97
t-21 133.5v327q0 34 21.5 56.5t53.5 22.5q33 0 50.5 -22t17.5 -57v-328q0 -178 152 -178q78 0 117 43.5t39 133.5v329q0 22 11 42t27 28.5t31 8.5z" />
    <glyph glyph-name="Uacute" unicode="&#xda;" horiz-adv-x="735" 
d="M327 762q-16 0 -28 13t-12 28q0 12 9 24t21 19l89 47q30 15 42 15q23 0 37.5 -16t14.5 -39q0 -13 -9.5 -28t-34.5 -25l-95 -32q-24 -6 -34 -6zM590 703q32 0 53 -22.5t21 -56.5v-327q0 -76 -21 -134t-60.5 -96.5t-95.5 -57.5t-123 -19q-66 0 -120.5 19t-93 57.5t-59.5 97
t-21 133.5v327q0 34 21.5 56.5t53.5 22.5q33 0 50.5 -22t17.5 -57v-328q0 -178 152 -178q78 0 117 43.5t39 133.5v329q0 22 11 42t27 28.5t31 8.5z" />
    <glyph glyph-name="Ucircumflex" unicode="&#xdb;" horiz-adv-x="735" 
d="M245 743q-17 0 -27.5 13t-10.5 25q0 19 20 37l101 92q21 18 39 18t39 -18l104 -90q18 -15 18 -38q0 -14 -11.5 -27t-28.5 -13q-15 0 -36 16l-85 67l-87 -67q-20 -15 -35 -15zM590 703q32 0 53 -22.5t21 -56.5v-327q0 -76 -21 -134t-60.5 -96.5t-95.5 -57.5t-123 -19
q-66 0 -120.5 19t-93 57.5t-59.5 97t-21 133.5v327q0 34 21.5 56.5t53.5 22.5q33 0 50.5 -22t17.5 -57v-328q0 -178 152 -178q78 0 117 43.5t39 133.5v329q0 22 11 42t27 28.5t31 8.5z" />
    <glyph glyph-name="Udieresis" unicode="&#xdc;" horiz-adv-x="735" 
d="M264 764q-30 0 -49.5 19t-19.5 48q0 31 19.5 50t49.5 19t50 -19t20 -50q0 -29 -20 -48t-50 -19zM468 764q-30 0 -50 19t-20 48q0 31 19.5 50t50.5 19q30 0 49.5 -19t19.5 -50q0 -29 -19.5 -48t-49.5 -19zM590 703q32 0 53 -22.5t21 -56.5v-327q0 -76 -21 -134
t-60.5 -96.5t-95.5 -57.5t-123 -19q-66 0 -120.5 19t-93 57.5t-59.5 97t-21 133.5v327q0 34 21.5 56.5t53.5 22.5q33 0 50.5 -22t17.5 -57v-328q0 -178 152 -178q78 0 117 43.5t39 133.5v329q0 22 11 42t27 28.5t31 8.5z" />
    <glyph glyph-name="Yacute" unicode="&#xdd;" horiz-adv-x="644" 
d="M286 762q-16 0 -28 13t-12 28q0 12 9 24t21 19l89 47q30 15 42 15q23 0 37.5 -16t14.5 -39q0 -13 -9.5 -28t-34.5 -25l-95 -32q-24 -6 -34 -6zM635 640q0 -28 -16 -53q-154 -241 -225 -332l1 -175q0 -38 -19.5 -59t-54.5 -21q-32 0 -51.5 22t-19.5 58v175
q-92 116 -223 328q-18 30 -18 55q0 30 20.5 49.5t50.5 19.5q42 0 66 -40q42 -74 76 -128.5t62.5 -95.5t29.5 -43q8 -13 12 -13t13 13q85 129 167 267q23 39 56 40q31 1 52 -17.5t21 -49.5z" />
    <glyph glyph-name="Thorn" unicode="&#xde;" horiz-adv-x="638" 
d="M344 588q64 0 114.5 -16t84.5 -46.5t51.5 -72.5t17.5 -93q0 -43 -13.5 -85.5t-47.5 -76t-91.5 -54.5t-141.5 -21l-107 1v-44q0 -38 -17.5 -59t-50.5 -21t-53 21.5t-20 58.5v543q0 36 19.5 58t53.5 22q32 0 50 -22t18 -58v-37zM320 233q71 0 112 30.5t41 92.5q0 38 -21 66
t-53.5 38t-64.5 10l-123 -2v-234z" />
    <glyph glyph-name="germandbls" unicode="&#xdf;" horiz-adv-x="621" 
d="M395 345q0 -10 10 -20.5t49.5 -26.5t56 -24.5t29.5 -18t25.5 -23t20.5 -35t8 -48.5q0 -36 -18 -72t-64 -59.5t-105 -23.5q-27 0 -56 6t-49 16q-49 24 -49 63q0 21 13 35t36 14q14 0 37 -9q39 -16 66 -16q29 0 48 11.5t19 31.5q0 15 -12.5 28t-57.5 31t-52 21t-22.5 12
t-29 21t-23.5 31.5t-10 47.5q0 40 21.5 67.5t73 58t66.5 44.5t23 29.5t8 34.5q0 38 -31 62.5t-93 24.5q-40 0 -71.5 -12t-52 -45t-20.5 -99v-438q0 -29 -17.5 -47t-46.5 -18q-30 0 -48.5 19.5t-18.5 45.5v451q0 123 71.5 190t203.5 67q119 0 187 -54t68 -148
q0 -24 -5.5 -47.5t-17.5 -43.5t-28.5 -34.5t-34 -25.5t-40.5 -22t-38.5 -19t-22 -17t-6.5 -17z" />
    <glyph glyph-name="agrave" unicode="&#xe0;" horiz-adv-x="533" 
d="M149 653q-17 7 -27 21t-10 28q0 21 13.5 35.5t32.5 14.5q18 0 39 -13q26 -18 127 -79q11 -7 18.5 -17.5t7.5 -20.5q0 -13 -10 -25t-25 -12t-29 7q-63 26 -137 61zM490 94q15 -22 15 -41q0 -21 -21.5 -40t-48.5 -19q-23 0 -44 21q-19 21 -23 50q-21 -32 -65.5 -53
t-90.5 -21q-74 0 -123 37.5t-49 97.5q0 77 64 114t179 37l61 -1v28q0 48 -27.5 72t-73.5 24q-26 0 -50.5 -10t-47.5 -39q-23 -30 -56 -30q-25 0 -40 14.5t-15 39.5q0 38 28.5 70t75.5 50.5t110 18.5q71 0 119 -20.5t75 -61t27 -101.5l-4 -136q0 -33 4 -56t21 -45zM224 91
q30 0 60 16.5t43.5 38t14.5 37.5l-58 2q-64 0 -96.5 -12.5t-32.5 -41.5q0 -17 18.5 -28.5t50.5 -11.5z" />
    <glyph glyph-name="aacute" unicode="&#xe1;" horiz-adv-x="533" 
d="M182 585q-16 0 -25.5 12t-9.5 25q0 10 7.5 21t18.5 17q99 60 126 79q23 13 39 13q19 0 32.5 -14.5t13.5 -35.5q0 -14 -10 -28t-26 -21q-89 -41 -137 -61q-5 -2 -14.5 -4.5t-14.5 -2.5zM490 94q15 -22 15 -41q0 -21 -21.5 -40t-48.5 -19q-23 0 -44 21q-19 21 -23 50
q-21 -32 -65.5 -53t-90.5 -21q-74 0 -123 37.5t-49 97.5q0 77 64 114t179 37l61 -1v28q0 48 -27.5 72t-73.5 24q-26 0 -50.5 -10t-47.5 -39q-23 -30 -56 -30q-25 0 -40 14.5t-15 39.5q0 38 28.5 70t75.5 50.5t110 18.5q71 0 119 -20.5t75 -61t27 -101.5l-4 -136q0 -33 4 -56
t21 -45zM224 91q30 0 60 16.5t43.5 38t14.5 37.5l-58 2q-64 0 -96.5 -12.5t-32.5 -41.5q0 -17 18.5 -28.5t50.5 -11.5z" />
    <glyph glyph-name="acircumflex" unicode="&#xe2;" horiz-adv-x="533" 
d="M126 568q-16 0 -26.5 12.5t-10.5 24.5q0 19 19 37q61 56 99 96q21 22 44 22t44 -22q15 -17 100 -95q16 -16 16 -37q0 -12 -10 -25t-26 -13q-15 0 -36 16l-89 72l-91 -72q-21 -16 -33 -16zM490 94q15 -22 15 -41q0 -21 -21.5 -40t-48.5 -19q-23 0 -44 21q-19 21 -23 50
q-21 -32 -65.5 -53t-90.5 -21q-74 0 -123 37.5t-49 97.5q0 77 64 114t179 37l61 -1v28q0 48 -27.5 72t-73.5 24q-26 0 -50.5 -10t-47.5 -39q-23 -30 -56 -30q-25 0 -40 14.5t-15 39.5q0 38 28.5 70t75.5 50.5t110 18.5q71 0 119 -20.5t75 -61t27 -101.5l-4 -136q0 -33 4 -56
t21 -45zM224 91q30 0 60 16.5t43.5 38t14.5 37.5l-58 2q-64 0 -96.5 -12.5t-32.5 -41.5q0 -17 18.5 -28.5t50.5 -11.5z" />
    <glyph glyph-name="atilde" unicode="&#xe3;" horiz-adv-x="533" 
d="M107 594q-19 0 -30.5 12.5t-11.5 33.5q0 17 10.5 40.5t37.5 41.5t59 18q22 0 44 -7.5t54 -25.5t45 -18q10 0 22 2.5t24 19.5q14 19 35 19q17 0 29.5 -11t12.5 -33q0 -15 -10.5 -36t-37.5 -37.5t-58 -16.5q-21 0 -42.5 7.5t-56 26.5t-49.5 19q-16 0 -27 -8.5t-15 -22.5
q-9 -24 -35 -24zM490 94q15 -22 15 -41q0 -21 -21.5 -40t-48.5 -19q-23 0 -44 21q-19 21 -23 50q-21 -32 -65.5 -53t-90.5 -21q-74 0 -123 37.5t-49 97.5q0 77 64 114t179 37l61 -1v28q0 48 -27.5 72t-73.5 24q-26 0 -50.5 -10t-47.5 -39q-23 -30 -56 -30q-25 0 -40 14.5
t-15 39.5q0 38 28.5 70t75.5 50.5t110 18.5q71 0 119 -20.5t75 -61t27 -101.5l-4 -136q0 -33 4 -56t21 -45zM224 91q30 0 60 16.5t43.5 38t14.5 37.5l-58 2q-64 0 -96.5 -12.5t-32.5 -41.5q0 -17 18.5 -28.5t50.5 -11.5z" />
    <glyph glyph-name="adieresis" unicode="&#xe4;" horiz-adv-x="533" 
d="M123 595q-33 0 -55 21.5t-22 53.5q0 35 21.5 56.5t55.5 21.5t56 -21.5t22 -56.5q0 -32 -22 -53.5t-56 -21.5zM376 595q-34 0 -56 21.5t-22 53.5q0 35 22 56.5t56 21.5t56 -21.5t22 -56.5q0 -32 -22.5 -53.5t-55.5 -21.5zM490 94q15 -22 15 -41q0 -21 -21.5 -40t-48.5 -19
q-23 0 -44 21q-19 21 -23 50q-21 -32 -65.5 -53t-90.5 -21q-74 0 -123 37.5t-49 97.5q0 77 64 114t179 37l61 -1v28q0 48 -27.5 72t-73.5 24q-26 0 -50.5 -10t-47.5 -39q-23 -30 -56 -30q-25 0 -40 14.5t-15 39.5q0 38 28.5 70t75.5 50.5t110 18.5q71 0 119 -20.5t75 -61
t27 -101.5l-4 -136q0 -33 4 -56t21 -45zM224 91q30 0 60 16.5t43.5 38t14.5 37.5l-58 2q-64 0 -96.5 -12.5t-32.5 -41.5q0 -17 18.5 -28.5t50.5 -11.5z" />
    <glyph glyph-name="aring" unicode="&#xe5;" horiz-adv-x="533" 
d="M252 577q-28 0 -59 11.5t-52 42.5t-21 72q0 25 12 54t44.5 48.5t75.5 19.5q58 0 95 -34t37 -88q0 -57 -36.5 -91.5t-95.5 -34.5zM252 752q-25 0 -38.5 -13.5t-13.5 -35.5q0 -24 13.5 -37.5t38.5 -13.5q24 0 37.5 13.5t13.5 37.5q0 21 -13.5 35t-37.5 14zM490 94
q15 -22 15 -41q0 -21 -21.5 -40t-48.5 -19q-23 0 -44 21q-19 21 -23 50q-21 -32 -65.5 -53t-90.5 -21q-74 0 -123 37.5t-49 97.5q0 77 64 114t179 37l61 -1v28q0 48 -27.5 72t-73.5 24q-26 0 -50.5 -10t-47.5 -39q-23 -30 -56 -30q-25 0 -40 14.5t-15 39.5q0 38 28.5 70
t75.5 50.5t110 18.5q71 0 119 -20.5t75 -61t27 -101.5l-4 -136q0 -33 4 -56t21 -45zM224 91q30 0 60 16.5t43.5 38t14.5 37.5l-58 2q-64 0 -96.5 -12.5t-32.5 -41.5q0 -17 18.5 -28.5t50.5 -11.5z" />
    <glyph glyph-name="ae" unicode="&#xe6;" horiz-adv-x="847" 
d="M590 510q105 0 165.5 -63t60.5 -177q0 -25 -3 -46q-3 -18 -13.5 -28t-33.5 -10l-283 1q13 -40 45 -61t76 -21q22 0 47.5 7t40.5 16q17 10 36 10q26 0 39 -16t13 -36q0 -14 -7.5 -27.5t-31.5 -29.5q-26 -18 -66 -28t-80 -10q-61 0 -112.5 23t-84.5 65q-15 -22 -42 -43.5
t-66 -33t-79 -11.5q-74 0 -121.5 37.5t-47.5 98.5q0 150 243 150q37 0 58 -2l1 27q0 50 -27 74t-75 24q-60 0 -97 -49q-25 -30 -57 -30q-25 0 -39.5 14.5t-14.5 39.5q0 37 28 69.5t75 51t111 18.5q60 0 104.5 -16.5t70.5 -45.5q66 58 167 58zM587 391q-34 0 -59.5 -14.5
t-37.5 -40.5t-15 -52h216q-2 51 -28.5 79t-75.5 28zM225 89q30 0 59.5 16.5t42.5 37.5t14 37l-58 2q-65 0 -96.5 -10t-31.5 -38q0 -21 18.5 -33t51.5 -12z" />
    <glyph glyph-name="ccedilla" unicode="&#xe7;" horiz-adv-x="525" 
d="M288 387q-23 0 -50 -11t-45.5 -42.5t-18.5 -82.5q0 -33 11 -65t40 -52.5t66 -20.5q15 0 35 4t62 30q17 11 35 11q25 0 41 -17.5t16 -40.5q0 -16 -9 -32t-22 -25q-26 -20 -61.5 -34t-77.5 -17q-3 -10 -3 -20q0 -8 9 -8l26 1q22 0 46 -8.5t39 -30.5t15 -51
q0 -57 -37.5 -88.5t-98.5 -31.5q-53 0 -88 15q-13 6 -21 17t-8 24q0 15 9.5 26t19.5 11q8 1 25 -3q24 -8 59 -8q22 0 39.5 8.5t17.5 22.5q0 10 -9 18.5t-33 8.5l-61 -4q-22 0 -22 23q0 44 7 80q-67 11 -113 48.5t-69 90t-23 118.5q0 59 19 107t53 81t81 50t101 17
q40 0 81.5 -13.5t74.5 -43.5t47 -60q10 -22 10 -43q0 -25 -19 -42t-44 -17q-17 0 -32.5 10t-24.5 24q-21 37 -44.5 51.5t-50.5 14.5z" />
    <glyph glyph-name="egrave" unicode="&#xe8;" horiz-adv-x="545" 
d="M173 653q-17 7 -27 21t-10 28q0 21 13.5 35.5t32.5 14.5q18 0 39 -13q26 -18 127 -79q11 -7 18.5 -17.5t7.5 -20.5q0 -13 -10 -25t-25 -12t-29 7q-63 26 -137 61zM282 510q52 0 94 -16t72 -46.5t45.5 -75.5t15.5 -102q0 -25 -3 -46q-3 -18 -13.5 -28t-33.5 -10l-283 1
q13 -40 45 -61t76 -21q22 0 47.5 7t40.5 16q17 10 35 10q26 0 39.5 -16t13.5 -36q0 -14 -7.5 -27.5t-31.5 -29.5q-27 -18 -66.5 -28t-79.5 -10q-54 0 -100.5 18t-80.5 51.5t-52.5 83t-18.5 108.5t18 107.5t51 82t78.5 51t98.5 17.5zM280 391q-34 0 -59.5 -14.5t-37.5 -40.5
t-15 -52h216q-2 52 -28 79.5t-76 27.5z" />
    <glyph glyph-name="eacute" unicode="&#xe9;" horiz-adv-x="545" 
d="M206 585q-16 0 -25.5 12t-9.5 25q0 10 7.5 21t18.5 17q99 60 126 79q23 13 39 13q19 0 32.5 -14.5t13.5 -35.5q0 -14 -10 -28t-26 -21q-89 -41 -137 -61q-5 -2 -14.5 -4.5t-14.5 -2.5zM282 510q52 0 94 -16t72 -46.5t45.5 -75.5t15.5 -102q0 -25 -3 -46q-3 -18 -13.5 -28
t-33.5 -10l-283 1q13 -40 45 -61t76 -21q22 0 47.5 7t40.5 16q17 10 35 10q26 0 39.5 -16t13.5 -36q0 -14 -7.5 -27.5t-31.5 -29.5q-27 -18 -66.5 -28t-79.5 -10q-54 0 -100.5 18t-80.5 51.5t-52.5 83t-18.5 108.5t18 107.5t51 82t78.5 51t98.5 17.5zM280 391
q-34 0 -59.5 -14.5t-37.5 -40.5t-15 -52h216q-2 52 -28 79.5t-76 27.5z" />
    <glyph glyph-name="ecircumflex" unicode="&#xea;" horiz-adv-x="545" 
d="M151 568q-16 0 -26.5 12.5t-10.5 24.5q0 19 19 37q61 56 99 96q21 22 44 22t44 -22q15 -17 100 -95q16 -16 16 -37q0 -12 -10 -25t-26 -13q-15 0 -36 16l-89 72l-91 -72q-21 -16 -33 -16zM282 510q52 0 94 -16t72 -46.5t45.5 -75.5t15.5 -102q0 -25 -3 -46
q-3 -18 -13.5 -28t-33.5 -10l-283 1q13 -40 45 -61t76 -21q22 0 47.5 7t40.5 16q17 10 35 10q26 0 39.5 -16t13.5 -36q0 -14 -7.5 -27.5t-31.5 -29.5q-27 -18 -66.5 -28t-79.5 -10q-54 0 -100.5 18t-80.5 51.5t-52.5 83t-18.5 108.5t18 107.5t51 82t78.5 51t98.5 17.5z
M280 391q-34 0 -59.5 -14.5t-37.5 -40.5t-15 -52h216q-2 52 -28 79.5t-76 27.5z" />
    <glyph glyph-name="edieresis" unicode="&#xeb;" horiz-adv-x="545" 
d="M147 595q-33 0 -55 21.5t-22 53.5q0 35 21.5 56.5t55.5 21.5t56 -21.5t22 -56.5q0 -32 -22 -53.5t-56 -21.5zM400 595q-34 0 -56 21.5t-22 53.5q0 35 22 56.5t56 21.5t56 -21.5t22 -56.5q0 -32 -22.5 -53.5t-55.5 -21.5zM282 510q52 0 94 -16t72 -46.5t45.5 -75.5
t15.5 -102q0 -25 -3 -46q-3 -18 -13.5 -28t-33.5 -10l-283 1q13 -40 45 -61t76 -21q22 0 47.5 7t40.5 16q17 10 35 10q26 0 39.5 -16t13.5 -36q0 -14 -7.5 -27.5t-31.5 -29.5q-27 -18 -66.5 -28t-79.5 -10q-54 0 -100.5 18t-80.5 51.5t-52.5 83t-18.5 108.5t18 107.5t51 82
t78.5 51t98.5 17.5zM280 391q-34 0 -59.5 -14.5t-37.5 -40.5t-15 -52h216q-2 52 -28 79.5t-76 27.5z" />
    <glyph glyph-name="igrave" unicode="&#xec;" horiz-adv-x="249" 
d="M192 585q-15 0 -29 7q-63 26 -137 61q-17 7 -27 21t-10 28q0 21 13.5 35.5t32.5 14.5q18 0 39 -13q26 -18 127 -79q11 -7 18.5 -17.5t7.5 -20.5q0 -13 -10 -25t-25 -12zM126 0q-31 0 -51 21t-20 54v352q0 33 20 53.5t51 20.5q33 0 50 -20t17 -54v-352q0 -39 -16.5 -57
t-50.5 -18z" />
    <glyph glyph-name="iacute" unicode="&#xed;" horiz-adv-x="249" 
d="M59 585q-16 0 -25.5 12t-9.5 25q0 10 7.5 21t18.5 17q99 60 126 79q23 13 39 13q19 0 32.5 -14.5t13.5 -35.5q0 -14 -10 -28t-26 -21q-89 -41 -137 -61q-5 -2 -14.5 -4.5t-14.5 -2.5zM126 0q-31 0 -51 21t-20 54v352q0 33 20 53.5t51 20.5q33 0 50 -20t17 -54v-352
q0 -39 -16.5 -57t-50.5 -18z" />
    <glyph glyph-name="icircumflex" unicode="&#xee;" horiz-adv-x="249" 
d="M272 643q16 -16 16 -37q0 -12 -10 -25t-26 -13q-15 0 -36 16l-89 72l-91 -72q-21 -16 -33 -16q-16 0 -26.5 12.5t-10.5 24.5q0 19 19 37q61 56 99 96q21 22 44 22t44 -22q15 -17 100 -95zM126 501q33 0 50 -20t17 -54v-352q0 -39 -16.5 -57t-50.5 -18q-31 0 -51 21
t-20 54v352q0 33 20 53.5t51 20.5z" />
    <glyph glyph-name="idieresis" unicode="&#xef;" horiz-adv-x="249" 
d="M28 599q-32 0 -52.5 20.5t-20.5 50.5q0 34 20.5 54t52.5 20t53 -20.5t21 -53.5q0 -30 -21 -50.5t-53 -20.5zM225 599q-32 0 -53 20.5t-21 50.5q0 34 20.5 54t53.5 20q32 0 53 -20.5t21 -53.5q0 -30 -21.5 -50.5t-52.5 -20.5zM126 0q-31 0 -51 21t-20 54v352q0 33 20 53.5
t51 20.5q33 0 50 -20t17 -54v-352q0 -39 -16.5 -57t-50.5 -18z" />
    <glyph glyph-name="eth" unicode="&#xf0;" horiz-adv-x="574" 
d="M401 660q67 -61 102 -150.5t35 -198.5q0 -106 -31.5 -176.5t-87.5 -106.5t-138 -36q-49 0 -93.5 16t-78.5 48t-53 79.5t-19 107.5q0 55 14.5 97t39 76t71.5 60.5t113 26.5q74 0 126 -50q-31 89 -104 141l-139 -88q-18 -11 -29 -11q-16 0 -28.5 12.5t-12.5 31.5t26 37
l99 64q-41 16 -86 27q-35 8 -52 23t-17 39q0 22 16.5 36.5t41.5 14.5q26 0 39 -3q45 -9 90.5 -25.5t80.5 -36.5l84 55q13 8 27 8q16 0 30 -12t14 -30q0 -23 -24 -40zM403 248q1 68 -28 105.5t-83 37.5q-53 0 -84.5 -37t-31.5 -101q0 -30 10.5 -65.5t38.5 -59t69 -22.5
q50 1 78.5 39.5t30.5 102.5z" />
    <glyph glyph-name="ntilde" unicode="&#xf1;" horiz-adv-x="576" 
d="M144 594q-19 0 -30.5 12.5t-11.5 33.5q0 17 10.5 40.5t37.5 41.5t59 18q22 0 44 -7.5t54 -25.5t45 -18q10 0 22 2.5t24 19.5q14 19 35 19q17 0 29.5 -11t12.5 -33q0 -15 -10.5 -36t-37.5 -37.5t-58 -16.5q-21 0 -42.5 7.5t-56 26.5t-49.5 19q-16 0 -27 -8.5t-15 -22.5
q-9 -24 -35 -24zM317 507q103 0 154.5 -51.5t51.5 -151.5v-238q0 -29 -18.5 -47.5t-51.5 -18.5q-32 0 -50 18.5t-18 47.5v222q0 51 -25.5 75.5t-65.5 24.5q-31 0 -55.5 -14.5t-34 -37.5t-10.5 -44v-226q0 -29 -19.5 -47.5t-51.5 -18.5q-30 0 -48.5 19t-18.5 47v369
q0 28 17.5 45t48.5 17q19 0 34 -11.5t21 -29.5q26 24 63 37.5t77 13.5z" />
    <glyph glyph-name="ograve" unicode="&#xf2;" horiz-adv-x="582" 
d="M365 585q-15 0 -29 7q-63 26 -137 61q-17 7 -27 21t-10 28q0 21 13.5 35.5t32.5 14.5q18 0 39 -13q26 -18 127 -79q11 -7 18.5 -17.5t7.5 -20.5q0 -13 -10 -25t-25 -12zM291 -9q-56 0 -103 17.5t-81 50.5t-52.5 81.5t-18.5 108.5q0 59 18.5 107t52.5 81.5t81 51t103 17.5
t103 -17.5t81 -51t52.5 -81.5t18.5 -107q0 -60 -18.5 -108.5t-52.5 -81.5t-81 -50.5t-103 -17.5zM292 108q55 0 85 39t30 102q0 67 -30.5 103.5t-84.5 36.5q-55 0 -86 -36.5t-31 -103.5q0 -63 30.5 -102t86.5 -39z" />
    <glyph glyph-name="oacute" unicode="&#xf3;" horiz-adv-x="582" 
d="M232 585q-16 0 -25.5 12t-9.5 25q0 10 7.5 21t18.5 17q99 60 126 79q23 13 39 13q19 0 32.5 -14.5t13.5 -35.5q0 -14 -10 -28t-26 -21q-89 -41 -137 -61q-5 -2 -14.5 -4.5t-14.5 -2.5zM291 -9q-56 0 -103 17.5t-81 50.5t-52.5 81.5t-18.5 108.5q0 59 18.5 107t52.5 81.5
t81 51t103 17.5t103 -17.5t81 -51t52.5 -81.5t18.5 -107q0 -60 -18.5 -108.5t-52.5 -81.5t-81 -50.5t-103 -17.5zM292 108q55 0 85 39t30 102q0 67 -30.5 103.5t-84.5 36.5q-55 0 -86 -36.5t-31 -103.5q0 -63 30.5 -102t86.5 -39z" />
    <glyph glyph-name="ocircumflex" unicode="&#xf4;" horiz-adv-x="582" 
d="M176 568q-16 0 -26.5 12.5t-10.5 24.5q0 19 19 37q61 56 99 96q21 22 44 22t44 -22q15 -17 100 -95q16 -16 16 -37q0 -12 -10 -25t-26 -13q-15 0 -36 16l-89 72l-91 -72q-21 -16 -33 -16zM291 506q56 0 103 -17.5t81 -51t52.5 -81.5t18.5 -107q0 -60 -18.5 -108.5
t-52.5 -81.5t-81 -50.5t-103 -17.5t-103 17.5t-81 50.5t-52.5 81.5t-18.5 108.5q0 59 18.5 107t52.5 81.5t81 51t103 17.5zM292 108q55 0 85 39t30 102q0 67 -30.5 103.5t-84.5 36.5q-55 0 -86 -36.5t-31 -103.5q0 -63 30.5 -102t86.5 -39z" />
    <glyph glyph-name="otilde" unicode="&#xf5;" horiz-adv-x="582" 
d="M157 594q-19 0 -30.5 12.5t-11.5 33.5q0 17 10.5 40.5t37.5 41.5t59 18q22 0 44 -7.5t54 -25.5t45 -18q10 0 22 2.5t24 19.5q14 19 35 19q17 0 29.5 -11t12.5 -33q0 -15 -10.5 -36t-37.5 -37.5t-58 -16.5q-21 0 -42.5 7.5t-56 26.5t-49.5 19q-16 0 -27 -8.5t-15 -22.5
q-9 -24 -35 -24zM291 -9q-56 0 -103 17.5t-81 50.5t-52.5 81.5t-18.5 108.5q0 59 18.5 107t52.5 81.5t81 51t103 17.5t103 -17.5t81 -51t52.5 -81.5t18.5 -107q0 -60 -18.5 -108.5t-52.5 -81.5t-81 -50.5t-103 -17.5zM292 108q55 0 85 39t30 102q0 67 -30.5 103.5
t-84.5 36.5q-55 0 -86 -36.5t-31 -103.5q0 -63 30.5 -102t86.5 -39z" />
    <glyph glyph-name="odieresis" unicode="&#xf6;" horiz-adv-x="582" 
d="M172 595q-33 0 -55 21.5t-22 53.5q0 35 21.5 56.5t55.5 21.5t56 -21.5t22 -56.5q0 -32 -22 -53.5t-56 -21.5zM425 595q-34 0 -56 21.5t-22 53.5q0 35 22 56.5t56 21.5t56 -21.5t22 -56.5q0 -32 -22.5 -53.5t-55.5 -21.5zM291 -9q-56 0 -103 17.5t-81 50.5t-52.5 81.5
t-18.5 108.5q0 59 18.5 107t52.5 81.5t81 51t103 17.5t103 -17.5t81 -51t52.5 -81.5t18.5 -107q0 -60 -18.5 -108.5t-52.5 -81.5t-81 -50.5t-103 -17.5zM292 108q55 0 85 39t30 102q0 67 -30.5 103.5t-84.5 36.5q-55 0 -86 -36.5t-31 -103.5q0 -63 30.5 -102t86.5 -39z" />
    <glyph glyph-name="divide" unicode="&#xf7;" horiz-adv-x="496" 
d="M250 550q29 0 46.5 -15.5t17.5 -41.5t-17.5 -41.5t-46.5 -15.5q-28 0 -45 15.5t-17 41.5t17 41.5t45 15.5zM39 310q0 47 44 47h331q19 0 32 -13t13 -34q0 -19 -13 -33t-32 -14h-331q-19 0 -31.5 13t-12.5 34zM250 185q29 0 46.5 -15t17.5 -43q0 -27 -17.5 -43t-46.5 -16
q-28 0 -45 16t-17 43q0 28 16.5 43t45.5 15z" />
    <glyph glyph-name="oslash" unicode="&#xf8;" horiz-adv-x="588" 
d="M563 459q0 -16 -12 -27l-40 -36q37 -62 37 -147q0 -60 -18.5 -108.5t-52.5 -81.5t-81.5 -50.5t-103.5 -17.5q-104 0 -172 57l-28 -26q-15 -15 -27 -15q-10 0 -19.5 10t-9.5 19q0 17 16 33l28 24q-42 64 -42 156q0 43 12.5 88.5t46.5 87t87 61.5t108 20q109 0 179 -62
l36 32q13 11 27 11q11 0 20 -8.5t9 -19.5zM173 249q0 -35 9 -64l194 174q-14 15 -36 23.5t-47 8.5q-55 0 -87.5 -37.5t-32.5 -104.5zM413 249q0 26 -7 54l-190 -170q30 -27 77 -27q56 0 88 38t32 105z" />
    <glyph glyph-name="ugrave" unicode="&#xf9;" horiz-adv-x="558" 
d="M181 653q-17 7 -27 21t-10 28q0 21 13.5 35.5t32.5 14.5q18 0 39 -13q26 -18 127 -79q11 -7 18.5 -17.5t7.5 -20.5q0 -13 -10 -25t-25 -12t-29 7q-63 26 -137 61zM434 501q33 0 52 -20t19 -55v-359q0 -32 -16 -50t-46 -18q-24 0 -39 14t-18 39q-24 -28 -59 -43.5
t-75 -15.5q-41 0 -77 11.5t-62.5 35.5t-41.5 61.5t-15 87.5v237q0 36 17.5 55.5t48.5 19.5q35 0 52 -19.5t17 -55.5v-230q0 -33 13 -54t31.5 -27.5t34.5 -6.5q43 0 71 28t29 75v215q0 36 16.5 55.5t47.5 19.5z" />
    <glyph glyph-name="uacute" unicode="&#xfa;" horiz-adv-x="558" 
d="M214 585q-16 0 -25.5 12t-9.5 25q0 10 7.5 21t18.5 17q99 60 126 79q23 13 39 13q19 0 32.5 -14.5t13.5 -35.5q0 -14 -10 -28t-26 -21q-89 -41 -137 -61q-5 -2 -14.5 -4.5t-14.5 -2.5zM434 501q33 0 52 -20t19 -55v-359q0 -32 -16 -50t-46 -18q-24 0 -39 14t-18 39
q-24 -28 -59 -43.5t-75 -15.5q-41 0 -77 11.5t-62.5 35.5t-41.5 61.5t-15 87.5v237q0 36 17.5 55.5t48.5 19.5q35 0 52 -19.5t17 -55.5v-230q0 -33 13 -54t31.5 -27.5t34.5 -6.5q43 0 71 28t29 75v215q0 36 16.5 55.5t47.5 19.5z" />
    <glyph glyph-name="ucircumflex" unicode="&#xfb;" horiz-adv-x="558" 
d="M158 568q-16 0 -26.5 12.5t-10.5 24.5q0 19 19 37q61 56 99 96q21 22 44 22t44 -22q15 -17 100 -95q16 -16 16 -37q0 -12 -10 -25t-26 -13q-15 0 -36 16l-89 72l-91 -72q-21 -16 -33 -16zM434 501q33 0 52 -20t19 -55v-359q0 -32 -16 -50t-46 -18q-24 0 -39 14t-18 39
q-24 -28 -59 -43.5t-75 -15.5q-41 0 -77 11.5t-62.5 35.5t-41.5 61.5t-15 87.5v237q0 36 17.5 55.5t48.5 19.5q35 0 52 -19.5t17 -55.5v-230q0 -33 13 -54t31.5 -27.5t34.5 -6.5q43 0 71 28t29 75v215q0 36 16.5 55.5t47.5 19.5z" />
    <glyph glyph-name="udieresis" unicode="&#xfc;" horiz-adv-x="558" 
d="M154 595q-33 0 -55 21.5t-22 53.5q0 35 21.5 56.5t55.5 21.5t56 -21.5t22 -56.5q0 -32 -22 -53.5t-56 -21.5zM407 595q-34 0 -56 21.5t-22 53.5q0 35 22 56.5t56 21.5t56 -21.5t22 -56.5q0 -32 -22.5 -53.5t-55.5 -21.5zM434 501q33 0 52 -20t19 -55v-359q0 -32 -16 -50
t-46 -18q-24 0 -39 14t-18 39q-24 -28 -59 -43.5t-75 -15.5q-41 0 -77 11.5t-62.5 35.5t-41.5 61.5t-15 87.5v237q0 36 17.5 55.5t48.5 19.5q35 0 52 -19.5t17 -55.5v-230q0 -33 13 -54t31.5 -27.5t34.5 -6.5q43 0 71 28t29 75v215q0 36 16.5 55.5t47.5 19.5z" />
    <glyph glyph-name="yacute" unicode="&#xfd;" horiz-adv-x="554" 
d="M218 585q-16 0 -25.5 12t-9.5 25q0 10 7.5 21t18.5 17q99 60 126 79q23 13 39 13q19 0 32.5 -14.5t13.5 -35.5q0 -14 -10 -28t-26 -21q-89 -41 -137 -61q-5 -2 -14.5 -4.5t-14.5 -2.5zM463 503q29 0 49.5 -16.5t20.5 -44.5q0 -17 -12 -56q-25 -78 -49 -152t-43.5 -132.5
t-36.5 -107t-19 -54.5q-32 -95 -89.5 -137.5t-145.5 -42.5q-31 0 -50 17.5t-19 43.5q0 27 17.5 44t47.5 21q44 6 67.5 17t35.5 32t21 46l3 9q-35 2 -59.5 23t-44.5 69q-106 250 -129 308q-8 20 -8 39q0 16 8.5 33.5t28 28t40.5 10.5q53 0 72 -56q18 -53 40.5 -115.5
t72.5 -189.5q1 -2 3.5 -5.5t7.5 -3.5q2 0 5.5 2t5.5 4l82 299q18 67 77 67z" />
    <glyph glyph-name="thorn" unicode="&#xfe;" horiz-adv-x="579" 
d="M316 506q46 0 88 -17t73 -49.5t48.5 -80.5t17.5 -107q0 -60 -17.5 -109t-48.5 -82.5t-72 -50.5t-87 -17q-68 0 -124 33v-195q0 -37 -16.5 -57.5t-49.5 -20.5q-32 0 -51.5 21t-19.5 57v867q0 35 19.5 56t51.5 21q33 0 49.5 -20.5t16.5 -56.5v-226q50 34 122 34zM297 107
q49 0 78 39t29 106q0 63 -29 100t-78 37q-38 0 -66 -23.5t-37 -59.5v-121q9 -34 37 -56t66 -22z" />
    <glyph glyph-name="ydieresis" unicode="&#xff;" horiz-adv-x="554" 
d="M159 595q-33 0 -55 21.5t-22 53.5q0 35 21.5 56.5t55.5 21.5t56 -21.5t22 -56.5q0 -32 -22 -53.5t-56 -21.5zM412 595q-34 0 -56 21.5t-22 53.5q0 35 22 56.5t56 21.5t56 -21.5t22 -56.5q0 -32 -22.5 -53.5t-55.5 -21.5zM463 503q29 0 49.5 -16.5t20.5 -44.5
q0 -17 -12 -56q-25 -78 -49 -152t-43.5 -132.5t-36.5 -107t-19 -54.5q-32 -95 -89.5 -137.5t-145.5 -42.5q-31 0 -50 17.5t-19 43.5q0 27 17.5 44t47.5 21q44 6 67.5 17t35.5 32t21 46l3 9q-35 2 -59.5 23t-44.5 69q-106 250 -129 308q-8 20 -8 39q0 16 8.5 33.5t28 28
t40.5 10.5q53 0 72 -56q18 -53 40.5 -115.5t72.5 -189.5q1 -2 3.5 -5.5t7.5 -3.5q2 0 5.5 2t5.5 4l82 299q18 67 77 67z" />
    <glyph glyph-name="Amacron" unicode="&#x100;" horiz-adv-x="692" 
d="M235 782q-18 0 -31 12t-13 33q0 44 44 44h218q18 0 31.5 -13t13.5 -31t-13.5 -31.5t-31.5 -13.5h-218zM667 106q12 -29 12 -52q0 -25 -19 -40.5t-48 -15.5q-51 0 -66 50l-27 80h-347l-28 -83q-8 -22 -23.5 -34.5t-37.5 -12.5q-30 0 -50.5 17t-20.5 42q0 18 11 49
q99 257 189 502q39 108 135 108q51 0 83 -27.5t51 -80.5zM212 249h267l-99 295q-4 14 -13 22.5t-20 8.5q-9 0 -19 -8.5t-15 -22.5z" />
    <glyph glyph-name="amacron" unicode="&#x101;" horiz-adv-x="533" 
d="M110 605q-20 0 -34 13.5t-14 34.5t13.5 33.5t34.5 12.5h281q20 0 34 -13.5t14 -32.5q0 -20 -14 -34t-34 -14h-281zM490 94q15 -22 15 -41q0 -21 -21.5 -40t-48.5 -19q-23 0 -44 21q-19 21 -23 50q-21 -32 -65.5 -53t-90.5 -21q-74 0 -123 37.5t-49 97.5q0 77 64 114
t179 37l61 -1v28q0 48 -27.5 72t-73.5 24q-26 0 -50.5 -10t-47.5 -39q-23 -30 -56 -30q-25 0 -40 14.5t-15 39.5q0 38 28.5 70t75.5 50.5t110 18.5q71 0 119 -20.5t75 -61t27 -101.5l-4 -136q0 -33 4 -56t21 -45zM224 91q30 0 60 16.5t43.5 38t14.5 37.5l-58 2
q-64 0 -96.5 -12.5t-32.5 -41.5q0 -17 18.5 -28.5t50.5 -11.5z" />
    <glyph glyph-name="Abreve" unicode="&#x102;" horiz-adv-x="692" 
d="M345 743q-28 0 -60 10.5t-53 37.5t-21 60q0 25 10 44q11 24 38 24q13 0 27 -9.5t14 -23.5q0 -4 -3 -19l-3 -13q0 -16 13 -25.5t38 -9.5t38.5 9t13.5 26l-3 13q-3 15 -3 19q0 14 14 23.5t27 9.5q25 0 38 -24q10 -19 10 -44q0 -46 -37 -77t-98 -31zM667 106q12 -29 12 -52
q0 -25 -19 -40.5t-48 -15.5q-51 0 -66 50l-27 80h-347l-28 -83q-8 -22 -23.5 -34.5t-37.5 -12.5q-30 0 -50.5 17t-20.5 42q0 18 11 49q99 257 189 502q39 108 135 108q51 0 83 -27.5t51 -80.5zM212 249h267l-99 295q-4 14 -13 22.5t-20 8.5q-9 0 -19 -8.5t-15 -22.5z" />
    <glyph glyph-name="abreve" unicode="&#x103;" horiz-adv-x="533" 
d="M254 550q-70 0 -112 35t-42 94q0 29 13 52q5 10 15 17t24 7q16 0 28.5 -10t12.5 -24q0 -9 -4 -19q-4 -12 -4 -21q0 -49 69 -49q70 0 70 49q0 6 -5 21q-4 10 -4 19q0 15 13.5 24.5t27.5 9.5q26 0 40 -24q12 -24 12 -52q0 -59 -42 -94t-112 -35zM490 94q15 -22 15 -41
q0 -21 -21.5 -40t-48.5 -19q-23 0 -44 21q-19 21 -23 50q-21 -32 -65.5 -53t-90.5 -21q-74 0 -123 37.5t-49 97.5q0 77 64 114t179 37l61 -1v28q0 48 -27.5 72t-73.5 24q-26 0 -50.5 -10t-47.5 -39q-23 -30 -56 -30q-25 0 -40 14.5t-15 39.5q0 38 28.5 70t75.5 50.5
t110 18.5q71 0 119 -20.5t75 -61t27 -101.5l-4 -136q0 -33 4 -56t21 -45zM224 91q30 0 60 16.5t43.5 38t14.5 37.5l-58 2q-64 0 -96.5 -12.5t-32.5 -41.5q0 -17 18.5 -28.5t50.5 -11.5z" />
    <glyph glyph-name="Aogonek" unicode="&#x104;" horiz-adv-x="692" 
d="M644 -125q15 0 25.5 -10t10.5 -25q0 -29 -26 -53q-16 -16 -42.5 -25.5t-50.5 -9.5t-51 10t-44.5 36.5t-17.5 61.5q0 39 25.5 82t81.5 85q-6 9 -9 21l-27 80h-347l-28 -83q-8 -22 -23.5 -34.5t-37.5 -12.5q-30 0 -50.5 17t-20.5 42q0 18 11 49q99 257 189 502
q39 108 135 108q51 0 83 -27.5t51 -80.5l186 -502q12 -29 12 -52q0 -14 -7 -26.5t-18 -18.5l-10 -9q-49 -34 -78.5 -64.5t-29.5 -59.5q0 -13 10 -23t23 -10q6 0 16.5 2.5t29.5 17.5q17 12 29 12zM212 249h267l-99 295q-4 14 -13 22.5t-20 8.5q-9 0 -19 -8.5t-15 -22.5z" />
    <glyph glyph-name="aogonek" unicode="&#x105;" horiz-adv-x="533" 
d="M470 -121q15 0 25.5 -10t10.5 -25q0 -29 -26 -53q-16 -16 -42.5 -25.5t-50.5 -9.5t-51 10t-44.5 36.5t-17.5 61.5q0 39 21.5 75.5t47.5 59.5t37 31q-10 16 -12 35q-21 -32 -65.5 -53t-90.5 -21q-74 0 -123 37.5t-49 97.5q0 77 64 114t179 37l61 -1v28q0 48 -27.5 72
t-73.5 24q-26 0 -50.5 -10t-47.5 -39q-23 -30 -56 -30q-25 0 -40 14.5t-15 39.5q0 38 28.5 70t75.5 50.5t110 18.5q71 0 119 -20.5t75 -61t27 -101.5l-4 -136q0 -33 4 -56t21 -45q15 -22 15 -41q0 -14 -11.5 -29t-27.5 -23q-47 -33 -75.5 -62.5t-28.5 -58.5q0 -13 10 -23
t23 -10q6 0 16.5 2.5t29.5 17.5q17 12 29 12zM224 91q30 0 60 16.5t43.5 38t14.5 37.5l-58 2q-64 0 -96.5 -12.5t-32.5 -41.5q0 -17 18.5 -28.5t50.5 -11.5z" />
    <glyph glyph-name="Cacute" unicode="&#x106;" horiz-adv-x="705" 
d="M357 762q-16 0 -28 13t-12 28q0 12 9 24t21 19l89 47q30 15 42 15q23 0 37.5 -16t14.5 -39q0 -13 -9.5 -28t-34.5 -25l-95 -32q-24 -6 -34 -6zM388 709q105 0 181.5 -47.5t108.5 -121.5q11 -22 11 -40q0 -29 -22 -49t-48 -20q-35 0 -60 38q-19 38 -43.5 62t-56.5 36.5
t-76 12.5q-41 0 -77 -15t-63 -44t-42.5 -73t-15.5 -98q0 -53 15 -96.5t43 -74t65.5 -46.5t80.5 -16q34 0 75 12.5t78 46.5q23 22 54 22q24 0 41.5 -18.5t17.5 -42.5q0 -42 -59 -83q-40 -28 -93 -46.5t-114 -18.5q-74 0 -138.5 25.5t-112 73t-73.5 115t-26 146.5
q0 81 26.5 148.5t74 114.5t112 72t136.5 25z" />
    <glyph glyph-name="cacute" unicode="&#x107;" horiz-adv-x="525" 
d="M221 585q-16 0 -25.5 12t-9.5 25q0 10 7.5 21t18.5 17q99 60 126 79q23 13 39 13q19 0 32.5 -14.5t13.5 -35.5q0 -14 -10 -28t-26 -21q-89 -41 -137 -61q-5 -2 -14.5 -4.5t-14.5 -2.5zM291 113q15 0 35 4t62 30q17 11 35 11q25 0 41 -17.5t16 -40.5q0 -16 -9 -32t-22 -25
q-29 -23 -71 -37.5t-92 -14.5q-52 0 -92.5 15.5t-68 38t-47.5 53.5t-31 70t-11 83q0 59 19 107t53 81t81 50t101 17q40 0 81.5 -13.5t74.5 -43.5t47 -60q10 -22 10 -43q0 -25 -19 -42t-44 -17q-17 0 -32.5 10t-24.5 24q-21 37 -44.5 51.5t-50.5 14.5q-23 0 -50 -11
t-45.5 -42.5t-18.5 -82.5q0 -33 11 -65t40 -52.5t66 -20.5z" />
    <glyph glyph-name="Cdotaccent" unicode="&#x10a;" horiz-adv-x="705" 
d="M396 760q-32 0 -53.5 20.5t-21.5 52.5q0 33 21.5 53.5t53.5 20.5q33 0 54.5 -20.5t21.5 -53.5q0 -32 -21.5 -52.5t-54.5 -20.5zM388 709q105 0 181.5 -47.5t108.5 -121.5q11 -22 11 -40q0 -29 -22 -49t-48 -20q-35 0 -60 38q-19 38 -43.5 62t-56.5 36.5t-76 12.5
q-41 0 -77 -15t-63 -44t-42.5 -73t-15.5 -98q0 -53 15 -96.5t43 -74t65.5 -46.5t80.5 -16q34 0 75 12.5t78 46.5q23 22 54 22q24 0 41.5 -18.5t17.5 -42.5q0 -42 -59 -83q-40 -28 -93 -46.5t-114 -18.5q-74 0 -138.5 25.5t-112 73t-73.5 115t-26 146.5q0 81 26.5 148.5
t74 114.5t112 72t136.5 25z" />
    <glyph glyph-name="cdotaccent" unicode="&#x10b;" horiz-adv-x="525" 
d="M290 578q-35 0 -57.5 21.5t-22.5 53.5q0 36 22.5 58t57.5 22t57.5 -22t22.5 -58q0 -32 -23 -53.5t-57 -21.5zM291 113q15 0 35 4t62 30q17 11 35 11q25 0 41 -17.5t16 -40.5q0 -16 -9 -32t-22 -25q-29 -23 -71 -37.5t-92 -14.5q-52 0 -92.5 15.5t-68 38t-47.5 53.5
t-31 70t-11 83q0 59 19 107t53 81t81 50t101 17q40 0 81.5 -13.5t74.5 -43.5t47 -60q10 -22 10 -43q0 -25 -19 -42t-44 -17q-17 0 -32.5 10t-24.5 24q-21 37 -44.5 51.5t-50.5 14.5q-23 0 -50 -11t-45.5 -42.5t-18.5 -82.5q0 -33 11 -65t40 -52.5t66 -20.5z" />
    <glyph glyph-name="Ccaron" unicode="&#x10c;" horiz-adv-x="705" 
d="M262 841q-24 18 -24 40q0 17 13 30.5t32 13.5q18 0 40 -22l74 -67l73 67q24 22 41 22q19 0 31 -13t12 -31q0 -22 -24 -41q-60 -51 -107 -85q-16 -11 -26 -11q-11 0 -27 11q-43 31 -108 86zM383 580q-41 0 -77 -15t-63 -44t-42.5 -73t-15.5 -98q0 -53 15 -96.5t43 -74
t65.5 -46.5t80.5 -16q34 0 75 12.5t78 46.5q23 22 54 22q24 0 41.5 -18.5t17.5 -42.5q0 -42 -59 -83q-40 -28 -93 -46.5t-114 -18.5q-74 0 -138.5 25.5t-112 73t-73.5 115t-26 146.5q0 81 26.5 148.5t74 114.5t112 72t136.5 25q105 0 181.5 -47.5t108.5 -121.5
q11 -22 11 -40q0 -29 -22 -49t-48 -20q-35 0 -60 38q-19 38 -43.5 62t-56.5 36.5t-76 12.5z" />
    <glyph glyph-name="ccaron" unicode="&#x10d;" horiz-adv-x="525" 
d="M135 694q-21 17 -21 40q0 17 12.5 30.5t31.5 13.5q17 0 38 -21l96 -86l95 86q21 21 37 21q19 0 32 -13t13 -31q0 -23 -22 -40q-78 -62 -130 -99q-15 -12 -26 -12q-9 0 -26 12q-37 27 -130 99zM288 387q-23 0 -50 -11t-45.5 -42.5t-18.5 -82.5q0 -33 11 -65t40 -52.5
t66 -20.5q15 0 35 4t62 30q17 11 35 11q25 0 41 -17.5t16 -40.5q0 -16 -9 -32t-22 -25q-29 -23 -71 -37.5t-92 -14.5q-52 0 -92.5 15.5t-68 38t-47.5 53.5t-31 70t-11 83q0 59 19 107t53 81t81 50t101 17q40 0 81.5 -13.5t74.5 -43.5t47 -60q10 -22 10 -43q0 -25 -19 -42
t-44 -17q-17 0 -32.5 10t-24.5 24q-21 37 -44.5 51.5t-50.5 14.5z" />
    <glyph glyph-name="Dcaron" unicode="&#x10e;" horiz-adv-x="756" 
d="M219 841q-24 18 -24 40q0 17 13 30.5t32 13.5q18 0 40 -22l74 -67l73 67q24 22 41 22q19 0 31 -13t12 -31q0 -22 -24 -41q-60 -51 -107 -85q-16 -11 -26 -11q-11 0 -27 11q-43 31 -108 86zM313 708q99 0 176 -25.5t127.5 -73t75.5 -113t25 -144.5t-25 -144.5
t-75.5 -112.5t-127.5 -72.5t-176 -25.5q-66 0 -171 3q-33 0 -52.5 22.5t-19.5 62.5v535q0 39 19.5 61t52.5 22q9 0 47.5 2t68 2.5t55.5 0.5zM308 121q67 0 117.5 16.5t82 46.5t47 72.5t15.5 94.5q0 77 -32 126.5t-89 74.5t-141 25l-97 -1v-453z" />
    <glyph glyph-name="dcaron" unicode="&#x10f;" horiz-adv-x="643" 
d="M625 780q23 0 40.5 -13t17.5 -46q0 -50 -33 -149q-9 -22 -20 -31t-28 -8q-17 2 -27.5 14.5t-9.5 33.5q3 39 3 144q0 24 17 40t40 15zM457 775q31 0 50 -21t19 -54v-624q0 -36 -16.5 -56t-46.5 -20q-44 0 -58 41q-58 -48 -143 -48q-46 0 -87.5 17t-72.5 50.5t-48.5 82.5
t-17.5 109q0 59 17.5 107t48.5 80.5t73 49.5t88 17q74 0 125 -36v230q0 34 18 54.5t51 20.5zM283 107q21 0 46 10.5t42 36.5t17 57v68q0 45 -30 77.5t-75 32.5q-49 0 -78 -37t-29 -100q0 -67 29 -106t78 -39z" />
    <glyph glyph-name="Dcroat" unicode="&#x110;" horiz-adv-x="773" 
d="M331 708q99 0 176 -25.5t127.5 -73t75.5 -113t25 -144.5t-25 -144.5t-75.5 -112.5t-127.5 -72.5t-176 -25.5q-64 0 -172 3q-32 0 -51.5 23t-19.5 62v199h-35q-20 0 -32.5 12t-12.5 32q0 46 45 46h35v246q0 39 19.5 61t51.5 22q9 0 48 2t68.5 2.5t55.5 0.5zM326 121
q67 0 117.5 16.5t82 46.5t47 72.5t15.5 94.5q0 77 -32 126.5t-89 74.5t-141 25l-98 -1v-202h133q18 0 31.5 -13.5t13.5 -32.5q0 -18 -13 -31t-32 -13h-133v-161z" />
    <glyph glyph-name="dcroat" unicode="&#x111;" horiz-adv-x="584" 
d="M584 655q18 0 31 -11.5t13 -33.5q0 -21 -13.5 -34.5t-30.5 -13.5h-58v-486q0 -36 -16.5 -56t-46.5 -20q-44 0 -58 41q-58 -48 -143 -48q-46 0 -87.5 17t-72.5 50.5t-48.5 82.5t-17.5 109q0 59 17.5 107t48.5 80.5t73 49.5t88 17q74 0 125 -36v93h-112q-19 0 -31.5 12
t-12.5 35q0 45 44 45h112v45q0 34 18 54.5t51 20.5q31 0 50 -21t19 -54v-45h58zM283 107q21 0 46 10.5t42 36.5t17 57v68q0 45 -30 77.5t-75 32.5q-49 0 -78 -37t-29 -100q0 -67 29 -106t78 -39z" />
    <glyph glyph-name="Emacron" unicode="&#x112;" horiz-adv-x="608" 
d="M206 786q-18 0 -31 12t-13 33q0 44 44 44h218q18 0 31.5 -13t13.5 -31t-13.5 -31.5t-31.5 -13.5h-218zM510 117q24 0 39.5 -16.5t15.5 -41.5q0 -26 -15 -42.5t-40 -16.5h-379q-27 0 -44 17t-17 44v581q0 26 17.5 43.5t43.5 17.5h385q25 0 40.5 -16.5t15.5 -43.5
q0 -62 -56 -62h-304v-199h280q25 0 40.5 -15.5t15.5 -40.5t-15.5 -40.5t-41.5 -15.5h-279v-153h298z" />
    <glyph glyph-name="emacron" unicode="&#x113;" horiz-adv-x="545" 
d="M134 605q-20 0 -34 13.5t-14 34.5t13.5 33.5t34.5 12.5h281q20 0 34 -13.5t14 -32.5q0 -20 -14 -34t-34 -14h-281zM282 510q52 0 94 -16t72 -46.5t45.5 -75.5t15.5 -102q0 -25 -3 -46q-3 -18 -13.5 -28t-33.5 -10l-283 1q13 -40 45 -61t76 -21q22 0 47.5 7t40.5 16
q17 10 35 10q26 0 39.5 -16t13.5 -36q0 -14 -7.5 -27.5t-31.5 -29.5q-27 -18 -66.5 -28t-79.5 -10q-54 0 -100.5 18t-80.5 51.5t-52.5 83t-18.5 108.5t18 107.5t51 82t78.5 51t98.5 17.5zM280 391q-34 0 -59.5 -14.5t-37.5 -40.5t-15 -52h216q-2 52 -28 79.5t-76 27.5z" />
    <glyph glyph-name="Edotaccent" unicode="&#x116;" horiz-adv-x="608" 
d="M316 760q-32 0 -53.5 20.5t-21.5 52.5q0 33 21.5 53.5t53.5 20.5q33 0 54.5 -20.5t21.5 -53.5q0 -32 -21.5 -52.5t-54.5 -20.5zM510 117q24 0 39.5 -16.5t15.5 -41.5q0 -26 -15 -42.5t-40 -16.5h-379q-27 0 -44 17t-17 44v581q0 26 17.5 43.5t43.5 17.5h385
q25 0 40.5 -16.5t15.5 -43.5q0 -62 -56 -62h-304v-199h280q25 0 40.5 -15.5t15.5 -40.5t-15.5 -40.5t-41.5 -15.5h-279v-153h298z" />
    <glyph glyph-name="edotaccent" unicode="&#x117;" horiz-adv-x="545" 
d="M275 578q-35 0 -57.5 21.5t-22.5 53.5q0 36 22.5 58t57.5 22t57.5 -22t22.5 -58q0 -32 -23 -53.5t-57 -21.5zM282 510q52 0 94 -16t72 -46.5t45.5 -75.5t15.5 -102q0 -25 -3 -46q-3 -18 -13.5 -28t-33.5 -10l-283 1q13 -40 45 -61t76 -21q22 0 47.5 7t40.5 16
q17 10 35 10q26 0 39.5 -16t13.5 -36q0 -14 -7.5 -27.5t-31.5 -29.5q-27 -18 -66.5 -28t-79.5 -10q-54 0 -100.5 18t-80.5 51.5t-52.5 83t-18.5 108.5t18 107.5t51 82t78.5 51t98.5 17.5zM280 391q-34 0 -59.5 -14.5t-37.5 -40.5t-15 -52h216q-2 52 -28 79.5t-76 27.5z" />
    <glyph glyph-name="Eogonek" unicode="&#x118;" horiz-adv-x="608" 
d="M534 -125q15 0 25.5 -10t10.5 -25q0 -29 -26 -53q-16 -16 -42.5 -25.5t-50.5 -9.5t-51 10t-44.5 36.5t-17.5 61.5q0 32 17.5 68.5t56.5 71.5h-281q-27 0 -44 17t-17 44v581q0 26 17.5 43.5t43.5 17.5h385q25 0 40.5 -16.5t15.5 -43.5q0 -62 -56 -62h-304v-199h280
q25 0 40.5 -15.5t15.5 -40.5t-15.5 -40.5t-41.5 -15.5h-279v-153h298q24 0 39.5 -16.5t15.5 -41.5q0 -28 -17 -45q-5 -8 -14 -14q-49 -34 -78.5 -64.5t-29.5 -59.5q0 -13 10 -23t23 -10q6 0 16.5 2.5t29.5 17.5q17 12 29 12z" />
    <glyph glyph-name="eogonek" unicode="&#x119;" horiz-adv-x="545" 
d="M282 510q52 0 94 -16t72 -46.5t45.5 -75.5t15.5 -102q0 -25 -3 -46q-3 -18 -13.5 -28t-33.5 -10l-283 1q13 -40 45 -61t76 -21q22 0 47.5 7t40.5 16q17 10 35 10q26 0 39.5 -16t13.5 -36q0 -14 -7.5 -27.5t-31.5 -29.5l-20 -11l-11 -10q-49 -34 -78.5 -64.5t-29.5 -59.5
q0 -13 10 -23t23 -10q6 0 16.5 2.5t29.5 17.5q17 12 29 12q15 0 25.5 -10t10.5 -25q0 -29 -26 -53q-16 -16 -42.5 -25.5t-50.5 -9.5t-51 10t-44.5 36.5t-17.5 61.5q0 63 57 124q-75 6 -126 43t-76.5 92t-25.5 125q0 59 18 107.5t51 82t78.5 51t98.5 17.5zM280 391
q-34 0 -59.5 -14.5t-37.5 -40.5t-15 -52h216q-2 52 -28 79.5t-76 27.5z" />
    <glyph glyph-name="Ecaron" unicode="&#x11a;" horiz-adv-x="608" 
d="M181 841q-24 18 -24 40q0 17 13 30.5t32 13.5q18 0 40 -22l74 -67l73 67q24 22 41 22q19 0 31 -13t12 -31q0 -22 -24 -41q-60 -51 -107 -85q-16 -11 -26 -11q-11 0 -27 11q-43 31 -108 86zM510 117q24 0 39.5 -16.5t15.5 -41.5q0 -26 -15 -42.5t-40 -16.5h-379
q-27 0 -44 17t-17 44v581q0 26 17.5 43.5t43.5 17.5h385q25 0 40.5 -16.5t15.5 -43.5q0 -62 -56 -62h-304v-199h280q25 0 40.5 -15.5t15.5 -40.5t-15.5 -40.5t-41.5 -15.5h-279v-153h298z" />
    <glyph glyph-name="ecaron" unicode="&#x11b;" horiz-adv-x="545" 
d="M120 694q-21 17 -21 40q0 17 12.5 30.5t31.5 13.5q17 0 38 -21l96 -86l95 86q21 21 37 21q19 0 32 -13t13 -31q0 -23 -22 -40q-78 -62 -130 -99q-15 -12 -26 -12q-9 0 -26 12q-37 27 -130 99zM282 510q52 0 94 -16t72 -46.5t45.5 -75.5t15.5 -102q0 -25 -3 -46
q-3 -18 -13.5 -28t-33.5 -10l-283 1q13 -40 45 -61t76 -21q22 0 47.5 7t40.5 16q17 10 35 10q26 0 39.5 -16t13.5 -36q0 -14 -7.5 -27.5t-31.5 -29.5q-27 -18 -66.5 -28t-79.5 -10q-54 0 -100.5 18t-80.5 51.5t-52.5 83t-18.5 108.5t18 107.5t51 82t78.5 51t98.5 17.5z
M280 391q-34 0 -59.5 -14.5t-37.5 -40.5t-15 -52h216q-2 52 -28 79.5t-76 27.5z" />
    <glyph glyph-name="Gbreve" unicode="&#x11e;" horiz-adv-x="751" 
d="M393 747q-28 0 -60 10.5t-53 37.5t-21 60q0 25 10 44q11 24 38 24q13 0 27 -9.5t14 -23.5q0 -4 -3 -19l-3 -13q0 -16 13 -25.5t38 -9.5t38.5 9t13.5 26l-3 13q-3 15 -3 19q0 14 14 23.5t27 9.5q25 0 38 -24q10 -19 10 -44q0 -46 -37 -77t-98 -31zM622 337
q35 0 53.5 -18.5t18.5 -45.5v-224q0 -49 -51 -49q-25 0 -40 12.5t-15 36.5v27q-32 -37 -89.5 -61.5t-131.5 -24.5q-67 0 -127 24t-105 69.5t-70.5 112t-25.5 147.5q0 84 28 153.5t77.5 117.5t116 73t139.5 25q49 0 102 -11.5t104 -42.5t76 -75t25 -85q0 -27 -18.5 -45.5
t-42.5 -18.5q-49 0 -69 51q-16 45 -60.5 72.5t-116.5 27.5q-101 0 -158.5 -63.5t-57.5 -176.5q0 -107 54.5 -167.5t150.5 -60.5q68 0 114.5 31t51.5 86v1h-117q-26 0 -43 14.5t-17 36.5q0 21 17.5 36t42.5 15h184z" />
    <glyph glyph-name="gbreve" unicode="&#x11f;" horiz-adv-x="582" 
d="M287 550q-70 0 -112 35t-42 94q0 29 13 52q5 10 15 17t24 7q16 0 28.5 -10t12.5 -24q0 -9 -4 -19q-4 -12 -4 -21q0 -49 69 -49q70 0 70 49q0 6 -5 21q-4 10 -4 19q0 15 13.5 24.5t27.5 9.5q26 0 40 -24q12 -24 12 -52q0 -59 -42 -94t-112 -35zM546 605q19 0 33 -13
t14 -32q0 -24 -15 -50q-12 -26 -32 -50t-43 -36q29 -45 29 -110q-1 -94 -67.5 -149t-184.5 -55q-18 0 -50 4q-32 -6 -32 -23q0 -12 13.5 -19t48.5 -8l80 -1q104 -5 147 -37.5t43 -102.5q0 -79 -65 -125t-175 -46q-114 0 -174 39.5t-60 106.5q0 41 21 66.5t53 35.5
q-23 9 -37 28t-14 44q0 49 54 72q-47 25 -73 69.5t-26 100.5q0 47 17.5 86t50 66t78 41t100.5 14q39 0 76 -7t64 -20q9 -3 17 -3q19 0 33 17.5t28 54.5q18 42 48 42zM279 219q63 0 96 25.5t33 69.5q0 45 -33 70.5t-96 25.5q-56 0 -88 -26t-32 -70q0 -43 32 -69t88 -26z
M242 -38q-66 -11 -66 -55q0 -19 31.5 -33.5t85.5 -14.5q52 0 84 15.5t32 36.5q0 23 -20 34.5t-65 13.5z" />
    <glyph glyph-name="Gdotaccent" unicode="&#x120;" horiz-adv-x="751" 
d="M392 760q-32 0 -53.5 20.5t-21.5 52.5q0 33 21.5 53.5t53.5 20.5q33 0 54.5 -20.5t21.5 -53.5q0 -32 -21.5 -52.5t-54.5 -20.5zM622 337q35 0 53.5 -18.5t18.5 -45.5v-224q0 -49 -51 -49q-25 0 -40 12.5t-15 36.5v27q-32 -37 -89.5 -61.5t-131.5 -24.5q-67 0 -127 24
t-105 69.5t-70.5 112t-25.5 147.5q0 84 28 153.5t77.5 117.5t116 73t139.5 25q49 0 102 -11.5t104 -42.5t76 -75t25 -85q0 -27 -18.5 -45.5t-42.5 -18.5q-49 0 -69 51q-16 45 -60.5 72.5t-116.5 27.5q-101 0 -158.5 -63.5t-57.5 -176.5q0 -107 54.5 -167.5t150.5 -60.5
q68 0 114.5 31t51.5 86v1h-117q-26 0 -43 14.5t-17 36.5q0 21 17.5 36t42.5 15h184z" />
    <glyph glyph-name="gdotaccent" unicode="&#x121;" horiz-adv-x="582" 
d="M284 578q-35 0 -57.5 21.5t-22.5 53.5q0 36 22.5 58t57.5 22t57.5 -22t22.5 -58q0 -32 -23 -53.5t-57 -21.5zM546 605q19 0 33 -13t14 -32q0 -24 -15 -50q-12 -26 -32 -50t-43 -36q29 -45 29 -110q-1 -94 -67.5 -149t-184.5 -55q-18 0 -50 4q-32 -6 -32 -23
q0 -12 13.5 -19t48.5 -8l80 -1q104 -5 147 -37.5t43 -102.5q0 -79 -65 -125t-175 -46q-114 0 -174 39.5t-60 106.5q0 41 21 66.5t53 35.5q-23 9 -37 28t-14 44q0 49 54 72q-47 25 -73 69.5t-26 100.5q0 47 17.5 86t50 66t78 41t100.5 14q39 0 76 -7t64 -20q9 -3 17 -3
q19 0 33 17.5t28 54.5q18 42 48 42zM279 219q63 0 96 25.5t33 69.5q0 45 -33 70.5t-96 25.5q-56 0 -88 -26t-32 -70q0 -43 32 -69t88 -26zM242 -38q-66 -11 -66 -55q0 -19 31.5 -33.5t85.5 -14.5q52 0 84 15.5t32 36.5q0 23 -20 34.5t-65 13.5z" />
    <glyph glyph-name="Gcommaaccent" unicode="&#x122;" horiz-adv-x="751" 
d="M622 337q35 0 53.5 -18.5t18.5 -45.5v-224q0 -49 -51 -49q-25 0 -40 12.5t-15 36.5v27q-32 -37 -89.5 -61.5t-131.5 -24.5q-67 0 -127 24t-105 69.5t-70.5 112t-25.5 147.5q0 84 28 153.5t77.5 117.5t116 73t139.5 25q49 0 102 -11.5t104 -42.5t76 -75t25 -85
q0 -27 -18.5 -45.5t-42.5 -18.5q-49 0 -69 51q-16 45 -60.5 72.5t-116.5 27.5q-101 0 -158.5 -63.5t-57.5 -176.5q0 -107 54.5 -167.5t150.5 -60.5q68 0 114.5 31t51.5 86v1h-117q-26 0 -43 14.5t-17 36.5q0 21 17.5 36t42.5 15h184zM370 -52q34 0 55.5 -22t21.5 -61
q0 -32 -13 -61t-33 -50q-19 -21 -36 -21q-9 0 -16 7.5t-7 15.5q0 9 12 26q20 32 20 53q0 14 -10 14l-16 -1q-13 1 -25 15t-12 33q0 24 16 38t43 14z" />
    <glyph glyph-name="gcommaaccent" unicode="&#x123;" horiz-adv-x="582" 
d="M293 566q-35 0 -57 22t-22 61q0 62 46 112q21 21 37 21q9 0 16.5 -8t7.5 -16q0 -9 -12 -26q-20 -32 -20 -53q0 -14 10 -14l16 1q13 -1 25 -15.5t12 -33.5q0 -23 -16.5 -37t-42.5 -14zM546 605q19 0 33 -13t14 -32q0 -24 -15 -50q-12 -26 -32 -50t-43 -36q29 -45 29 -110
q-1 -94 -67.5 -149t-184.5 -55q-18 0 -50 4q-32 -6 -32 -23q0 -12 13.5 -19t48.5 -8l80 -1q104 -5 147 -37.5t43 -102.5q0 -79 -65 -125t-175 -46q-114 0 -174 39.5t-60 106.5q0 41 21 66.5t53 35.5q-23 9 -37 28t-14 44q0 49 54 72q-47 25 -73 69.5t-26 100.5q0 47 17.5 86
t50 66t78 41t100.5 14q39 0 76 -7t64 -20q9 -3 17 -3q19 0 33 17.5t28 54.5q18 42 48 42zM279 219q63 0 96 25.5t33 69.5q0 45 -33 70.5t-96 25.5q-56 0 -88 -26t-32 -70q0 -43 32 -69t88 -26zM242 -38q-66 -11 -66 -55q0 -19 31.5 -33.5t85.5 -14.5q52 0 84 15.5t32 36.5
q0 23 -20 34.5t-65 13.5z" />
    <glyph glyph-name="Hbar" unicode="&#x126;" horiz-adv-x="750" 
d="M720 550q17 0 28 -8.5t11 -27.5q0 -17 -11.5 -27t-27.5 -10h-41v-395q0 -42 -17.5 -62t-55.5 -20q-31 0 -51 23t-20 59v154h-320v-154q0 -42 -17.5 -62t-55.5 -20q-32 0 -52 23t-20 59v395h-50q-15 0 -26.5 11t-11.5 26q0 14 11.5 25t26.5 11h50v71q0 36 20 59t52 23
q36 0 54.5 -23t18.5 -59v-71h320v71q0 36 20 59t51 23q18 0 35.5 -7.5t27.5 -27.5t10 -47v-71h41zM535 363v114h-320v-114h320z" />
    <glyph glyph-name="hbar" unicode="&#x127;" horiz-adv-x="578" 
d="M333 508q95 0 143.5 -48.5t48.5 -145.5v-248q0 -29 -18 -47.5t-50 -18.5t-51.5 18.5t-19.5 47.5v226q0 51 -24.5 75t-63.5 24q-46 0 -74 -27t-29 -75v-223q0 -34 -16.5 -50t-51.5 -16q-32 0 -51 17.5t-19 48.5v497h-41q-19 0 -31 12t-12 35q0 45 43 45h41v54q0 30 19 48
t51 18q33 0 50.5 -18t17.5 -48v-54h129q18 0 31 -11.5t13 -33.5q0 -21 -13.5 -34.5t-30.5 -13.5l-129 1v-96q52 41 138 41z" />
    <glyph glyph-name="Itilde" unicode="&#x128;" horiz-adv-x="285" 
d="M19 770q-19 0 -31.5 13t-11.5 33q0 25 16.5 46.5t38 30t38.5 8.5q18 0 35.5 -6t47.5 -21.5t44 -15.5q18 0 29 14q13 20 34 20q17 0 29 -13t11 -32q-1 -15 -10.5 -33t-32 -31t-47.5 -13q-18 0 -36 6t-48 22t-45 16q-18 0 -27 -20q-10 -24 -34 -24zM214 81q0 -81 -72 -81
q-32 0 -52 22.5t-20 58.5v541q0 36 20 58.5t52 22.5q36 0 54 -22t18 -59v-541z" />
    <glyph glyph-name="itilde" unicode="&#x129;" horiz-adv-x="249" 
d="M-13 594q-19 0 -30.5 12.5t-11.5 33.5q0 38 31 69t75 31q21 0 43 -7.5t53 -25.5t44 -18q17 0 27.5 5t17.5 17q14 19 35 19q17 0 29 -11t12 -33q0 -15 -10.5 -36t-36.5 -37.5t-57 -16.5q-21 0 -42 7.5t-55 26.5t-49 19q-12 0 -24 -6.5t-17 -24.5q-4 -10 -13 -17t-21 -7z
M126 0q-31 0 -51 21t-20 54v352q0 33 20 53.5t51 20.5q33 0 50 -20t17 -54v-352q0 -39 -16.5 -57t-50.5 -18z" />
    <glyph glyph-name="Imacron" unicode="&#x12a;" horiz-adv-x="285" 
d="M-12 831q0 44 44 44h218q18 0 31.5 -13t13.5 -31t-13.5 -31.5t-31.5 -13.5h-218q-18 0 -31 12t-13 33zM214 81q0 -81 -72 -81q-32 0 -52 22.5t-20 58.5v541q0 36 20 58.5t52 22.5q36 0 54 -22t18 -59v-541z" />
    <glyph glyph-name="imacron" unicode="&#x12b;" horiz-adv-x="249" 
d="M-17 652q0 47 47 47h191q19 0 33 -14t14 -33t-14 -33t-33 -14h-191q-21 0 -34 12.5t-13 34.5zM126 0q-31 0 -51 21t-20 54v352q0 33 20 53.5t51 20.5q33 0 50 -20t17 -54v-352q0 -39 -16.5 -57t-50.5 -18z" />
    <glyph glyph-name="Iogonek" unicode="&#x12e;" horiz-adv-x="285" 
d="M180 -121q15 0 25.5 -10t10.5 -25q0 -29 -26 -53q-16 -16 -42.5 -25.5t-50.5 -9.5t-51 10t-44.5 36.5t-17.5 61.5q0 38 24 80t78 83q-16 22 -16 54v541q0 36 20 58.5t52 22.5q36 0 54 -22t18 -59v-541q0 -44 -21 -65l-13 -12q-49 -34 -78.5 -64.5t-29.5 -59.5
q0 -13 10 -23t23 -10q6 0 16.5 2.5t29.5 17.5q17 12 29 12z" />
    <glyph glyph-name="iogonek" unicode="&#x12f;" horiz-adv-x="249" 
d="M127 580q-36 0 -59.5 22.5t-23.5 56.5q0 37 23.5 60t59.5 23t60 -23t24 -60q0 -34 -24 -56.5t-60 -22.5zM158 -124q15 0 25.5 -10t10.5 -25q0 -29 -26 -53q-16 -16 -42.5 -25.5t-50.5 -9.5t-51 10t-44.5 36.5t-17.5 61.5q0 39 25.5 82t81.5 85q-14 19 -14 47v352
q0 33 20 53.5t51 20.5q33 0 50 -20t17 -54v-352q0 -23 -6.5 -40t-18.5 -25l-10 -9q-49 -34 -78.5 -64.5t-29.5 -59.5q0 -13 10 -23t23 -10q6 0 16.5 2.5t29.5 17.5q17 12 29 12z" />
    <glyph glyph-name="Idotaccent" unicode="&#x130;" horiz-adv-x="285" 
d="M141 760q-32 0 -53.5 20.5t-21.5 52.5q0 33 21.5 53.5t53.5 20.5q33 0 54.5 -20.5t21.5 -53.5q0 -32 -21.5 -52.5t-54.5 -20.5zM214 81q0 -81 -72 -81q-32 0 -52 22.5t-20 58.5v541q0 36 20 58.5t52 22.5q36 0 54 -22t18 -59v-541z" />
    <glyph glyph-name="dotlessi" unicode="&#x131;" horiz-adv-x="249" 
d="M126 0q-31 0 -51 21t-20 54v352q0 33 20 53.5t51 20.5q33 0 50 -20t17 -54v-352q0 -39 -16.5 -57t-50.5 -18z" />
    <glyph glyph-name="IJ" unicode="&#x132;" horiz-adv-x="674" 
d="M214 81q0 -81 -72 -81q-32 0 -52 22.5t-20 58.5v541q0 36 20 58.5t52 22.5q36 0 54 -22t18 -59v-541zM530 702q33 0 53 -19.5t20 -55.5v-381q0 -115 -58 -184t-156 -69q-22 0 -44.5 7t-35 24t-12.5 38q0 24 18 42t42 18q49 0 75.5 33t26.5 96v376q0 36 19 55.5t52 19.5z
" />
    <glyph glyph-name="ij" unicode="&#x133;" horiz-adv-x="497" 
d="M125 590q-37 0 -61 23.5t-24 58.5q0 39 24 62.5t61 23.5q27 0 49 -13.5t30 -34t8 -38.5q0 -35 -25 -58.5t-62 -23.5zM376 592q-17 0 -36.5 7.5t-33 27.5t-13.5 45q0 37 23.5 60t59.5 23t60 -23t24 -60q0 -34 -24 -57t-60 -23zM126 0q-31 0 -51 21t-20 54v352
q0 33 20 53.5t51 20.5q33 0 50 -20t17 -54v-352q0 -39 -16.5 -57t-50.5 -18zM376 501q32 0 50 -20t18 -53v-401q0 -104 -26 -163t-75 -93q-28 -19 -59 -18q-29 1 -45 18.5t-16 44.5q0 9 3.5 20.5t29.5 40.5q26 23 38.5 55t12.5 85v411q0 34 18.5 53.5t50.5 19.5z" />
    <glyph glyph-name="Kcommaaccent" unicode="&#x136;" horiz-adv-x="662" 
d="M609 123q23 -23 23 -61q0 -24 -21 -43.5t-48 -19.5q-18 0 -34.5 7t-46.5 41q-49 57 -148 159q-12 11 -27.5 18.5t-24.5 7.5h-68v-151q0 -41 -17.5 -61t-54.5 -20q-32 0 -52 22.5t-20 58.5v541q0 35 20 58t52 23q36 0 54 -22t18 -59v-268l68 -2q19 0 31 23
q103 155 181 281q12 20 27.5 33.5t43.5 13.5t47 -19t19 -46q0 -31 -20 -59q-30 -41 -91.5 -129.5t-91.5 -129.5q-10 -12 -19 -17q20 -4 39 -23q15 -14 161 -157zM319 -52q34 0 55.5 -22t21.5 -61q0 -32 -13 -61t-33 -50q-19 -21 -36 -21q-9 0 -16 7.5t-7 15.5q0 9 12 26
q20 32 20 53q0 14 -10 14l-16 -1q-13 1 -25 15t-12 33q0 24 16 38t43 14z" />
    <glyph glyph-name="kcommaaccent" unicode="&#x137;" horiz-adv-x="545" 
d="M490 113q23 -34 23 -59q0 -14 -9.5 -29.5t-24 -22t-27.5 -6.5q-21 0 -38.5 10t-44.5 46q-49 68 -61 80q-13 14 -28 23.5t-41 9.5t-44 -3v-83q0 -40 -16 -59.5t-51 -19.5q-32 0 -51.5 21t-19.5 58v618q0 35 19.5 56.5t51.5 21.5q34 0 50.5 -21t16.5 -57v-424q12 -3 43 -3
q25 0 45 24t88 156q15 30 31.5 42.5t43.5 12.5q25 0 45 -17.5t20 -45.5q0 -26 -14 -48q-79 -132 -93 -150t-22 -24q24 -9 49 -37q22 -23 59 -70zM271 -52q34 0 55.5 -22t21.5 -61q0 -32 -13 -61t-33 -50q-19 -21 -36 -21q-9 0 -16 7.5t-7 15.5q0 9 12 26q20 32 20 53
q0 14 -10 14l-16 -1q-13 1 -25 15t-12 33q0 24 16 38t43 14z" />
    <glyph glyph-name="kgreenlandic" unicode="&#x138;" horiz-adv-x="541" 
d="M490 108q22 -32 22 -56q0 -20 -16.5 -38t-42.5 -18q-19 0 -36.5 10t-41.5 44q-45 61 -64 82q-13 14 -28.5 23.5t-44.5 9.5q-26 0 -44 -3v-83q0 -40 -16 -59.5t-51 -19.5q-32 0 -51.5 21t-19.5 58v349q0 35 19.5 56.5t51.5 21.5q34 0 50.5 -21t16.5 -57v-164q12 -3 43 -3
q25 0 49.5 30t91.5 163q14 27 29.5 39t41.5 12q23 0 42 -16.5t19 -42.5q0 -24 -14 -46q-59 -101 -81 -134t-40 -46q26 -9 54 -39q25 -27 61 -73z" />
    <glyph glyph-name="Lacute" unicode="&#x139;" horiz-adv-x="556" 
d="M105 762q-16 0 -28 13t-12 28q0 12 9 24t21 19l89 47q30 15 42 15q23 0 37.5 -16t14.5 -39q0 -13 -9.5 -28t-34.5 -25l-95 -32q-24 -6 -34 -6zM478 124q29 0 49.5 -16.5t20.5 -45.5q0 -30 -19 -46t-51 -16h-338q-31 1 -50.5 23.5t-19.5 57.5v541q0 35 20 58t52 23
q36 0 54 -22t18 -59v-498h264z" />
    <glyph glyph-name="lacute" unicode="&#x13a;" horiz-adv-x="253" 
d="M87 815q-16 0 -28 13t-12 28q0 12 9 24t21 19l89 47q30 15 42 15q23 0 37.5 -16t14.5 -39q0 -13 -9.5 -28t-34.5 -25l-95 -32q-24 -6 -34 -6zM195 80q0 -41 -16.5 -60.5t-51.5 -19.5q-32 0 -51 22t-19 58v615q0 36 19 58t51 22q34 0 51 -21t17 -59v-615z" />
    <glyph glyph-name="Lcommaaccent" unicode="&#x13b;" horiz-adv-x="556" 
d="M478 124q29 0 49.5 -16.5t20.5 -45.5q0 -30 -19 -46t-51 -16h-338q-31 1 -50.5 23.5t-19.5 57.5v541q0 35 20 58t52 23q36 0 54 -22t18 -59v-498h264zM288 -52q34 0 55.5 -22t21.5 -61q0 -32 -13 -61t-33 -50q-19 -21 -36 -21q-9 0 -16 7.5t-7 15.5q0 9 12 26
q20 32 20 53q0 14 -10 14l-16 -1q-13 1 -25 15t-12 33q0 24 16 38t43 14z" />
    <glyph glyph-name="lcommaaccent" unicode="&#x13c;" horiz-adv-x="253" 
d="M195 80q0 -41 -16.5 -60.5t-51.5 -19.5q-32 0 -51 22t-19 58v615q0 36 19 58t51 22q34 0 51 -21t17 -59v-615zM120 -52q34 0 55.5 -22t21.5 -61q0 -32 -13 -61t-33 -50q-19 -21 -36 -21q-9 0 -16 7.5t-7 15.5q0 9 12 26q20 32 20 53q0 14 -10 14l-16 -1q-13 1 -25 15
t-12 33q0 24 16 38t43 14z" />
    <glyph glyph-name="Lcaron" unicode="&#x13d;" horiz-adv-x="556" 
d="M409 469q-17 2 -27.5 14.5t-9.5 33.5q3 39 3 144q0 24 17 40t40 15q23 0 40.5 -13t17.5 -46q0 -50 -33 -149q-9 -22 -20 -31t-28 -8zM478 124q29 0 49.5 -16.5t20.5 -45.5q0 -30 -19 -46t-51 -16h-338q-31 1 -50.5 23.5t-19.5 57.5v541q0 35 20 58t52 23q36 0 54 -22
t18 -59v-498h264z" />
    <glyph glyph-name="lcaron" unicode="&#x13e;" horiz-adv-x="314" 
d="M311 780q23 0 40.5 -13t17.5 -46q0 -50 -33 -149q-9 -22 -20 -31t-28 -8q-17 2 -27.5 14.5t-9.5 33.5q3 39 3 144q0 24 17 40t40 15zM195 80q0 -41 -16.5 -60.5t-51.5 -19.5q-32 0 -51 22t-19 58v615q0 36 19 58t51 22q34 0 51 -21t17 -59v-615z" />
    <glyph glyph-name="Ldot" unicode="&#x13f;" horiz-adv-x="556" 
d="M478 124q29 0 49.5 -16.5t20.5 -45.5q0 -30 -19 -46t-51 -16h-338q-31 1 -50.5 23.5t-19.5 57.5v541q0 35 20 58t52 23q36 0 54 -22t18 -59v-498h264zM420 309q-33 0 -52.5 20t-19.5 53q0 31 19.5 50.5t52.5 19.5t52.5 -19.5t19.5 -50.5q0 -34 -19 -53.5t-53 -19.5z" />
    <glyph glyph-name="ldot" unicode="&#x140;" horiz-adv-x="338" 
d="M195 80q0 -41 -16.5 -60.5t-51.5 -19.5q-32 0 -51 22t-19 58v615q0 36 19 58t51 22q34 0 51 -21t17 -59v-615zM297 391q33 0 52.5 -19.5t19.5 -50.5q0 -34 -19 -53.5t-53 -19.5q-33 0 -52.5 20t-19.5 53q0 31 19.5 50.5t52.5 19.5z" />
    <glyph glyph-name="Lslash" unicode="&#x141;" horiz-adv-x="587" 
d="M508 124q30 0 50.5 -16t20.5 -46t-19.5 -46t-51.5 -16h-337q-31 1 -51 23.5t-20 57.5v107l-11 -6q-17 -10 -32 -10q-20 0 -33 14.5t-13 31.5q0 30 32 51l57 32v321q0 35 20.5 58t51.5 23q36 0 54.5 -22.5t18.5 -58.5v-238l52 29q19 11 32 11q20 0 33.5 -16t13.5 -34
q0 -25 -33 -45l-98 -57v-148h263z" />
    <glyph glyph-name="lslash" unicode="&#x142;" horiz-adv-x="361" 
d="M304 432q21 0 33.5 -14.5t12.5 -34.5q-1 -13 -7 -25.5t-16 -17.5l-83 -49v-211q0 -41 -16.5 -60.5t-51.5 -19.5q-31 0 -50.5 22.5t-19.5 57.5v131l-21 -12q-11 -8 -28 -8q-20 0 -32.5 15t-12.5 36q0 13 8.5 25t20.5 18l65 38v372q0 36 19.5 58t50.5 22q34 0 51 -21
t17 -59v-292l36 21q16 8 24 8z" />
    <glyph glyph-name="Nacute" unicode="&#x143;" horiz-adv-x="739" 
d="M332 762q-16 0 -28 13t-12 28q0 12 9 24t21 19l89 47q30 15 42 15q23 0 37.5 -16t14.5 -39q0 -13 -9.5 -28t-34.5 -25l-95 -32q-24 -6 -34 -6zM601 703q69 0 67 -71v-557q0 -37 -18 -57t-52 -20q-29 0 -48.5 9t-41.5 40l-287 399q-6 8 -10 8q-5 0 -5 -13v-366
q0 -37 -17.5 -56t-48.5 -19q-33 0 -51.5 18.5t-18.5 56.5l3 549q0 35 21 58t60 23q27 0 46.5 -9.5t37.5 -35.5l281 -396q6 -8 11 -8t5 12v364q0 35 17 53t49 18z" />
    <glyph glyph-name="nacute" unicode="&#x144;" horiz-adv-x="576" 
d="M218 585q-16 0 -25.5 12t-9.5 25q0 10 7.5 21t18.5 17q99 60 126 79q23 13 39 13q19 0 32.5 -14.5t13.5 -35.5q0 -14 -10 -28t-26 -21q-89 -41 -137 -61q-5 -2 -14.5 -4.5t-14.5 -2.5zM317 507q103 0 154.5 -51.5t51.5 -151.5v-238q0 -29 -18.5 -47.5t-51.5 -18.5
q-32 0 -50 18.5t-18 47.5v222q0 51 -25.5 75.5t-65.5 24.5q-31 0 -55.5 -14.5t-34 -37.5t-10.5 -44v-226q0 -29 -19.5 -47.5t-51.5 -18.5q-30 0 -48.5 19t-18.5 47v369q0 28 17.5 45t48.5 17q19 0 34 -11.5t21 -29.5q26 24 63 37.5t77 13.5z" />
    <glyph glyph-name="Ncommaaccent" unicode="&#x145;" horiz-adv-x="739" 
d="M601 703q69 0 67 -71v-557q0 -37 -18 -57t-52 -20q-29 0 -48.5 9t-41.5 40l-287 399q-6 8 -10 8q-5 0 -5 -13v-366q0 -37 -17.5 -56t-48.5 -19q-33 0 -51.5 18.5t-18.5 56.5l3 549q0 35 21 58t60 23q27 0 46.5 -9.5t37.5 -35.5l281 -396q6 -8 11 -8t5 12v364q0 35 17 53
t49 18zM365 -52q34 0 55.5 -22t21.5 -61q0 -32 -13 -61t-33 -50q-19 -21 -36 -21q-9 0 -16 7.5t-7 15.5q0 9 12 26q20 32 20 53q0 14 -10 14l-16 -1q-13 1 -25 15t-12 33q0 24 16 38t43 14z" />
    <glyph glyph-name="ncommaaccent" unicode="&#x146;" horiz-adv-x="576" 
d="M317 507q103 0 154.5 -51.5t51.5 -151.5v-238q0 -29 -18.5 -47.5t-51.5 -18.5q-32 0 -50 18.5t-18 47.5v222q0 51 -25.5 75.5t-65.5 24.5q-31 0 -55.5 -14.5t-34 -37.5t-10.5 -44v-226q0 -29 -19.5 -47.5t-51.5 -18.5q-30 0 -48.5 19t-18.5 47v369q0 28 17.5 45t48.5 17
q19 0 34 -11.5t21 -29.5q26 24 63 37.5t77 13.5zM279 -52q34 0 55.5 -22t21.5 -61q0 -32 -13 -61t-33 -50q-19 -21 -36 -21q-9 0 -16 7.5t-7 15.5q0 9 12 26q20 32 20 53q0 14 -10 14l-16 -1q-13 1 -25 15t-12 33q0 24 16 38t43 14z" />
    <glyph glyph-name="Ncaron" unicode="&#x147;" horiz-adv-x="739" 
d="M236 841q-24 18 -24 40q0 17 13 30.5t32 13.5q18 0 40 -22l74 -67l73 67q24 22 41 22q19 0 31 -13t12 -31q0 -22 -24 -41q-60 -51 -107 -85q-16 -11 -26 -11q-11 0 -27 11q-43 31 -108 86zM601 703q69 0 67 -71v-557q0 -37 -18 -57t-52 -20q-29 0 -48.5 9t-41.5 40
l-287 399q-6 8 -10 8q-5 0 -5 -13v-366q0 -37 -17.5 -56t-48.5 -19q-33 0 -51.5 18.5t-18.5 56.5l3 549q0 35 21 58t60 23q27 0 46.5 -9.5t37.5 -35.5l281 -396q6 -8 11 -8t5 12v364q0 35 17 53t49 18z" />
    <glyph glyph-name="ncaron" unicode="&#x148;" horiz-adv-x="576" 
d="M133 694q-21 17 -21 40q0 17 12.5 30.5t31.5 13.5q17 0 38 -21l96 -86l95 86q21 21 37 21q19 0 32 -13t13 -31q0 -23 -22 -40q-78 -62 -130 -99q-15 -12 -26 -12q-9 0 -26 12q-37 27 -130 99zM317 507q103 0 154.5 -51.5t51.5 -151.5v-238q0 -29 -18.5 -47.5t-51.5 -18.5
q-32 0 -50 18.5t-18 47.5v222q0 51 -25.5 75.5t-65.5 24.5q-31 0 -55.5 -14.5t-34 -37.5t-10.5 -44v-226q0 -29 -19.5 -47.5t-51.5 -18.5q-30 0 -48.5 19t-18.5 47v369q0 28 17.5 45t48.5 17q19 0 34 -11.5t21 -29.5q26 24 63 37.5t77 13.5z" />
    <glyph glyph-name="napostrophe" unicode="&#x149;" horiz-adv-x="576" 
d="M-4 777q23 0 40.5 -13t17.5 -46q0 -50 -33 -149q-9 -22 -20 -31t-28 -8q-17 2 -27.5 14.5t-9.5 33.5q3 39 3 144q0 24 17 40t40 15zM317 507q103 0 154.5 -51.5t51.5 -151.5v-238q0 -29 -18.5 -47.5t-51.5 -18.5q-32 0 -50 18.5t-18 47.5v222q0 51 -25.5 75.5t-65.5 24.5
q-31 0 -55.5 -14.5t-34 -37.5t-10.5 -44v-226q0 -29 -19.5 -47.5t-51.5 -18.5q-30 0 -48.5 19t-18.5 47v369q0 28 17.5 45t48.5 17q19 0 34 -11.5t21 -29.5q26 24 63 37.5t77 13.5z" />
    <glyph glyph-name="Eng" unicode="&#x14a;" horiz-adv-x="739" 
d="M461 -247q-23 0 -40 15.5t-17 40.5q0 47 48 60q89 20 89 91q0 18 -8.5 42t-21.5 41l-291 403q-6 8 -9 8q-5 0 -5 -12v-369q0 -36 -18 -54.5t-49 -18.5q-33 0 -51 18.5t-18 54.5l3 554q0 36 24 57t57 21q27 0 46 -9t36 -33l283 -399q6 -8 11 -8t5 12v364q0 71 68 71
q65 0 65 -71v-610q0 -129 -55 -198t-152 -71z" />
    <glyph glyph-name="eng" unicode="&#x14b;" horiz-adv-x="576" 
d="M317 507q206 0 206 -197v-281q0 -54 -8.5 -106t-32 -89t-56.5 -60q-29 -21 -62 -21q-26 1 -44.5 17.5t-18.5 39.5q0 16 7 32t28 36q26 23 37.5 52t11.5 81v277q0 51 -25.5 75.5t-65.5 24.5q-31 0 -55.5 -14.5t-34 -37.5t-10.5 -44v-226q0 -29 -19.5 -47.5t-51.5 -18.5
q-30 0 -48.5 19t-18.5 47v369q0 28 17.5 45t48.5 17q18 0 33 -10.5t21 -28.5q27 23 64.5 36t76.5 13z" />
    <glyph glyph-name="Omacron" unicode="&#x14c;" horiz-adv-x="776" 
d="M235 831q0 44 44 44h218q18 0 31.5 -13t13.5 -31t-13.5 -31.5t-31.5 -13.5h-218q-18 0 -31 12t-13 33zM388 -11q-76 0 -141 24.5t-111.5 71.5t-71.5 114.5t-25 149.5t25 149.5t71.5 114.5t111 71.5t141.5 24.5q76 0 141 -24.5t111.5 -71.5t72 -114.5t25.5 -149.5
t-25.5 -149.5t-72.5 -114.5t-111.5 -71.5t-140.5 -24.5zM388 122q43 0 80.5 15t65 44.5t42.5 72t15 95.5q0 65 -23 114.5t-68.5 80.5t-111.5 32q-32 0 -67 -10t-68.5 -39.5t-50.5 -77.5t-17 -100q0 -106 56.5 -167t146.5 -60z" />
    <glyph glyph-name="omacron" unicode="&#x14d;" horiz-adv-x="582" 
d="M112 653q0 21 13.5 33.5t34.5 12.5h281q20 0 34 -13.5t14 -32.5q0 -20 -14 -34t-34 -14h-281q-20 0 -34 13.5t-14 34.5zM291 -9q-56 0 -103 17.5t-81 50.5t-52.5 81.5t-18.5 108.5q0 59 18.5 107t52.5 81.5t81 51t103 17.5t103 -17.5t81 -51t52.5 -81.5t18.5 -107
q0 -60 -18.5 -108.5t-52.5 -81.5t-81 -50.5t-103 -17.5zM292 108q55 0 85 39t30 102q0 67 -30.5 103.5t-84.5 36.5q-55 0 -86 -36.5t-31 -103.5q0 -63 30.5 -102t86.5 -39z" />
    <glyph glyph-name="Ohungarumlaut" unicode="&#x150;" horiz-adv-x="776" 
d="M288 752q-16 0 -26.5 11t-10.5 28t19 36l73 74q20 21 43 21q20 0 33 -14.5t13 -32.5q0 -10 -7.5 -22t-18.5 -21l-81 -64q-21 -16 -37 -16zM483 752q-16 0 -26 11t-10 28t19 36l73 74q18 21 43 21q20 0 33 -14.5t13 -32.5q0 -10 -7.5 -22t-18.5 -21l-81 -64
q-21 -16 -38 -16zM388 -11q-76 0 -141 24.5t-111.5 71.5t-71.5 114.5t-25 149.5t25 149.5t71.5 114.5t111 71.5t141.5 24.5q76 0 141 -24.5t111.5 -71.5t72 -114.5t25.5 -149.5t-25.5 -149.5t-72.5 -114.5t-111.5 -71.5t-140.5 -24.5zM388 122q43 0 80.5 15t65 44.5t42.5 72
t15 95.5q0 65 -23 114.5t-68.5 80.5t-111.5 32q-32 0 -67 -10t-68.5 -39.5t-50.5 -77.5t-17 -100q0 -106 56.5 -167t146.5 -60z" />
    <glyph glyph-name="ohungarumlaut" unicode="&#x151;" horiz-adv-x="582" 
d="M198 563q-12 -1 -22.5 6t-12.5 19q-2 13 10 32l86 131q16 24 38 29q19 3 35 -11t17 -30q2 -10 -2.5 -22.5t-14.5 -22.5q-26 -30 -107 -114q-15 -15 -27 -17zM395 563q-12 -1 -23 6t-12 19q-3 12 8 32q18 24 87 131q15 24 38 29q19 3 34 -10.5t18 -30.5q2 -10 -2.5 -22.5
t-13.5 -22.5q-42 -48 -108 -114q-14 -14 -26 -17zM291 -9q-56 0 -103 17.5t-81 50.5t-52.5 81.5t-18.5 108.5q0 59 18.5 107t52.5 81.5t81 51t103 17.5t103 -17.5t81 -51t52.5 -81.5t18.5 -107q0 -60 -18.5 -108.5t-52.5 -81.5t-81 -50.5t-103 -17.5zM292 108q55 0 85 39
t30 102q0 67 -30.5 103.5t-84.5 36.5q-55 0 -86 -36.5t-31 -103.5q0 -63 30.5 -102t86.5 -39z" />
    <glyph glyph-name="OE" unicode="&#x152;" horiz-adv-x="1097" 
d="M1006 117q24 0 40 -16.5t16 -41.5q0 -27 -13.5 -43t-42.5 -16h-393q-17 0 -31.5 8t-21.5 21q-72 -36 -174 -36q-76 0 -140.5 24.5t-110.5 71.5t-71 115.5t-25 151.5q0 84 25 151t70.5 112.5t109.5 69t140 23.5q102 0 175 -41q7 14 22 23t32 9h388q25 0 40 -16.5t15 -43.5
q0 -31 -13.5 -46.5t-41.5 -15.5h-307v-200h297q23 0 38.5 -15.5t15.5 -39.5q0 -25 -14.5 -39.5t-41.5 -14.5h-295v-155h312zM385 118q28 0 58.5 4.5t58 17.5t50.5 34v310l-1 2q-20 36 -43.5 58t-54.5 33t-76 11q-43 0 -80 -15t-64 -44t-42 -72.5t-15 -98.5q0 -58 15 -103.5
t43 -76t66.5 -45.5t84.5 -15z" />
    <glyph glyph-name="oe" unicode="&#x153;" horiz-adv-x="922" 
d="M659 510q52 0 94 -16t72 -46.5t45.5 -75.5t15.5 -102q0 -25 -3 -46q-3 -18 -13.5 -28t-33.5 -10l-283 1q13 -40 45 -61t76 -21q22 0 47.5 7t40.5 16q17 10 36 10q25 0 38.5 -16t13.5 -36q0 -14 -7.5 -27.5t-31.5 -29.5q-27 -18 -66.5 -28t-79.5 -10q-55 0 -103 19t-81 54
q-34 -35 -83 -54t-107 -19q-56 0 -103 17.5t-81 50.5t-52.5 81.5t-18.5 108.5q0 59 18.5 107t52.5 81.5t81 51t103 17.5t104.5 -18t81.5 -52q32 35 79.5 54.5t102.5 19.5zM657 391q-34 0 -59.5 -14.5t-37.5 -40.5t-15 -52h216q-2 51 -28.5 79t-75.5 28zM292 108q55 0 85 39
t30 102q0 67 -30.5 103.5t-84.5 36.5q-55 0 -86 -36.5t-31 -103.5q0 -63 30.5 -102t86.5 -39z" />
    <glyph glyph-name="Racute" unicode="&#x154;" horiz-adv-x="677" 
d="M281 762q-16 0 -28 13t-12 28q0 12 9 24t21 19l89 47q30 15 42 15q23 0 37.5 -16t14.5 -39q0 -13 -9.5 -28t-34.5 -25l-95 -32q-24 -6 -34 -6zM623 106q13 -20 13 -42q0 -29 -21 -46.5t-47 -17.5q-23 0 -40.5 10.5t-38.5 49.5l-49 86q-15 28 -41.5 48t-57.5 20h-129v-145
q0 -33 -18.5 -51t-52.5 -18q-33 0 -52 18.5t-19 50.5v562q0 62 71 70h1q101 8 193 8q145 0 219 -61.5t74 -176.5q0 -71 -33 -122.5t-99 -79.5q15 -4 32 -18t42 -55zM318 327q85 0 130.5 33t45.5 99q0 60 -41.5 93t-124.5 33q-66 0 -116 -3v-255h106z" />
    <glyph glyph-name="racute" unicode="&#x155;" horiz-adv-x="401" 
d="M140 585q-16 0 -25.5 12t-9.5 25q0 10 7.5 21t18.5 17q99 60 126 79q23 13 39 13q19 0 32.5 -14.5t13.5 -35.5q0 -14 -10 -28t-26 -21q-89 -41 -137 -61q-5 -2 -14.5 -4.5t-14.5 -2.5zM361 494q14 -7 24.5 -21.5t10.5 -34.5q0 -29 -16 -45.5t-38 -16.5q-7 0 -25 5t-34 5
q-17 0 -37.5 -9t-36 -33.5t-16.5 -54.5v-214q0 -35 -19 -55t-51 -20q-31 0 -49 20t-18 55v354q0 33 18 52.5t48 19.5q22 0 38.5 -14.5t21.5 -38.5q21 27 49.5 43.5t60.5 16.5q44 0 69 -14z" />
    <glyph glyph-name="Rcommaaccent" unicode="&#x156;" horiz-adv-x="677" 
d="M623 106q13 -20 13 -42q0 -29 -21 -46.5t-47 -17.5q-23 0 -40.5 10.5t-38.5 49.5l-49 86q-15 28 -41.5 48t-57.5 20h-129v-145q0 -33 -18.5 -51t-52.5 -18q-33 0 -52 18.5t-19 50.5v562q0 62 71 70h1q101 8 193 8q145 0 219 -61.5t74 -176.5q0 -71 -33 -122.5t-99 -79.5
q15 -4 32 -18t42 -55zM318 327q85 0 130.5 33t45.5 99q0 60 -41.5 93t-124.5 33q-66 0 -116 -3v-255h106zM325 -52q34 0 55.5 -22t21.5 -61q0 -32 -13 -61t-33 -50q-19 -21 -36 -21q-9 0 -16 7.5t-7 15.5q0 9 12 26q20 32 20 53q0 14 -10 14l-16 -1q-13 1 -25 15t-12 33
q0 24 16 38t43 14z" />
    <glyph glyph-name="rcommaaccent" unicode="&#x157;" horiz-adv-x="401" 
d="M361 494q14 -7 24.5 -21.5t10.5 -34.5q0 -29 -16 -45.5t-38 -16.5q-7 0 -25 5t-34 5q-17 0 -37.5 -9t-36 -33.5t-16.5 -54.5v-214q0 -35 -19 -55t-51 -20q-31 0 -49 20t-18 55v354q0 33 18 52.5t48 19.5q22 0 38.5 -14.5t21.5 -38.5q21 27 49.5 43.5t60.5 16.5
q44 0 69 -14zM124 -52q34 0 55.5 -22t21.5 -61q0 -32 -13 -61t-33 -50q-19 -21 -36 -21q-9 0 -16 7.5t-7 15.5q0 9 12 26q20 32 20 53q0 14 -10 14l-16 -1q-13 1 -25 15t-12 33q0 24 16 38t43 14z" />
    <glyph glyph-name="Rcaron" unicode="&#x158;" horiz-adv-x="677" 
d="M185 841q-24 18 -24 40q0 17 13 30.5t32 13.5q18 0 40 -22l74 -67l73 67q24 22 41 22q19 0 31 -13t12 -31q0 -22 -24 -41q-60 -51 -107 -85q-16 -11 -26 -11q-11 0 -27 11q-43 31 -108 86zM623 106q13 -20 13 -42q0 -29 -21 -46.5t-47 -17.5q-23 0 -40.5 10.5t-38.5 49.5
l-49 86q-15 28 -41.5 48t-57.5 20h-129v-145q0 -33 -18.5 -51t-52.5 -18q-33 0 -52 18.5t-19 50.5v562q0 62 71 70h1q101 8 193 8q145 0 219 -61.5t74 -176.5q0 -71 -33 -122.5t-99 -79.5q15 -4 32 -18t42 -55zM318 327q85 0 130.5 33t45.5 99q0 60 -41.5 93t-124.5 33
q-66 0 -116 -3v-255h106z" />
    <glyph glyph-name="rcaron" unicode="&#x159;" horiz-adv-x="401" 
d="M210 583q-9 0 -26 12q-37 27 -130 99q-21 17 -21 40q0 17 12.5 30.5t31.5 13.5q17 0 38 -21l96 -86l95 86q21 21 37 21q19 0 32 -13t13 -31q0 -23 -22 -40q-78 -62 -130 -99q-15 -12 -26 -12zM361 494q14 -7 24.5 -21.5t10.5 -34.5q0 -29 -16 -45.5t-38 -16.5q-7 0 -25 5
t-34 5q-17 0 -37.5 -9t-36 -33.5t-16.5 -54.5v-214q0 -35 -19 -55t-51 -20q-31 0 -49 20t-18 55v354q0 33 18 52.5t48 19.5q22 0 38.5 -14.5t21.5 -38.5q21 27 49.5 43.5t60.5 16.5q44 0 69 -14z" />
    <glyph glyph-name="Sacute" unicode="&#x15a;" horiz-adv-x="655" 
d="M282 762q-16 0 -28 13t-12 28q0 12 9 24t21 19l89 47q30 15 42 15q23 0 37.5 -16t14.5 -39q0 -13 -9.5 -28t-34.5 -25l-95 -32q-24 -6 -34 -6zM602 187q0 -89 -71.5 -142.5t-196.5 -53.5q-73 0 -132 17t-98 45q-42 30 -42 68q0 24 16.5 42.5t41.5 18.5q6 0 17.5 -2.5
t53.5 -22.5q34 -17 70.5 -27t82.5 -10q27 0 56 4.5t47 18t18 33.5q0 10 -6 20.5t-22 20t-38 15.5t-102 23t-124 34.5t-74.5 42.5t-48.5 62t-18 87q0 54 21 98t60 74.5t94 46.5t120 16q69 0 125.5 -17.5t94 -47t56.5 -65.5t19 -73q0 -29 -16.5 -48t-48.5 -19q-21 0 -38.5 8
t-28.5 38q-15 48 -56 71t-111 23q-78 0 -118 -25.5t-40 -70.5q0 -36 31.5 -62.5t129.5 -47t132.5 -31.5t60 -24.5t44 -32.5t29 -45.5t10.5 -59.5z" />
    <glyph glyph-name="sacute" unicode="&#x15b;" horiz-adv-x="500" 
d="M175 585q-16 0 -25.5 12t-9.5 25q0 10 7.5 21t18.5 17q99 60 126 79q23 13 39 13q19 0 32.5 -14.5t13.5 -35.5q0 -14 -10 -28t-26 -21q-89 -41 -137 -61q-5 -2 -14.5 -4.5t-14.5 -2.5zM253 -6q-100 0 -166 45q-17 12 -28 25.5t-11 32.5q0 23 15 38t37 15q5 0 14.5 -2
t33.5 -15q55 -34 118 -34q32 0 50.5 8t18.5 21q0 14 -17.5 22t-64.5 16.5t-67 13.5q-77 20 -113.5 59t-36.5 103q0 74 59 120.5t163 46.5q41 0 80 -9.5t70 -32t47 -52.5q15 -24 15 -47q0 -26 -15.5 -42t-38.5 -16q-29 0 -52 32q-1 2 -6.5 9t-15 16.5t-24.5 16.5t-32.5 10
t-39.5 3q-45 0 -67 -14t-22 -37q0 -22 20.5 -37.5t97 -32t106 -31t44 -30.5t21.5 -35t7 -43q0 -66 -53 -104.5t-147 -38.5z" />
    <glyph glyph-name="Scedilla" unicode="&#x15e;" horiz-adv-x="655" 
d="M323 586q-78 0 -118 -25.5t-40 -70.5q0 -36 31.5 -62.5t129.5 -47t132.5 -31.5t60 -24.5t44 -32.5t29 -45.5t10.5 -59.5q0 -54 -27 -96t-84.5 -70t-147.5 -30l-2 -19q0 -8 9 -8l26 1q22 0 46 -8.5t39 -30.5t15 -51q0 -57 -37.5 -88.5t-98.5 -31.5q-53 0 -88 15
q-13 6 -21 17t-8 24q0 15 9.5 26t19.5 11q8 1 25 -3q24 -8 59 -8q22 0 39.5 8.5t17.5 22.5q0 10 -9 18.5t-33 8.5l-61 -4q-22 0 -22 23q0 44 7 80q-103 11 -171 59q-42 30 -42 68q0 24 16.5 42.5t41.5 18.5q6 0 17.5 -2.5t53.5 -22.5q34 -17 70.5 -27t82.5 -10q27 0 56 4.5
t47 18t18 33.5q0 10 -6 20.5t-22 20t-38 15.5t-102 23t-124 34.5t-74.5 42.5t-48.5 62t-18 87q0 54 21 98t60 74.5t94 46.5t120 16q69 0 125.5 -17.5t94 -47t56.5 -65.5t19 -73q0 -29 -16.5 -48t-48.5 -19q-21 0 -38.5 8t-28.5 38q-15 48 -56 71t-111 23z" />
    <glyph glyph-name="scedilla" unicode="&#x15f;" horiz-adv-x="500" 
d="M246 397q-45 0 -67 -14t-22 -37q0 -22 20.5 -37.5t97 -32t106 -31t44 -30.5t21.5 -35t7 -43q0 -62 -47 -100.5t-131 -42.5q-3 -12 -3 -22q0 -8 9 -8l26 1q22 0 46 -8.5t39 -30.5t15 -51q0 -57 -37.5 -88.5t-98.5 -31.5q-53 0 -88 15q-13 6 -21 17t-8 24q0 15 9.5 26
t19.5 11q8 1 25 -3q24 -8 59 -8q22 0 39.5 8.5t17.5 22.5q0 10 -9 18.5t-33 8.5l-61 -4q-22 0 -22 23q0 36 7 83q-67 7 -119 42q-17 12 -28 25.5t-11 32.5q0 23 15 38t37 15q5 0 14.5 -2t33.5 -15q55 -34 118 -34q32 0 50.5 8t18.5 21q0 14 -17.5 22t-64.5 16.5t-67 13.5
q-77 20 -113.5 59t-36.5 103q0 74 59 120.5t163 46.5q41 0 80 -9.5t70 -32t47 -52.5q15 -24 15 -47q0 -26 -15.5 -42t-38.5 -16q-29 0 -52 32q-1 2 -6.5 9t-15 16.5t-24.5 16.5t-32.5 10t-39.5 3z" />
    <glyph glyph-name="Scaron" unicode="&#x160;" horiz-adv-x="655" 
d="M186 841q-24 18 -24 40q0 17 13 30.5t32 13.5q18 0 40 -22l74 -67l73 67q24 22 41 22q19 0 31 -13t12 -31q0 -22 -24 -41q-60 -51 -107 -85q-16 -11 -26 -11q-11 0 -27 11q-43 31 -108 86zM323 586q-78 0 -118 -25.5t-40 -70.5q0 -36 31.5 -62.5t129.5 -47t132.5 -31.5
t60 -24.5t44 -32.5t29 -45.5t10.5 -59.5q0 -89 -71.5 -142.5t-196.5 -53.5q-73 0 -132 17t-98 45q-42 30 -42 68q0 24 16.5 42.5t41.5 18.5q6 0 17.5 -2.5t53.5 -22.5q34 -17 70.5 -27t82.5 -10q27 0 56 4.5t47 18t18 33.5q0 10 -6 20.5t-22 20t-38 15.5t-102 23t-124 34.5
t-74.5 42.5t-48.5 62t-18 87q0 54 21 98t60 74.5t94 46.5t120 16q69 0 125.5 -17.5t94 -47t56.5 -65.5t19 -73q0 -29 -16.5 -48t-48.5 -19q-21 0 -38.5 8t-28.5 38q-15 48 -56 71t-111 23z" />
    <glyph glyph-name="scaron" unicode="&#x161;" horiz-adv-x="500" 
d="M89 694q-21 17 -21 40q0 17 12.5 30.5t31.5 13.5q17 0 38 -21l96 -86l95 86q21 21 37 21q19 0 32 -13t13 -31q0 -23 -22 -40q-78 -62 -130 -99q-15 -12 -26 -12q-9 0 -26 12q-37 27 -130 99zM246 397q-45 0 -67 -14t-22 -37q0 -22 20.5 -37.5t97 -32t106 -31t44 -30.5
t21.5 -35t7 -43q0 -66 -53 -104.5t-147 -38.5q-100 0 -166 45q-17 12 -28 25.5t-11 32.5q0 23 15 38t37 15q5 0 14.5 -2t33.5 -15q55 -34 118 -34q32 0 50.5 8t18.5 21q0 14 -17.5 22t-64.5 16.5t-67 13.5q-77 20 -113.5 59t-36.5 103q0 74 59 120.5t163 46.5q41 0 80 -9.5
t70 -32t47 -52.5q15 -24 15 -47q0 -26 -15.5 -42t-38.5 -16q-29 0 -52 32q-1 2 -6.5 9t-15 16.5t-24.5 16.5t-32.5 10t-39.5 3z" />
    <glyph glyph-name="Tcommaaccent" unicode="&#x162;" horiz-adv-x="581" 
d="M513 703q27 0 43.5 -17t16.5 -48q0 -63 -60 -63h-150v-494q0 -67 -49 -79q-5 -18 -5 -30q0 -8 9 -8l26 1q22 0 46 -8.5t39 -30.5t15 -51q0 -57 -37.5 -88.5t-98.5 -31.5q-53 0 -88 15q-13 6 -21 17t-8 24q0 15 9.5 26t19.5 11q8 1 25 -3q24 -8 59 -8q22 0 39.5 8.5
t17.5 22.5q0 10 -9 18.5t-33 8.5l-61 -4q-22 0 -22 23q0 55 11 101q-12 10 -19.5 28t-7.5 38v494h-153q-26 0 -42.5 17t-16.5 46q0 65 59 65h446z" />
    <glyph glyph-name="tcommaaccent" unicode="&#x163;" horiz-adv-x="427" 
d="M310 -35q22 0 46 -8.5t39 -30.5t15 -51q0 -57 -37.5 -88.5t-98.5 -31.5q-53 0 -88 15q-13 6 -21 17t-8 24q0 15 9.5 26t19.5 11q8 1 25 -3q24 -8 59 -8q22 0 39.5 8.5t17.5 22.5q0 10 -9 18.5t-33 8.5l-61 -4q-22 0 -22 23q0 49 9 92q-48 14 -74 54t-26 100v228h-49
q-21 0 -37.5 14t-16.5 38q0 14 6 26.5t19 19t29 6.5h49v51q0 33 20 54.5t50 21.5t49 -21t19 -55v-51h117q24 0 38.5 -15.5t14.5 -36.5t-14.5 -36.5t-38.5 -15.5h-117v-210q0 -28 13 -46t34 -18t41 6q8 2 19 2q18 0 30.5 -14t12.5 -39q0 -21 -12 -35t-26 -20q-33 -14 -82 -16
q-4 -13 -4 -26q0 -8 9 -8z" />
    <glyph glyph-name="Tcaron" unicode="&#x164;" horiz-adv-x="581" 
d="M154 841q-24 18 -24 40q0 17 13 30.5t32 13.5q18 0 40 -22l74 -67l73 67q24 22 41 22q19 0 31 -13t12 -31q0 -22 -24 -41q-60 -51 -107 -85q-16 -11 -26 -11q-11 0 -27 11q-43 31 -108 86zM513 703q27 0 43.5 -17t16.5 -48q0 -63 -60 -63h-150v-494q0 -41 -17.5 -61
t-55.5 -20q-31 0 -50.5 22.5t-19.5 58.5v494h-153q-26 0 -42.5 17t-16.5 46q0 65 59 65h446z" />
    <glyph glyph-name="tcaron" unicode="&#x165;" horiz-adv-x="427" 
d="M394 780q23 0 40.5 -13t17.5 -46q0 -50 -33 -149q-10 -22 -20.5 -31t-28.5 -8q-16 2 -26.5 14.5t-9.5 33.5q3 39 3 144q0 24 17 40t40 15zM366 492q24 0 38.5 -15.5t14.5 -36.5t-14.5 -36.5t-38.5 -15.5h-117v-210q0 -28 13 -46t34 -18t41 6q8 2 19 2q18 0 30.5 -14
t12.5 -39q0 -21 -12 -35t-26 -20q-37 -16 -91 -16q-76 0 -117.5 42t-41.5 120v228h-49q-21 0 -37.5 14t-16.5 38q0 14 6 26.5t19 19t29 6.5h49v51q0 33 20 54.5t50 21.5t49 -21t19 -55v-51h117z" />
    <glyph glyph-name="Tbar" unicode="&#x166;" horiz-adv-x="581" 
d="M513 703q27 0 43.5 -17t16.5 -48q0 -63 -60 -63h-150v-201h93q18 0 31 -13.5t13 -32.5q0 -18 -13 -31t-31 -13h-93v-203q0 -41 -17.5 -61t-55.5 -20q-31 0 -50.5 22.5t-19.5 58.5v203h-97q-19 0 -32 12t-13 32q0 46 45 46h97v201h-153q-26 0 -42.5 17t-16.5 46
q0 65 59 65h446z" />
    <glyph glyph-name="tbar" unicode="&#x167;" horiz-adv-x="428" 
d="M367 388h-117v-65h79q20 0 33 -12.5t13 -31.5t-13 -32t-33 -13h-79v-56q0 -28 13 -46t34 -18t41 6q7 2 19 2q18 0 30.5 -14t12.5 -39q0 -21 -12 -35t-26 -20q-37 -16 -91 -16q-76 0 -117.5 42t-41.5 120v74h-32q-19 0 -32 12t-13 33q0 44 45 44h32v65h-49q-21 0 -37.5 14
t-16.5 38q0 14 5.5 26.5t19 19t29.5 6.5h49v51q0 33 20 54.5t50 21.5t49 -21t19 -55v-51h117q23 0 38 -15.5t15 -36.5t-15 -36.5t-38 -15.5z" />
    <glyph glyph-name="Utilde" unicode="&#x168;" horiz-adv-x="735" 
d="M243 770q-19 0 -31.5 13t-11.5 33q0 25 16.5 46.5t38 30t38.5 8.5q18 0 35.5 -6t47.5 -21.5t44 -15.5q18 0 29 14q13 20 34 20q17 0 29 -13t11 -32q-1 -15 -10.5 -33t-32 -31t-47.5 -13q-18 0 -36 6t-48 22t-45 16q-18 0 -27 -20q-10 -24 -34 -24zM590 703q32 0 53 -22.5
t21 -56.5v-327q0 -76 -21 -134t-60.5 -96.5t-95.5 -57.5t-123 -19q-66 0 -120.5 19t-93 57.5t-59.5 97t-21 133.5v327q0 34 21.5 56.5t53.5 22.5q33 0 50.5 -22t17.5 -57v-328q0 -178 152 -178q78 0 117 43.5t39 133.5v329q0 22 11 42t27 28.5t31 8.5z" />
    <glyph glyph-name="utilde" unicode="&#x169;" horiz-adv-x="558" 
d="M139 594q-19 0 -30.5 12.5t-11.5 33.5q0 17 10.5 40.5t37.5 41.5t59 18q22 0 44 -7.5t54 -25.5t45 -18q10 0 22 2.5t24 19.5q14 19 35 19q17 0 29.5 -11t12.5 -33q0 -15 -10.5 -36t-37.5 -37.5t-58 -16.5q-21 0 -42.5 7.5t-56 26.5t-49.5 19q-16 0 -27 -8.5t-15 -22.5
q-9 -24 -35 -24zM434 501q33 0 52 -20t19 -55v-359q0 -32 -16 -50t-46 -18q-24 0 -39 14t-18 39q-24 -28 -59 -43.5t-75 -15.5q-41 0 -77 11.5t-62.5 35.5t-41.5 61.5t-15 87.5v237q0 36 17.5 55.5t48.5 19.5q35 0 52 -19.5t17 -55.5v-230q0 -33 13 -54t31.5 -27.5
t34.5 -6.5q43 0 71 28t29 75v215q0 36 16.5 55.5t47.5 19.5z" />
    <glyph glyph-name="Umacron" unicode="&#x16a;" horiz-adv-x="735" 
d="M213 831q0 44 44 44h218q18 0 31.5 -13t13.5 -31t-13.5 -31.5t-31.5 -13.5h-218q-18 0 -31 12t-13 33zM590 703q32 0 53 -22.5t21 -56.5v-327q0 -76 -21 -134t-60.5 -96.5t-95.5 -57.5t-123 -19q-66 0 -120.5 19t-93 57.5t-59.5 97t-21 133.5v327q0 34 21.5 56.5
t53.5 22.5q33 0 50.5 -22t17.5 -57v-328q0 -178 152 -178q78 0 117 43.5t39 133.5v329q0 22 11 42t27 28.5t31 8.5z" />
    <glyph glyph-name="umacron" unicode="&#x16b;" horiz-adv-x="558" 
d="M142 605q-20 0 -34 13.5t-14 34.5t13.5 33.5t34.5 12.5h281q20 0 34 -13.5t14 -32.5q0 -20 -14 -34t-34 -14h-281zM434 501q33 0 52 -20t19 -55v-359q0 -32 -16 -50t-46 -18q-24 0 -39 14t-18 39q-24 -28 -59 -43.5t-75 -15.5q-41 0 -77 11.5t-62.5 35.5t-41.5 61.5
t-15 87.5v237q0 36 17.5 55.5t48.5 19.5q35 0 52 -19.5t17 -55.5v-230q0 -33 13 -54t31.5 -27.5t34.5 -6.5q43 0 71 28t29 75v215q0 36 16.5 55.5t47.5 19.5z" />
    <glyph glyph-name="Uring" unicode="&#x16e;" horiz-adv-x="735" 
d="M367 725q-24 0 -51.5 10t-46 37t-18.5 63q0 35 18.5 61t46 36t51.5 10q37 0 65.5 -17t39.5 -42.5t11 -47.5q0 -23 -11 -49t-39.5 -43.5t-65.5 -17.5zM367 786q23 0 36 13t13 36q0 21 -13 34t-36 13t-36.5 -13t-13.5 -34q0 -22 13.5 -35.5t36.5 -13.5zM590 703
q32 0 53 -22.5t21 -56.5v-327q0 -76 -21 -134t-60.5 -96.5t-95.5 -57.5t-123 -19q-66 0 -120.5 19t-93 57.5t-59.5 97t-21 133.5v327q0 34 21.5 56.5t53.5 22.5q33 0 50.5 -22t17.5 -57v-328q0 -178 152 -178q78 0 117 43.5t39 133.5v329q0 22 11 42t27 28.5t31 8.5z" />
    <glyph glyph-name="uring" unicode="&#x16f;" horiz-adv-x="558" 
d="M284 577q-28 0 -59 11.5t-52 42.5t-21 72q0 25 12 54t44.5 48.5t75.5 19.5q58 0 95 -34t37 -88q0 -57 -36.5 -91.5t-95.5 -34.5zM284 752q-25 0 -38.5 -13.5t-13.5 -35.5q0 -24 13.5 -37.5t38.5 -13.5q24 0 37.5 13.5t13.5 37.5q0 21 -13.5 35t-37.5 14zM434 501
q33 0 52 -20t19 -55v-359q0 -32 -16 -50t-46 -18q-24 0 -39 14t-18 39q-24 -28 -59 -43.5t-75 -15.5q-41 0 -77 11.5t-62.5 35.5t-41.5 61.5t-15 87.5v237q0 36 17.5 55.5t48.5 19.5q35 0 52 -19.5t17 -55.5v-230q0 -33 13 -54t31.5 -27.5t34.5 -6.5q43 0 71 28t29 75v215
q0 36 16.5 55.5t47.5 19.5z" />
    <glyph glyph-name="Uhungarumlaut" unicode="&#x170;" horiz-adv-x="735" 
d="M265 752q-16 0 -26.5 11t-10.5 28t19 36l73 74q20 21 43 21q20 0 33 -14.5t13 -32.5q0 -10 -7.5 -22t-18.5 -21l-81 -64q-21 -16 -37 -16zM460 752q-16 0 -26 11t-10 28t19 36l73 74q18 21 43 21q20 0 33 -14.5t13 -32.5q0 -10 -7.5 -22t-18.5 -21l-81 -64
q-21 -16 -38 -16zM590 703q32 0 53 -22.5t21 -56.5v-327q0 -76 -21 -134t-60.5 -96.5t-95.5 -57.5t-123 -19q-66 0 -120.5 19t-93 57.5t-59.5 97t-21 133.5v327q0 34 21.5 56.5t53.5 22.5q33 0 50.5 -22t17.5 -57v-328q0 -178 152 -178q78 0 117 43.5t39 133.5v329
q0 22 11 42t27 28.5t31 8.5z" />
    <glyph glyph-name="uhungarumlaut" unicode="&#x171;" horiz-adv-x="558" 
d="M180 563q-12 -1 -22.5 6t-12.5 19q-2 13 10 32l86 131q16 24 38 29q19 3 35 -11t17 -30q2 -10 -2.5 -22.5t-14.5 -22.5q-26 -30 -107 -114q-15 -15 -27 -17zM527 739q2 -10 -2.5 -22.5t-13.5 -22.5q-42 -48 -108 -114q-14 -14 -26 -17q-12 -1 -23 6t-12 19q-3 12 8 32
q18 24 87 131q15 24 38 29q19 3 34 -10.5t18 -30.5zM434 501q33 0 52 -20t19 -55v-359q0 -32 -16 -50t-46 -18q-24 0 -39 14t-18 39q-24 -28 -59 -43.5t-75 -15.5q-41 0 -77 11.5t-62.5 35.5t-41.5 61.5t-15 87.5v237q0 36 17.5 55.5t48.5 19.5q35 0 52 -19.5t17 -55.5v-230
q0 -33 13 -54t31.5 -27.5t34.5 -6.5q43 0 71 28t29 75v215q0 36 16.5 55.5t47.5 19.5z" />
    <glyph glyph-name="Uogonek" unicode="&#x172;" horiz-adv-x="735" 
d="M590 703q32 0 53 -22.5t21 -56.5v-327q0 -130 -59.5 -206t-165.5 -95q-103 -71 -103 -120q0 -13 10 -23t23 -10q6 0 16.5 2.5t29.5 17.5q17 12 29 12q15 0 25.5 -10t10.5 -25q0 -29 -26 -53q-16 -16 -42.5 -25.5t-50.5 -9.5t-51 10t-44.5 36.5t-17.5 61.5q0 68 66 133
q-84 10 -137.5 51t-80 104t-26.5 149v327q0 34 21.5 56.5t53.5 22.5q33 0 50.5 -22t17.5 -57v-328q0 -178 152 -178q78 0 117 43.5t39 133.5v329q0 22 11 42t27 28.5t31 8.5z" />
    <glyph glyph-name="uogonek" unicode="&#x173;" horiz-adv-x="558" 
d="M473 -124q15 0 25.5 -10t10.5 -25q0 -29 -26 -53q-16 -16 -42.5 -25.5t-50.5 -9.5t-51 10t-44.5 36.5t-17.5 61.5q0 40 27 84.5t87 87.5q-3 6 -5 19q-24 -28 -59 -43.5t-75 -15.5q-41 0 -77 11.5t-62.5 35.5t-41.5 61.5t-15 87.5v237q0 36 17.5 55.5t48.5 19.5
q35 0 52 -19.5t17 -55.5v-230q0 -33 13 -54t31.5 -27.5t34.5 -6.5q43 0 71 28t29 75v215q0 36 16.5 55.5t47.5 19.5q33 0 52 -20t19 -55v-359q0 -16 -5.5 -30.5t-13.5 -22.5q-3 -5 -13 -13q-49 -34 -78.5 -64.5t-29.5 -59.5q0 -13 10 -23t23 -10q6 0 16.5 2.5t29.5 17.5
q17 12 29 12z" />
    <glyph glyph-name="Wcircumflex" unicode="&#x174;" horiz-adv-x="962" 
d="M367 743q-17 0 -27.5 13t-10.5 25q0 19 20 37l101 92q21 18 39 18t39 -18l104 -90q18 -15 18 -38q0 -14 -11.5 -27t-28.5 -13q-15 0 -36 16l-85 67l-87 -67q-20 -15 -35 -15zM868 703q27 0 46 -16.5t19 -48.5q0 -23 -7 -51q-53 -260 -111 -492q-13 -56 -39.5 -82
t-71.5 -26q-50 0 -75.5 24.5t-41.5 83.5q-50 182 -92 368q-6 21 -8.5 27t-5.5 6q-6 0 -15 -33q-64 -254 -97 -368q-16 -57 -41 -82.5t-68 -25.5q-44 0 -71.5 26t-40.5 82q-63 242 -114 495q-7 28 -7 44q0 30 21 49.5t51 19.5q23 0 41.5 -9.5t27.5 -29t11 -41.5
q27 -182 78 -440q6 -31 15 -31q8 0 15 31q91 374 101 418q9 42 36.5 64.5t63.5 22.5q24 0 46 -13t34.5 -34t16.5 -41q16 -77 55.5 -245.5t40.5 -172.5q7 -31 17 -31t16 31q50 253 83 452q7 69 71 69z" />
    <glyph glyph-name="wcircumflex" unicode="&#x175;" horiz-adv-x="838" 
d="M296 568q-16 0 -26.5 12.5t-10.5 24.5q0 19 19 37q61 56 99 96q21 22 44 22t44 -22q15 -17 100 -95q16 -16 16 -37q0 -12 -10 -25t-26 -13q-15 0 -36 16l-89 72l-91 -72q-21 -16 -33 -16zM744 500q30 0 49.5 -17.5t19.5 -44.5q0 -24 -7 -53q-7 -27 -34.5 -132t-51.5 -181
q-26 -85 -113 -85q-41 0 -72 19t-44 64l-60 221q-7 27 -13 27q-7 0 -14 -27l-55 -222q-24 -82 -112 -82q-32 0 -58 12t-40.5 32.5t-20.5 39.5q-62 211 -87 314q-7 29 -7 49q0 30 21 48t54 18q56 0 70 -72q7 -34 24.5 -129.5t29.5 -148.5q4 -19 14 -19q7 0 11 19l66 257
q11 42 38.5 63.5t65.5 21.5q40 0 69.5 -21.5t40.5 -63.5l65 -256q6 -20 14 -20q7 0 13 21q11 52 28 145.5t24 128.5q14 74 72 74z" />
    <glyph glyph-name="Ycircumflex" unicode="&#x176;" horiz-adv-x="644" 
d="M204 743q-17 0 -27.5 13t-10.5 25q0 19 20 37l101 92q21 18 39 18t39 -18l104 -90q18 -15 18 -38q0 -14 -11.5 -27t-28.5 -13q-15 0 -36 16l-85 67l-87 -67q-20 -15 -35 -15zM635 640q0 -28 -16 -53q-154 -241 -225 -332l1 -175q0 -38 -19.5 -59t-54.5 -21
q-32 0 -51.5 22t-19.5 58v175q-92 116 -223 328q-18 30 -18 55q0 30 20.5 49.5t50.5 19.5q42 0 66 -40q42 -74 76 -128.5t62.5 -95.5t29.5 -43q8 -13 12 -13t13 13q85 129 167 267q23 39 56 40q31 1 52 -17.5t21 -49.5z" />
    <glyph glyph-name="ycircumflex" unicode="&#x177;" horiz-adv-x="554" 
d="M163 568q-16 0 -26.5 12.5t-10.5 24.5q0 19 19 37q61 56 99 96q21 22 44 22t44 -22q15 -17 100 -95q16 -16 16 -37q0 -12 -10 -25t-26 -13q-15 0 -36 16l-89 72l-91 -72q-21 -16 -33 -16zM463 503q29 0 49.5 -16.5t20.5 -44.5q0 -17 -12 -56q-25 -78 -49 -152
t-43.5 -132.5t-36.5 -107t-19 -54.5q-32 -95 -89.5 -137.5t-145.5 -42.5q-31 0 -50 17.5t-19 43.5q0 27 17.5 44t47.5 21q44 6 67.5 17t35.5 32t21 46l3 9q-35 2 -59.5 23t-44.5 69q-106 250 -129 308q-8 20 -8 39q0 16 8.5 33.5t28 28t40.5 10.5q53 0 72 -56
q18 -53 40.5 -115.5t72.5 -189.5q1 -2 3.5 -5.5t7.5 -3.5q2 0 5.5 2t5.5 4l82 299q18 67 77 67z" />
    <glyph glyph-name="Ydieresis" unicode="&#x178;" horiz-adv-x="644" 
d="M223 764q-30 0 -49.5 19t-19.5 48q0 31 19.5 50t49.5 19t50 -19t20 -50q0 -29 -20 -48t-50 -19zM427 764q-30 0 -50 19t-20 48q0 31 19.5 50t50.5 19q30 0 49.5 -19t19.5 -50q0 -29 -19.5 -48t-49.5 -19zM635 640q0 -28 -16 -53q-154 -241 -225 -332l1 -175
q0 -38 -19.5 -59t-54.5 -21q-32 0 -51.5 22t-19.5 58v175q-92 116 -223 328q-18 30 -18 55q0 30 20.5 49.5t50.5 19.5q42 0 66 -40q42 -74 76 -128.5t62.5 -95.5t29.5 -43q8 -13 12 -13t13 13q85 129 167 267q23 39 56 40q31 1 52 -17.5t21 -49.5z" />
    <glyph glyph-name="Zacute" unicode="&#x179;" horiz-adv-x="585" 
d="M250 762q-16 0 -28 13t-12 28q0 12 9 24t21 19l89 47q30 15 42 15q23 0 37.5 -16t14.5 -39q0 -13 -9.5 -28t-34.5 -25l-95 -32q-24 -6 -34 -6zM545 59q0 -28 -17 -43.5t-44 -15.5h-371q-33 0 -51 15t-18 40q0 6 3.5 22t27.5 53q173 244 289 421q11 22 11 24q0 8 -12 8
h-279q-65 0 -65 61q0 28 17.5 43.5t47.5 15.5h396q38 0 59 -17t21 -44q0 -8 -3.5 -26t-28.5 -56q-104 -162 -288 -416q-11 -17 -11 -21q0 -7 12 -7h243q29 0 45 -15t16 -42z" />
    <glyph glyph-name="zacute" unicode="&#x17a;" horiz-adv-x="513" 
d="M188 585q-16 0 -25.5 12t-9.5 25q0 10 7.5 21t18.5 17q99 60 126 79q23 13 39 13q19 0 32.5 -14.5t13.5 -35.5q0 -14 -10 -28t-26 -21q-89 -41 -137 -61q-5 -2 -14.5 -4.5t-14.5 -2.5zM480 57q0 -24 -14.5 -40t-34.5 -16l-317 -1q-31 0 -48 16.5t-17 40.5q0 17 8 32.5
t29 39.5q134 146 206 233q8 9 8 16q0 2 -1.5 4t-10.5 2q-157 2 -211 0q-25 0 -41 15.5t-16 44.5t16.5 43t41.5 14h342q27 0 45 -17t18 -39q0 -8 -2.5 -25.5t-25.5 -44.5q-11 -13 -42 -48.5t-90 -101t-73 -81.5q-12 -13 -12 -18q0 -8 13 -8l176 -1q22 -1 37.5 -17.5
t15.5 -42.5z" />
    <glyph glyph-name="Zdotaccent" unicode="&#x17b;" horiz-adv-x="585" 
d="M289 760q-32 0 -53.5 20.5t-21.5 52.5q0 33 21.5 53.5t53.5 20.5q33 0 54.5 -20.5t21.5 -53.5q0 -32 -21.5 -52.5t-54.5 -20.5zM545 59q0 -28 -17 -43.5t-44 -15.5h-371q-33 0 -51 15t-18 40q0 6 3.5 22t27.5 53q173 244 289 421q11 22 11 24q0 8 -12 8h-279
q-65 0 -65 61q0 28 17.5 43.5t47.5 15.5h396q38 0 59 -17t21 -44q0 -8 -3.5 -26t-28.5 -56q-104 -162 -288 -416q-11 -17 -11 -21q0 -7 12 -7h243q29 0 45 -15t16 -42z" />
    <glyph glyph-name="zdotaccent" unicode="&#x17c;" horiz-adv-x="513" 
d="M257 578q-35 0 -57.5 21.5t-22.5 53.5q0 36 22.5 58t57.5 22t57.5 -22t22.5 -58q0 -32 -23 -53.5t-57 -21.5zM480 57q0 -24 -14.5 -40t-34.5 -16l-317 -1q-31 0 -48 16.5t-17 40.5q0 17 8 32.5t29 39.5q134 146 206 233q8 9 8 16q0 2 -1.5 4t-10.5 2q-157 2 -211 0
q-25 0 -41 15.5t-16 44.5t16.5 43t41.5 14h342q27 0 45 -17t18 -39q0 -8 -2.5 -25.5t-25.5 -44.5q-11 -13 -42 -48.5t-90 -101t-73 -81.5q-12 -13 -12 -18q0 -8 13 -8l176 -1q22 -1 37.5 -17.5t15.5 -42.5z" />
    <glyph glyph-name="Zcaron" unicode="&#x17d;" horiz-adv-x="585" 
d="M154 841q-24 18 -24 40q0 17 13 30.5t32 13.5q18 0 40 -22l74 -67l73 67q24 22 41 22q19 0 31 -13t12 -31q0 -22 -24 -41q-60 -51 -107 -85q-16 -11 -26 -11q-11 0 -27 11q-43 31 -108 86zM484 116q29 0 45 -15t16 -42q0 -28 -17 -43.5t-44 -15.5h-371q-33 0 -51 15
t-18 40q0 6 3.5 22t27.5 53q173 244 289 421q11 22 11 24q0 8 -12 8h-279q-65 0 -65 61q0 28 17.5 43.5t47.5 15.5h396q38 0 59 -17t21 -44q0 -8 -3.5 -26t-28.5 -56q-104 -162 -288 -416q-11 -17 -11 -21q0 -7 12 -7h243z" />
    <glyph glyph-name="zcaron" unicode="&#x17e;" horiz-adv-x="513" 
d="M102 694q-21 17 -21 40q0 17 12.5 30.5t31.5 13.5q17 0 38 -21l96 -86l95 86q21 21 37 21q19 0 32 -13t13 -31q0 -23 -22 -40q-78 -62 -130 -99q-15 -12 -26 -12q-9 0 -26 12q-37 27 -130 99zM427 117q22 -1 37.5 -17.5t15.5 -42.5q0 -24 -14.5 -40t-34.5 -16l-317 -1
q-31 0 -48 16.5t-17 40.5q0 17 8 32.5t29 39.5q134 146 206 233q8 9 8 16q0 2 -1.5 4t-10.5 2q-157 2 -211 0q-25 0 -41 15.5t-16 44.5t16.5 43t41.5 14h342q27 0 45 -17t18 -39q0 -8 -2.5 -25.5t-25.5 -44.5q-11 -13 -42 -48.5t-90 -101t-73 -81.5q-12 -13 -12 -18
q0 -8 13 -8z" />
    <glyph glyph-name="florin" unicode="&#x192;" horiz-adv-x="542" 
d="M465 731q31 0 48.5 -14.5t17.5 -40.5q0 -21 -14 -35.5t-38 -15.5q-58 -1 -89.5 -21t-43.5 -67l-20 -73h96q19 0 33.5 -13.5t14.5 -33.5t-14 -33t-34 -13h-120l-62 -247q-30 -117 -96 -161q-27 -20 -53 -20q-18 0 -30 11.5t-13 27.5q0 10 3.5 19.5t15 20t14.5 13.5
q6 5 19 18.5t22.5 34.5t24.5 75l52 208h-46q-18 0 -34 13.5t-16 32.5q0 20 15.5 33.5t34.5 13.5h69l26 105q41 162 217 162z" />
    <glyph glyph-name="uni01EA" unicode="&#x1ea;" horiz-adv-x="776" 
d="M466 -4q-57 -41 -79 -69t-22 -50q0 -13 10 -23t23 -10q6 0 16.5 2.5t29.5 17.5q17 12 29 12q15 0 25.5 -10t10.5 -25q0 -29 -26 -53q-16 -16 -42.5 -25.5t-50.5 -9.5t-51 10t-44.5 36.5t-17.5 61.5q0 67 64 131q-67 7 -123 34.5t-96 73.5t-61.5 109.5t-21.5 139.5
q0 82 25 149.5t71.5 114.5t111 71.5t141.5 24.5q76 0 141 -24.5t111.5 -71.5t72 -114.5t25.5 -149.5q0 -71 -19.5 -131.5t-55.5 -106t-86.5 -75t-110.5 -40.5zM185 349q0 -106 56.5 -167t146.5 -60q43 0 80.5 15t65 44.5t42.5 72t15 95.5q0 65 -23 114.5t-68.5 80.5
t-111.5 32q-32 0 -67 -10t-68.5 -39.5t-50.5 -77.5t-17 -100z" />
    <glyph glyph-name="uni01EB" unicode="&#x1eb;" horiz-adv-x="582" 
d="M375 2q-57 -41 -79 -69t-22 -50q0 -13 10 -23t23 -10q6 0 16.5 2.5t29.5 17.5q17 12 29 12q15 0 25.5 -10t10.5 -25q0 -29 -26 -53q-16 -16 -42.5 -25.5t-50.5 -9.5t-51 10t-44.5 36.5t-17.5 61.5q0 66 60 127q-96 13 -153 80t-57 175q0 59 18.5 107t52.5 81.5t81 51
t103 17.5t103 -17.5t81 -51t52.5 -81.5t18.5 -107q0 -97 -46 -161t-125 -86zM175 249q0 -63 30.5 -102t86.5 -39q55 0 85 39t30 102q0 67 -30.5 103.5t-84.5 36.5q-55 0 -86 -36.5t-31 -103.5z" />
    <glyph glyph-name="AEacute" unicode="&#x1fc;" horiz-adv-x="1009" 
d="M502 762q-16 0 -28 13t-12 28q0 12 9 24t21 19l89 47q30 15 42 15q23 0 37.5 -16t14.5 -39q0 -13 -9.5 -28t-34.5 -25l-95 -32q-24 -6 -34 -6zM910 117q24 0 39.5 -16.5t15.5 -41.5q0 -26 -15 -42.5t-40 -16.5h-378q-27 0 -44.5 17t-17.5 44v103h-281l-60 -113
q-15 -28 -28 -40t-35 -12q-29 0 -49.5 20.5t-20.5 49.5q0 15 16 45l252 476q35 65 78.5 94.5t105.5 29.5q33 0 86 -11h382q25 0 40.5 -16.5t15.5 -43.5q0 -62 -56 -62h-304v-199h280q25 0 40.5 -15.5t15.5 -40.5t-15.5 -40.5t-41.5 -15.5h-279v-153h298zM253 284h217v280
q-17 5 -30 5q-18 0 -31.5 -8t-35.5 -49z" />
    <glyph glyph-name="aeacute" unicode="&#x1fd;" horiz-adv-x="847" 
d="M357 585q-16 0 -25.5 12t-9.5 25q0 10 7.5 21t18.5 17q99 60 126 79q23 13 39 13q19 0 32.5 -14.5t13.5 -35.5q0 -14 -10 -28t-26 -21q-89 -41 -137 -61q-5 -2 -14.5 -4.5t-14.5 -2.5zM590 510q105 0 165.5 -63t60.5 -177q0 -25 -3 -46q-3 -18 -13.5 -28t-33.5 -10
l-283 1q13 -40 45 -61t76 -21q22 0 47.5 7t40.5 16q17 10 36 10q26 0 39 -16t13 -36q0 -14 -7.5 -27.5t-31.5 -29.5q-26 -18 -66 -28t-80 -10q-61 0 -112.5 23t-84.5 65q-15 -22 -42 -43.5t-66 -33t-79 -11.5q-74 0 -121.5 37.5t-47.5 98.5q0 150 243 150q37 0 58 -2l1 27
q0 50 -27 74t-75 24q-60 0 -97 -49q-25 -30 -57 -30q-25 0 -39.5 14.5t-14.5 39.5q0 37 28 69.5t75 51t111 18.5q60 0 104.5 -16.5t70.5 -45.5q66 58 167 58zM587 391q-34 0 -59.5 -14.5t-37.5 -40.5t-15 -52h216q-2 51 -28.5 79t-75.5 28zM225 89q30 0 59.5 16.5t42.5 37.5
t14 37l-58 2q-65 0 -96.5 -10t-31.5 -38q0 -21 18.5 -33t51.5 -12z" />
    <glyph glyph-name="Oslashacute" unicode="&#x1fe;" horiz-adv-x="783" 
d="M351 762q-16 0 -28 13t-12 28q0 12 9 24t21 19l89 47q30 15 42 15q23 0 37.5 -16t14.5 -39q0 -13 -9.5 -28t-34.5 -25l-95 -32q-24 -6 -34 -6zM723 607l-41 -41q59 -88 59 -217q0 -82 -25.5 -149.5t-72.5 -114.5t-111.5 -71.5t-140.5 -24.5q-66 0 -124.5 19t-102.5 54
l-49 -47q-18 -17 -37 -17q-17 0 -32 15t-15 33q0 19 18 35l52 51q-59 89 -59 217q0 82 25 149.5t71.5 114.5t111.5 71.5t141 24.5q67 0 126.5 -19.5t103.5 -55.5l45 44q11 15 34 15q17 0 29 -10.5t14.5 -20.5t2.5 -14q0 -20 -23 -41zM189 349q0 -64 21 -112l307 297
q-53 42 -126 42q-32 0 -66.5 -10t-68 -39.5t-50.5 -77.5t-17 -100zM595 349q0 62 -22 112l-307 -299q50 -40 125 -40q43 0 80.5 15t65.5 44.5t43 72.5t15 95z" />
    <glyph glyph-name="oslashacute" unicode="&#x1ff;" horiz-adv-x="588" 
d="M240 585q-16 0 -25.5 12t-9.5 25q0 10 7.5 21t18.5 17q99 60 126 79q23 13 39 13q19 0 32.5 -14.5t13.5 -35.5q0 -14 -10 -28t-26 -21q-89 -41 -137 -61q-5 -2 -14.5 -4.5t-14.5 -2.5zM563 459q0 -16 -12 -27l-40 -36q37 -62 37 -147q0 -60 -18.5 -108.5t-52.5 -81.5
t-81.5 -50.5t-103.5 -17.5q-104 0 -172 57l-28 -26q-15 -15 -27 -15q-10 0 -19.5 10t-9.5 19q0 17 16 33l28 24q-42 64 -42 156q0 43 12.5 88.5t46.5 87t87 61.5t108 20q109 0 179 -62l36 32q13 11 27 11q11 0 20 -8.5t9 -19.5zM173 249q0 -35 9 -64l194 174
q-14 15 -36 23.5t-47 8.5q-55 0 -87.5 -37.5t-32.5 -104.5zM413 249q0 26 -7 54l-190 -170q30 -27 77 -27q56 0 88 38t32 105z" />
    <glyph glyph-name="Scommaaccent" unicode="&#x218;" horiz-adv-x="655" 
d="M602 187q0 -89 -71.5 -142.5t-196.5 -53.5q-73 0 -132 17t-98 45q-42 30 -42 68q0 24 16.5 42.5t41.5 18.5q6 0 17.5 -2.5t53.5 -22.5q34 -17 70.5 -27t82.5 -10q27 0 56 4.5t47 18t18 33.5q0 10 -6 20.5t-22 20t-38 15.5t-102 23t-124 34.5t-74.5 42.5t-48.5 62t-18 87
q0 54 21 98t60 74.5t94 46.5t120 16q69 0 125.5 -17.5t94 -47t56.5 -65.5t19 -73q0 -29 -16.5 -48t-48.5 -19q-21 0 -38.5 8t-28.5 38q-15 48 -56 71t-111 23q-78 0 -118 -25.5t-40 -70.5q0 -36 31.5 -62.5t129.5 -47t132.5 -31.5t60 -24.5t44 -32.5t29 -45.5t10.5 -59.5z
M315 -52q34 0 55.5 -22t21.5 -61q0 -32 -13 -61t-33 -50q-19 -21 -36 -21q-9 0 -16 7.5t-7 15.5q0 9 12 26q20 32 20 53q0 14 -10 14l-16 -1q-13 1 -25 15t-12 33q0 24 16 38t43 14z" />
    <glyph glyph-name="scommaaccent" unicode="&#x219;" horiz-adv-x="500" 
d="M253 -6q-100 0 -166 45q-17 12 -28 25.5t-11 32.5q0 23 15 38t37 15q5 0 14.5 -2t33.5 -15q55 -34 118 -34q32 0 50.5 8t18.5 21q0 14 -17.5 22t-64.5 16.5t-67 13.5q-77 20 -113.5 59t-36.5 103q0 74 59 120.5t163 46.5q41 0 80 -9.5t70 -32t47 -52.5q15 -24 15 -47
q0 -26 -15.5 -42t-38.5 -16q-29 0 -52 32q-1 2 -6.5 9t-15 16.5t-24.5 16.5t-32.5 10t-39.5 3q-45 0 -67 -14t-22 -37q0 -22 20.5 -37.5t97 -32t106 -31t44 -30.5t21.5 -35t7 -43q0 -66 -53 -104.5t-147 -38.5zM246 -52q34 0 55.5 -22t21.5 -61q0 -32 -13 -61t-33 -50
q-19 -21 -36 -21q-9 0 -16 7.5t-7 15.5q0 9 12 26q20 32 20 53q0 14 -10 14l-16 -1q-13 1 -25 15t-12 33q0 24 16 38t43 14z" />
    <glyph glyph-name="uni021A" unicode="&#x21a;" horiz-adv-x="581" 
d="M513 703q27 0 43.5 -17t16.5 -48q0 -63 -60 -63h-150v-494q0 -41 -17.5 -61t-55.5 -20q-31 0 -50.5 22.5t-19.5 58.5v494h-153q-26 0 -42.5 17t-16.5 46q0 65 59 65h446zM283 -52q34 0 55.5 -22t21.5 -61q0 -32 -13 -61t-33 -50q-19 -21 -36 -21q-9 0 -16 7.5t-7 15.5
q0 9 12 26q20 32 20 53q0 14 -10 14l-16 -1q-13 1 -25 15t-12 33q0 24 16 38t43 14z" />
    <glyph glyph-name="uni021B" unicode="&#x21b;" horiz-adv-x="427" 
d="M366 388h-117v-210q0 -28 13 -46t34 -18t41 6q8 2 19 2q18 0 30.5 -14t12.5 -39q0 -21 -12 -35t-26 -20q-37 -16 -91 -16q-76 0 -117.5 42t-41.5 120v228h-49q-21 0 -37.5 14t-16.5 38q0 14 6 26.5t19 19t29 6.5h49v51q0 33 20 54.5t50 21.5t49 -21t19 -55v-51h117
q24 0 38.5 -15.5t14.5 -36.5t-14.5 -36.5t-38.5 -15.5zM250 -52q34 0 55.5 -22t21.5 -61q0 -32 -13 -61t-33 -50q-19 -21 -36 -21q-9 0 -16 7.5t-7 15.5q0 9 12 26q20 32 20 53q0 14 -10 14l-16 -1q-13 1 -25 15t-12 33q0 24 16 38t43 14z" />
    <glyph glyph-name="uni0237" unicode="&#x237;" horiz-adv-x="252" 
d="M127 501q32 0 50 -20t18 -53v-401q0 -104 -26 -163t-75 -93q-28 -19 -59 -18q-29 1 -45 18.5t-16 44.5q0 9 3.5 20.5t29.5 40.5q26 23 38.5 55t12.5 85v411q0 34 18.5 53.5t50.5 19.5z" />
    <glyph glyph-name="uni0292" unicode="&#x292;" horiz-adv-x="567" 
d="M552 446q0 -7 -2 -23t-23 -37q-93 -93 -237 -231h18q70 0 116 -25t69.5 -66t23.5 -91q0 -36 -12.5 -74t-42.5 -69.5t-75.5 -52t-102.5 -20.5q-99 0 -182 45q-38 19 -38 55q0 24 15.5 40t33.5 16q6 0 13.5 -1.5t18 -5.5t13.5 -5q25 -11 59.5 -19t65.5 -8q21 0 47 8.5
t44.5 31.5t18.5 53q0 38 -30.5 59.5t-76.5 21.5q-49 0 -73 -2l-39 -2q-26 0 -43 17.5t-17 42.5q0 13 6.5 31.5t42.5 51.5q103 95 187 181q7 6 7 10q0 7 -9 7l-281 -1q-24 0 -40 14.5t-16 42.5q0 29 17 43.5t41 14.5l426 -1q25 0 41 -16t16 -36z" />
    <glyph glyph-name="circumflex" unicode="&#x2c6;" horiz-adv-x="521" 
d="M405 643q16 -16 16 -37q0 -12 -10 -25t-26 -13q-15 0 -36 16l-89 72l-91 -72q-21 -16 -33 -16q-16 0 -26.5 12.5t-10.5 24.5q0 19 19 37q61 56 99 96q21 22 44 22t44 -22q15 -17 100 -95z" />
    <glyph glyph-name="caron" unicode="&#x2c7;" horiz-adv-x="559" 
d="M412 778q19 0 32 -13t13 -31q0 -23 -22 -40q-78 -62 -130 -99q-15 -12 -26 -12q-9 0 -26 12q-37 27 -130 99q-21 17 -21 40q0 17 12.5 30.5t31.5 13.5q17 0 38 -21l95 -86l96 86q21 21 37 21z" />
    <glyph glyph-name="breve" unicode="&#x2d8;" horiz-adv-x="476" 
d="M238 550q-70 0 -112 35t-42 94q0 29 13 52q5 10 15 17t24 7q16 0 28.5 -10t12.5 -24q0 -9 -4 -19q-4 -12 -4 -21q0 -49 69 -49q70 0 70 49q0 6 -5 21q-4 10 -4 19q0 15 13.5 24.5t27.5 9.5q26 0 40 -24q12 -24 12 -52q0 -59 -42 -94t-112 -35z" />
    <glyph glyph-name="dotaccent" unicode="&#x2d9;" horiz-adv-x="343" 
d="M172 578q-35 0 -57.5 21.5t-22.5 53.5q0 36 22.5 58t57.5 22t57.5 -22t22.5 -58q0 -32 -23 -53.5t-57 -21.5z" />
    <glyph glyph-name="ring" unicode="&#x2da;" horiz-adv-x="464" 
d="M232 577q-28 0 -59 11.5t-52 42.5t-21 72q0 25 12 54t44.5 48.5t75.5 19.5q58 0 95 -34t37 -88q0 -57 -36.5 -91.5t-95.5 -34.5zM232 652q24 0 37.5 13.5t13.5 37.5q0 21 -13.5 35t-37.5 14q-25 0 -38.5 -13.5t-13.5 -35.5q0 -24 13.5 -37.5t38.5 -13.5z" />
    <glyph glyph-name="ogonek" unicode="&#x2db;" horiz-adv-x="424" 
d="M211 -248q-24 0 -51 10t-44.5 36.5t-17.5 61.5q0 20 10 51t45 70t97 76q18 12 33 12q14 0 22.5 -12t8.5 -22q0 -21 -20 -35q-49 -34 -78.5 -64.5t-29.5 -59.5q0 -13 10 -23t23 -10q6 0 16.5 2.5t29.5 17.5q17 12 29 12q15 0 25.5 -10t10.5 -25q0 -29 -26 -53
q-16 -16 -42.5 -25.5t-50.5 -9.5z" />
    <glyph glyph-name="tilde" unicode="&#x2dc;" horiz-adv-x="585" 
d="M148 594q-19 0 -30.5 12.5t-11.5 33.5q0 17 10.5 40.5t37.5 41.5t59 18q22 0 44 -7.5t54 -25.5t45 -18q10 0 22 2.5t24 19.5q14 19 35 19q17 0 29.5 -11t12.5 -33q0 -15 -10.5 -36t-37.5 -37.5t-58 -16.5q-21 0 -42.5 7.5t-56 26.5t-49.5 19q-16 0 -27 -8.5t-15 -22.5
q-9 -24 -35 -24z" />
    <glyph glyph-name="hungarumlaut" unicode="&#x2dd;" horiz-adv-x="608" 
d="M147 563q-12 -1 -22.5 6t-12.5 19q-2 13 10 32l86 131q16 24 38 29q19 3 35 -11t17 -30q2 -10 -2.5 -22.5t-14.5 -22.5q-26 -30 -107 -114q-15 -15 -27 -17zM344 563q-12 -1 -23 6t-12 19q-3 12 8 32q18 24 87 131q15 24 38 29q19 3 34 -10.5t18 -30.5q2 -10 -2.5 -22.5
t-13.5 -22.5q-42 -48 -108 -114q-14 -14 -26 -17z" />
    <glyph glyph-name="gravecomb" unicode="&#x300;" 
d="M-133 585q-5 0 -14.5 2.5t-14.5 4.5q-63 26 -137 61q-17 7 -27 21t-10 28q0 21 14 35.5t32 14.5t39 -13q26 -18 127 -79q11 -7 18.5 -17.5t7.5 -20.5q0 -13 -9.5 -25t-25.5 -12z" />
    <glyph glyph-name="acutecomb" unicode="&#x301;" 
d="M-301 585q-16 0 -25.5 12t-9.5 25q0 10 7.5 21t18.5 17q99 60 126 79q23 13 39 13q19 0 32.5 -14.5t13.5 -35.5q0 -14 -10 -28t-26 -21q-89 -41 -137 -61q-5 -2 -14.5 -4.5t-14.5 -2.5z" />
    <glyph glyph-name="uni0302" unicode="&#x302;" 
d="M-116 643q17 -17 17 -37q0 -12 -10.5 -25t-26.5 -13q-15 0 -36 16l-89 72l-90 -72q-21 -16 -34 -16q-16 0 -26 12.5t-10 24.5q0 19 18 37q61 56 99 96q21 22 44 22t44 -22q15 -17 100 -95z" />
    <glyph glyph-name="tildecomb" unicode="&#x303;" 
d="M-437 594q-19 0 -30.5 12.5t-11.5 33.5q0 17 10.5 40.5t37.5 41.5t59 18q22 0 44 -7.5t54 -25.5t45 -18q10 0 22 2.5t24 19.5q14 19 35 19q17 0 29.5 -11t12.5 -33q0 -15 -10.5 -36t-37.5 -37.5t-58 -16.5q-21 0 -42.5 7.5t-56 26.5t-49.5 19q-16 0 -27 -8.5t-15 -22.5
q-9 -24 -35 -24z" />
    <glyph glyph-name="uni0304" unicode="&#x304;" 
d="M-486 653q0 21 13.5 33.5t34.5 12.5h281q20 0 34 -13.5t14 -32.5q0 -20 -14 -34t-34 -14h-281q-20 0 -34 13.5t-14 34.5z" />
    <glyph glyph-name="uni0306" unicode="&#x306;" 
d="M-239 550q-70 0 -112 35t-42 94q0 29 13 52q5 10 15 17t24 7q16 0 28.5 -10t12.5 -24q0 -9 -4 -19q-4 -12 -4 -21q0 -49 69 -49q70 0 70 49q0 6 -5 21q-4 10 -4 19q0 15 13.5 24.5t27.5 9.5q26 0 40 -24q12 -24 12 -52q0 -59 -42 -94t-112 -35z" />
    <glyph glyph-name="uni0307" unicode="&#x307;" 
d="M-171 578q-35 0 -57.5 21.5t-22.5 53.5q0 36 22.5 58t57.5 22q34 0 56.5 -22t22.5 -58q0 -32 -23 -53.5t-56 -21.5z" />
    <glyph glyph-name="uni0308" unicode="&#x308;" 
d="M-413 595q-33 0 -55 21.5t-22 53.5q0 35 21.5 56.5t55.5 21.5t56 -21.5t22 -56.5q0 -32 -22 -53.5t-56 -21.5zM-160 595q-34 0 -56 21.5t-22 53.5q0 35 22 56.5t56 21.5t56 -21.5t22 -56.5q0 -32 -22.5 -53.5t-55.5 -21.5z" />
    <glyph glyph-name="uni030A" unicode="&#x30a;" 
d="M-233 577q-28 0 -59 11.5t-52 42.5t-21 72q0 25 12 54t44.5 48.5t75.5 19.5q58 0 95 -34t37 -88q0 -57 -36.5 -91.5t-95.5 -34.5zM-233 652q24 0 37.5 13.5t13.5 37.5q0 21 -13.5 35t-37.5 14q-25 0 -39 -13.5t-14 -35.5q0 -24 14 -37.5t39 -13.5z" />
    <glyph glyph-name="uni030B" unicode="&#x30b;" 
d="M-486 563q-12 -1 -22.5 6t-11.5 19q-3 10 9 32l87 131q14 24 37 29q9 1 21 -2.5t21 -15t10 -23.5q2 -10 -2.5 -22.5t-13.5 -22.5q-42 -48 -108 -114q-15 -15 -27 -17zM-289 563q-12 -1 -23 6t-12 19q-3 12 8 32q18 24 87 131q15 24 38 29q19 3 34.5 -10.5t17.5 -30.5
q2 -10 -2.5 -22.5t-13.5 -22.5q-42 -48 -108 -114q-15 -15 -26 -17z" />
    <glyph glyph-name="uni030C" unicode="&#x30c;" 
d="M-147 778q19 0 32 -13t13 -31q0 -23 -22 -40q-78 -62 -130 -99q-15 -12 -26 -12q-9 0 -26 12q-37 27 -130 99q-21 17 -21 40q0 17 12.5 30.5t31.5 13.5q17 0 38 -21l95 -86l96 86q21 21 37 21z" />
    <glyph glyph-name="uni0312" unicode="&#x312;" 
d="M-159 566q-35 0 -57 22t-22 61q0 62 46 112q21 21 37 21q9 0 16.5 -8t7.5 -16q0 -9 -12 -26q-20 -32 -20 -53q0 -14 10 -14l16 1q13 -1 25 -15.5t12 -33.5q0 -23 -16.5 -37t-42.5 -14z" />
    <glyph glyph-name="uni0326" unicode="&#x326;" 
d="M-171 -52q34 0 55.5 -22t21.5 -61q0 -32 -13 -61t-33 -50q-19 -21 -36 -21q-9 0 -16 7.5t-7 15.5q0 9 12 26q20 32 20 53q0 14 -10 14l-16 -1q-13 1 -25 15t-12 33q0 24 16 38t43 14z" />
    <glyph glyph-name="uni0327" unicode="&#x327;" 
d="M-230 11q-8 -32 -8 -39q0 -8 9 -8l27 1q46 0 73 -25.5t27 -64.5q0 -58 -39 -89t-97 -31q-54 0 -89 15q-13 6 -20.5 17t-7.5 24q0 15 9 26t19 11q8 1 26 -3q24 -8 59 -8q21 0 38.5 8.5t17.5 22.5q0 10 -9 18.5t-33 8.5l-60 -4q-23 0 -23 23q0 25 4 58t10 52z" />
    <glyph glyph-name="uni0328" unicode="&#x328;" 
d="M-297 -248q-24 0 -51 10t-44.5 36.5t-17.5 61.5q0 32 16 65.5t49.5 67t85.5 64.5q20 12 34 12t22.5 -12t8.5 -22q0 -20 -20 -35q-61 -43 -85 -72t-24 -52q0 -14 11 -23.5t23 -9.5q6 0 16 2t30 18q15 12 29 12q15 0 25.5 -10t10.5 -25q0 -30 -27 -53q-15 -15 -41 -25
t-51 -10z" />
    <glyph glyph-name="uni0335" unicode="&#x335;" 
d="M-522 328q0 46 45 46h333q18 0 31 -13.5t13 -32.5q0 -18 -13 -31t-31 -13h-333q-19 0 -32 12t-13 32z" />
    <glyph glyph-name="uni0336" unicode="&#x336;" 
d="M-100 515q0 -17 -11.5 -27t-27.5 -10h-700q-15 0 -26.5 11t-11.5 26q0 14 11.5 25t26.5 11h700q17 0 28 -8.5t11 -27.5z" />
    <glyph glyph-name="uni0338" unicode="&#x338;" 
d="M-418 172q-21 0 -33.5 14t-12.5 32q0 31 32 51l253 144q20 11 32 11q21 0 34 -15.5t13 -34.5q0 -24 -33 -45l-253 -147q-17 -10 -32 -10z" />
    <glyph glyph-name="Delta" unicode="&#x394;" horiz-adv-x="689" 
d="M667 106q10 -28 10 -38q0 -31 -17 -49.5t-43 -18.5h-1h-543q-24 0 -42 18t-18 49q0 16 10 39q96 248 186 502q18 52 53.5 80t82.5 28q46 0 80 -28t54 -80q37 -100 188 -502zM311 530q-85 -222 -155 -419h376q-55 155 -153 419q-5 14 -14.5 23t-19.5 9t-19 -8.5t-15 -23.5
z" />
    <glyph glyph-name="Omega" unicode="&#x3a9;" horiz-adv-x="863" 
d="M96 0q-26 0 -41.5 17t-15.5 43q0 27 15.5 43t41.5 16h132q18 0 18 10q0 8 -6 20t-50 45q-32 24 -60.5 59.5t-45 77t-16.5 88.5q0 55 23 108.5t68.5 95.5t105 63.5t105 25.5t62.5 4q66 0 122.5 -14.5t99.5 -40t72.5 -60t46.5 -74t20 -69t3 -39.5q0 -38 -14 -80t-45 -81.5
t-63 -63.5q-31 -22 -44 -36t-13 -29q0 -5 5.5 -7.5t13.5 -2.5h131q26 0 41.5 -16t15.5 -43q0 -26 -15.5 -43t-40.5 -17h-210q-35 0 -60 25.5t-25 62.5q0 35 15.5 71.5t71.5 84.5q66 59 86.5 98t20.5 72q0 30 -11 59.5t-37 55t-73 41.5t-114 16q-33 0 -76.5 -6.5t-83 -30
t-57.5 -60.5t-18 -75q0 -33 20 -72.5t86 -97.5q45 -38 66 -73.5t21 -82.5q0 -37 -24.5 -62.5t-59.5 -25.5h-210z" />
    <glyph glyph-name="mu" unicode="&#x3bc;" horiz-adv-x="574" 
d="M454 501q31 0 49 -19.5t18 -52.5l-1 -364q0 -31 -16.5 -48.5t-47.5 -17.5q-19 0 -34.5 12.5t-21.5 32.5q-38 -48 -117 -48q-63 0 -105 39l-1 -203q0 -76 -61 -76q-27 0 -43.5 20t-16.5 56v595q0 34 18 53.5t48 19.5q32 0 49 -19.5t17 -53.5l-1 -232q15 -88 101 -88
q84 0 99 86v236q0 34 18 53t49 19z" />
    <glyph glyph-name="pi" unicode="&#x3c0;" horiz-adv-x="552" 
d="M489 501q24 0 39 -15t15 -43q0 -59 -54 -59h-3v-323q0 -32 -13.5 -46.5t-42.5 -14.5q-24 0 -39 17t-15 44v323h-173v-154q0 -81 -15 -132t-58 -83q-24 -17 -53 -15q-22 1 -35 15.5t-13 35.5q0 7 3.5 15.5t13.5 19t12 13.5q20 25 27.5 51t7.5 75v159h-32q-23 0 -38 15.5
t-15 43.5q0 58 53 58h428z" />
    <glyph glyph-name="Wgrave" unicode="&#x1e80;" horiz-adv-x="962" 
d="M552 762q-11 0 -35 6l-95 32q-20 8 -31.5 22t-11.5 31q0 23 14 39t37 16q13 0 43 -15l88 -47q12 -7 21 -19t9 -24q0 -15 -11.5 -28t-27.5 -13zM868 703q27 0 46 -16.5t19 -48.5q0 -23 -7 -51q-53 -260 -111 -492q-13 -56 -39.5 -82t-71.5 -26q-50 0 -75.5 24.5
t-41.5 83.5q-50 182 -92 368q-6 21 -8.5 27t-5.5 6q-6 0 -15 -33q-64 -254 -97 -368q-16 -57 -41 -82.5t-68 -25.5q-44 0 -71.5 26t-40.5 82q-63 242 -114 495q-7 28 -7 44q0 30 21 49.5t51 19.5q23 0 41.5 -9.5t27.5 -29t11 -41.5q27 -182 78 -440q6 -31 15 -31q8 0 15 31
q91 374 101 418q9 42 36.5 64.5t63.5 22.5q24 0 46 -13t34.5 -34t16.5 -41q16 -77 55.5 -245.5t40.5 -172.5q7 -31 17 -31t16 31q50 253 83 452q7 69 71 69z" />
    <glyph glyph-name="wgrave" unicode="&#x1e81;" horiz-adv-x="838" 
d="M485 585q-15 0 -29 7q-63 26 -137 61q-17 7 -27 21t-10 28q0 21 13.5 35.5t32.5 14.5q18 0 39 -13q26 -18 127 -79q11 -7 18.5 -17.5t7.5 -20.5q0 -13 -10 -25t-25 -12zM237 -13q-32 0 -58 12t-40.5 32.5t-20.5 39.5q-62 211 -87 314q-7 29 -7 49q0 30 21 48t54 18
q56 0 70 -72q7 -34 24.5 -129.5t29.5 -148.5q4 -19 14 -19q7 0 11 19l66 257q11 42 38.5 63.5t65.5 21.5q40 0 69.5 -21.5t40.5 -63.5l65 -256q6 -20 14 -20q7 0 13 21q11 52 28 145.5t24 128.5q14 74 72 74q30 0 49.5 -17.5t19.5 -44.5q0 -24 -7 -53q-7 -27 -34.5 -132
t-51.5 -181q-26 -85 -113 -85q-41 0 -72 19t-44 64l-60 221q-7 27 -13 27q-7 0 -14 -27l-55 -222q-24 -82 -112 -82z" />
    <glyph glyph-name="Wacute" unicode="&#x1e82;" horiz-adv-x="962" 
d="M449 762q-16 0 -28 13t-12 28q0 12 9 24t21 19l89 47q30 15 42 15q23 0 37.5 -16t14.5 -39q0 -13 -9.5 -28t-34.5 -25l-95 -32q-24 -6 -34 -6zM868 703q27 0 46 -16.5t19 -48.5q0 -23 -7 -51q-53 -260 -111 -492q-13 -56 -39.5 -82t-71.5 -26q-50 0 -75.5 24.5
t-41.5 83.5q-50 182 -92 368q-6 21 -8.5 27t-5.5 6q-6 0 -15 -33q-64 -254 -97 -368q-16 -57 -41 -82.5t-68 -25.5q-44 0 -71.5 26t-40.5 82q-63 242 -114 495q-7 28 -7 44q0 30 21 49.5t51 19.5q23 0 41.5 -9.5t27.5 -29t11 -41.5q27 -182 78 -440q6 -31 15 -31q8 0 15 31
q91 374 101 418q9 42 36.5 64.5t63.5 22.5q24 0 46 -13t34.5 -34t16.5 -41q16 -77 55.5 -245.5t40.5 -172.5q7 -31 17 -31t16 31q50 253 83 452q7 69 71 69z" />
    <glyph glyph-name="wacute" unicode="&#x1e83;" horiz-adv-x="838" 
d="M352 585q-16 0 -25.5 12t-9.5 25q0 10 7.5 21t18.5 17q99 60 126 79q23 13 39 13q19 0 32.5 -14.5t13.5 -35.5q0 -14 -10 -28t-26 -21q-89 -41 -137 -61q-5 -2 -14.5 -4.5t-14.5 -2.5zM237 -13q-32 0 -58 12t-40.5 32.5t-20.5 39.5q-62 211 -87 314q-7 29 -7 49
q0 30 21 48t54 18q56 0 70 -72q7 -34 24.5 -129.5t29.5 -148.5q4 -19 14 -19q7 0 11 19l66 257q11 42 38.5 63.5t65.5 21.5q40 0 69.5 -21.5t40.5 -63.5l65 -256q6 -20 14 -20q7 0 13 21q11 52 28 145.5t24 128.5q14 74 72 74q30 0 49.5 -17.5t19.5 -44.5q0 -24 -7 -53
q-7 -27 -34.5 -132t-51.5 -181q-26 -85 -113 -85q-41 0 -72 19t-44 64l-60 221q-7 27 -13 27q-7 0 -14 -27l-55 -222q-24 -82 -112 -82z" />
    <glyph glyph-name="Wdieresis" unicode="&#x1e84;" horiz-adv-x="962" 
d="M386 764q-30 0 -49.5 19t-19.5 48q0 31 19.5 50t49.5 19t50 -19t20 -50q0 -29 -20 -48t-50 -19zM590 764q-30 0 -50 19t-20 48q0 31 19.5 50t50.5 19q30 0 49.5 -19t19.5 -50q0 -29 -19.5 -48t-49.5 -19zM868 703q27 0 46 -16.5t19 -48.5q0 -23 -7 -51
q-53 -260 -111 -492q-13 -56 -39.5 -82t-71.5 -26q-50 0 -75.5 24.5t-41.5 83.5q-50 182 -92 368q-6 21 -8.5 27t-5.5 6q-6 0 -15 -33q-64 -254 -97 -368q-16 -57 -41 -82.5t-68 -25.5q-44 0 -71.5 26t-40.5 82q-63 242 -114 495q-7 28 -7 44q0 30 21 49.5t51 19.5
q23 0 41.5 -9.5t27.5 -29t11 -41.5q27 -182 78 -440q6 -31 15 -31q8 0 15 31q91 374 101 418q9 42 36.5 64.5t63.5 22.5q24 0 46 -13t34.5 -34t16.5 -41q16 -77 55.5 -245.5t40.5 -172.5q7 -31 17 -31t16 31q50 253 83 452q7 69 71 69z" />
    <glyph glyph-name="wdieresis" unicode="&#x1e85;" horiz-adv-x="838" 
d="M293 595q-33 0 -55 21.5t-22 53.5q0 35 21.5 56.5t55.5 21.5t56 -21.5t22 -56.5q0 -32 -22 -53.5t-56 -21.5zM546 595q-34 0 -56 21.5t-22 53.5q0 35 22 56.5t56 21.5t56 -21.5t22 -56.5q0 -32 -22.5 -53.5t-55.5 -21.5zM237 -13q-32 0 -58 12t-40.5 32.5t-20.5 39.5
q-62 211 -87 314q-7 29 -7 49q0 30 21 48t54 18q56 0 70 -72q7 -34 24.5 -129.5t29.5 -148.5q4 -19 14 -19q7 0 11 19l66 257q11 42 38.5 63.5t65.5 21.5q40 0 69.5 -21.5t40.5 -63.5l65 -256q6 -20 14 -20q7 0 13 21q11 52 28 145.5t24 128.5q14 74 72 74q30 0 49.5 -17.5
t19.5 -44.5q0 -24 -7 -53q-7 -27 -34.5 -132t-51.5 -181q-26 -85 -113 -85q-41 0 -72 19t-44 64l-60 221q-7 27 -13 27q-7 0 -14 -27l-55 -222q-24 -82 -112 -82z" />
    <glyph glyph-name="Ygrave" unicode="&#x1ef2;" horiz-adv-x="644" 
d="M259 800q-20 8 -31.5 22t-11.5 31q0 23 14 39t37 16q13 0 43 -15l88 -47q12 -7 21 -19t9 -24q0 -15 -11.5 -28t-27.5 -13q-11 0 -35 6zM635 640q0 -28 -16 -53q-154 -241 -225 -332l1 -175q0 -38 -19.5 -59t-54.5 -21q-32 0 -51.5 22t-19.5 58v175q-92 116 -223 328
q-18 30 -18 55q0 30 20.5 49.5t50.5 19.5q42 0 66 -40q42 -74 76 -128.5t62.5 -95.5t29.5 -43q8 -13 12 -13t13 13q85 129 167 267q23 39 56 40q31 1 52 -17.5t21 -49.5z" />
    <glyph glyph-name="ygrave" unicode="&#x1ef3;" horiz-adv-x="554" 
d="M185 653q-17 7 -27 21t-10 28q0 21 13.5 35.5t32.5 14.5q18 0 39 -13q26 -18 127 -79q11 -7 18.5 -17.5t7.5 -20.5q0 -13 -10 -25t-25 -12t-29 7q-63 26 -137 61zM463 503q29 0 49.5 -16.5t20.5 -44.5q0 -17 -12 -56q-25 -78 -49 -152t-43.5 -132.5t-36.5 -107t-19 -54.5
q-32 -95 -89.5 -137.5t-145.5 -42.5q-31 0 -50 17.5t-19 43.5q0 27 17.5 44t47.5 21q44 6 67.5 17t35.5 32t21 46l3 9q-35 2 -59.5 23t-44.5 69q-106 250 -129 308q-8 20 -8 39q0 16 8.5 33.5t28 28t40.5 10.5q53 0 72 -56q18 -53 40.5 -115.5t72.5 -189.5q1 -2 3.5 -5.5
t7.5 -3.5q2 0 5.5 2t5.5 4l82 299q18 67 77 67z" />
    <glyph glyph-name="uni1EF8" unicode="&#x1ef8;" horiz-adv-x="644" 
d="M202 770q-19 0 -31.5 13t-11.5 33q0 25 16.5 46.5t38 30t38.5 8.5q18 0 35.5 -6t47.5 -21.5t44 -15.5q18 0 29 14q13 20 34 20q17 0 29 -13t11 -32q-1 -15 -10.5 -33t-32 -31t-47.5 -13q-18 0 -36 6t-48 22t-45 16q-18 0 -27 -20q-10 -24 -34 -24zM635 640q0 -28 -16 -53
q-154 -241 -225 -332l1 -175q0 -38 -19.5 -59t-54.5 -21q-32 0 -51.5 22t-19.5 58v175q-92 116 -223 328q-18 30 -18 55q0 30 20.5 49.5t50.5 19.5q42 0 66 -40q42 -74 76 -128.5t62.5 -95.5t29.5 -43q8 -13 12 -13t13 13q85 129 167 267q23 39 56 40q31 1 52 -17.5
t21 -49.5z" />
    <glyph glyph-name="uni1EF9" unicode="&#x1ef9;" horiz-adv-x="554" 
d="M143 594q-19 0 -30.5 12.5t-11.5 33.5q0 17 10.5 40.5t37.5 41.5t59 18q22 0 44 -7.5t54 -25.5t45 -18q10 0 22 2.5t24 19.5q14 19 35 19q17 0 29.5 -11t12.5 -33q0 -15 -10.5 -36t-37.5 -37.5t-58 -16.5q-21 0 -42.5 7.5t-56 26.5t-49.5 19q-16 0 -27 -8.5t-15 -22.5
q-9 -24 -35 -24zM463 503q29 0 49.5 -16.5t20.5 -44.5q0 -17 -12 -56q-25 -78 -49 -152t-43.5 -132.5t-36.5 -107t-19 -54.5q-32 -95 -89.5 -137.5t-145.5 -42.5q-31 0 -50 17.5t-19 43.5q0 27 17.5 44t47.5 21q44 6 67.5 17t35.5 32t21 46l3 9q-35 2 -59.5 23t-44.5 69
q-106 250 -129 308q-8 20 -8 39q0 16 8.5 33.5t28 28t40.5 10.5q53 0 72 -56q18 -53 40.5 -115.5t72.5 -189.5q1 -2 3.5 -5.5t7.5 -3.5q2 0 5.5 2t5.5 4l82 299q18 67 77 67z" />
    <glyph glyph-name="endash" unicode="&#x2013;" horiz-adv-x="605" 
d="M53 310q0 13 7.5 23.5t26.5 10.5h427q14 0 23 -11t9 -23q0 -10 -9.5 -20t-22.5 -10h-427q-13 0 -23.5 8t-10.5 22z" />
    <glyph glyph-name="emdash" unicode="&#x2014;" horiz-adv-x="1300" 
d="M53 310q0 13 7.5 23.5t26.5 10.5h1122q14 0 23 -11t9 -23q0 -10 -9.5 -20t-22.5 -10h-1122q-13 0 -23.5 8t-10.5 22z" />
    <glyph glyph-name="quoteleft" unicode="&#x2018;" horiz-adv-x="243" 
d="M137 465q-49 0 -73.5 31.5t-24.5 86.5q0 57 16 103t51 87q15 16 31 16q13 0 23 -8.5t10 -18.5q0 -12 -14 -30q-16 -25 -27.5 -51t-11.5 -59q0 -35 20 -35q6 0 15 3.5t16 3.5q17 0 30.5 -16.5t13.5 -41.5q0 -32 -21.5 -51.5t-53.5 -19.5z" />
    <glyph glyph-name="quoteright" unicode="&#x2019;" horiz-adv-x="239" 
d="M104 787q98 0 98 -119q0 -110 -65 -188q-17 -17 -31 -17t-24 9t-10 21q0 14 15 29q15 23 26.5 49t11.5 59q0 19 -5.5 27.5t-12.5 8.5q-6 0 -16 -3.5t-17 -3.5q-17 0 -30.5 16.5t-13.5 42.5q0 31 21.5 50t52.5 19z" />
    <glyph glyph-name="quotesinglbase" unicode="&#x201a;" horiz-adv-x="257" 
d="M119 128q97 0 97 -119q0 -110 -65 -188q-16 -17 -31 -17q-14 0 -24 9t-10 21q0 14 15 29q15 23 26.5 49t11.5 59q0 19 -5.5 27.5t-12.5 8.5q-6 0 -16 -3.5t-17 -3.5q-17 0 -30.5 16.5t-13.5 42.5q0 31 21.5 50t53.5 19z" />
    <glyph glyph-name="quotedblleft" unicode="&#x201c;" horiz-adv-x="438" 
d="M137 465q-49 0 -73.5 31.5t-24.5 86.5q0 57 16 103t51 87q15 16 31 16q13 0 23 -8.5t10 -18.5q0 -12 -14 -30q-16 -25 -27.5 -51t-11.5 -59q0 -35 20 -35q6 0 15 3.5t16 3.5q17 0 30.5 -16.5t13.5 -41.5q0 -32 -21.5 -51.5t-53.5 -19.5zM332 465q-49 0 -73.5 31.5
t-24.5 86.5q0 57 16 103t51 87q15 16 31 16q13 0 23 -8.5t10 -18.5q0 -12 -14 -30q-16 -25 -27.5 -51t-11.5 -59q0 -19 6 -27t14 -8q6 0 15 3.5t16 3.5q17 0 30.5 -16.5t13.5 -41.5q0 -32 -21.5 -51.5t-53.5 -19.5z" />
    <glyph glyph-name="quotedblright" unicode="&#x201d;" horiz-adv-x="434" 
d="M104 787q98 0 98 -119q0 -110 -65 -188q-17 -17 -31 -17t-24 9t-10 21q0 14 15 29q15 23 26.5 49t11.5 59q0 19 -5.5 27.5t-12.5 8.5q-6 0 -16 -3.5t-17 -3.5q-17 0 -30.5 16.5t-13.5 42.5q0 31 21.5 50t52.5 19zM300 787q97 0 97 -119q0 -110 -65 -188q-16 -17 -31 -17
q-14 0 -24 9t-10 21q0 14 15 29q15 23 26.5 49t11.5 59q0 19 -5.5 27.5t-12.5 8.5q-6 0 -16 -3.5t-17 -3.5q-17 0 -30.5 16.5t-13.5 42.5q0 31 21.5 50t53.5 19z" />
    <glyph glyph-name="quotedblbase" unicode="&#x201e;" horiz-adv-x="453" 
d="M118 128q98 0 98 -119q0 -110 -65 -188q-17 -17 -31 -17t-24 9t-10 21q0 14 15 29q15 23 26.5 49t11.5 59q0 19 -5.5 27.5t-12.5 8.5q-6 0 -16 -3.5t-17 -3.5q-17 0 -30.5 16.5t-13.5 42.5q0 31 21.5 50t52.5 19zM313 128q98 0 98 -119q0 -110 -65 -188q-17 -17 -31 -17
t-24 9t-10 21q0 14 15 29q15 23 26.5 49t11.5 59q0 19 -5.5 27.5t-12.5 8.5q-6 0 -16 -3.5t-17 -3.5q-17 0 -30.5 16.5t-13.5 42.5q0 31 21.5 50t52.5 19z" />
    <glyph glyph-name="dagger" unicode="&#x2020;" horiz-adv-x="639" 
d="M543 445q24 0 41 -15.5t17 -42.5q0 -29 -15.5 -43.5t-42.5 -14.5h-164v-425q0 -68 -60 -68q-27 0 -44 19t-17 49v425h-160q-25 0 -42.5 15t-17.5 43t16 43t44 15h160v125q0 30 17 48.5t44 18.5q29 0 44.5 -18t15.5 -49v-125h164z" />
    <glyph glyph-name="daggerdbl" unicode="&#x2021;" horiz-adv-x="639" 
d="M528 141q24 0 41.5 -14.5t17.5 -39.5q0 -27 -15.5 -41.5t-43.5 -14.5h-149v-127q0 -68 -60 -68q-27 0 -44 19t-17 49v127h-146q-25 0 -42.5 15t-17.5 41t16 40t44 14h146v188h-160q-25 0 -42.5 15t-17.5 43t16 43t44 15h160v125q0 30 17 48.5t44 18.5q29 0 44.5 -18
t15.5 -49v-125h164q24 0 41 -15.5t17 -42.5q0 -29 -15.5 -43.5t-42.5 -14.5h-164v-188h149z" />
    <glyph glyph-name="bullet" unicode="&#x2022;" horiz-adv-x="564" 
d="M499 310q0 92 -58 146t-158 54q-101 0 -159.5 -53.5t-58.5 -146.5q0 -92 58.5 -145t159.5 -53q100 0 158 53t58 145z" />
    <glyph glyph-name="ellipsis" unicode="&#x2026;" horiz-adv-x="821" 
d="M414 140q33 0 52.5 -19.5t19.5 -53.5q0 -33 -19.5 -52t-52.5 -19t-52 19t-19 52q0 34 19 53.5t52 19.5zM704 140q33 0 52.5 -19.5t19.5 -53.5q0 -33 -19.5 -52t-52.5 -19t-52 19t-19 52q0 34 19 53.5t52 19.5zM116 140q34 0 53 -19.5t19 -53.5q0 -33 -19 -52t-53 -19
q-33 0 -52 19t-19 52q0 34 19 53.5t52 19.5z" />
    <glyph glyph-name="perthousand" unicode="&#x2030;" horiz-adv-x="1501" 
d="M335 -1q-17 0 -30 12t-13 30q0 14 12 32l377 610q16 24 37 24q20 0 33 -13t13 -31q0 -3 -1 -7.5t-3 -9t-5 -9t-4 -5.5l-377 -608q-17 -25 -39 -25zM232 302q-92 0 -143.5 52t-51.5 146q0 93 51.5 147t143.5 54q91 0 144 -54.5t53 -146.5q0 -93 -52.5 -145.5t-144.5 -52.5
zM232 387q50 0 78 30t28 83q0 54 -28 84.5t-78 30.5t-77.5 -30t-27.5 -85q0 -53 27.5 -83t77.5 -30zM816 -4q-93 0 -145 52t-52 146q0 93 52.5 146t144.5 53t143 -53t51 -146q0 -94 -51 -146t-143 -52zM1269 -4q-92 0 -144 52t-52 146q0 93 52 146t144 53t143.5 -53
t51.5 -146q0 -94 -51 -146t-144 -52zM816 81q50 0 77.5 30t27.5 84q0 53 -28 83t-77 30t-77 -30t-28 -83q0 -54 27.5 -84t77.5 -30zM1270 81q49 0 76.5 30t27.5 84q0 53 -27.5 83t-76.5 30q-50 0 -78 -30t-28 -83q0 -54 28 -84t78 -30z" />
    <glyph glyph-name="guilsinglleft" unicode="&#x2039;" horiz-adv-x="317" 
d="M225 147q-14 0 -34 14l-88 62q-32 22 -53 41.5t-21 45.5q0 17 11 35t63 54l88 62q21 15 34 15q17 0 28.5 -12t11.5 -26q0 -24 -28 -44l-87 -60q-4 -3 -15 -11t-11 -13q0 -4 26 -22l87 -60q28 -20 28 -44q0 -14 -11.5 -25.5t-28.5 -11.5z" />
    <glyph glyph-name="guilsinglright" unicode="&#x203a;" horiz-adv-x="317" 
d="M90 147q-16 0 -27.5 11.5t-11.5 25.5q0 25 29 44l86 60q26 18 26 22q0 2 -1.5 4.5t-24.5 19.5l-86 60q-29 19 -29 44q0 14 11.5 26t27.5 12q6 0 12.5 -2t14 -7.5t8.5 -5.5l88 -62q43 -30 59 -48t16 -41q0 -22 -16 -40t-59 -47l-88 -62q-11 -7 -18.5 -10.5t-16.5 -3.5z
" />
    <glyph glyph-name="fraction" unicode="&#x2044;" horiz-adv-x="515" 
d="M64 -1q-17 0 -29.5 11.5t-12.5 30.5q0 6 1.5 11t3 8.5t3.5 7.5t3 5l377 610q16 24 38 24q20 0 33 -13t13 -31q0 -3 -1 -7.5t-3 -9t-5 -9t-4 -5.5l-377 -608q-17 -25 -40 -25z" />
    <glyph glyph-name="uni2074" unicode="&#x2074;" horiz-adv-x="469" 
d="M399 411q20 0 32.5 -10.5t12.5 -27.5q0 -18 -12.5 -29.5t-32.5 -11.5h-20v-32q0 -51 -49 -51q-47 -1 -47 51v32h-190q-70 0 -70 43q0 12 5.5 26.5t33.5 48.5l185 220q14 17 29.5 28.5t41.5 11.5q61 0 61 -73v-226h20zM148 411h135v167q0 7 -6 7q-3 0 -9 -7l-111 -135
q-18 -22 -18 -26q0 -6 9 -6z" />
    <glyph glyph-name="uni2081" unicode="&#x2081;" horiz-adv-x="318" 
d="M202 451q24 0 39.5 -18t15.5 -48v-329q0 -33 -11 -48t-37 -15q-27 0 -39.5 15.5t-12.5 47.5v229q0 12 -9 12q-4 0 -37.5 -23.5t-53.5 -23.5q-17 0 -30 9.5t-13 29.5q0 22 18 37q26 18 50 38t56 55q18 19 31.5 25.5t32.5 6.5z" />
    <glyph glyph-name="uni2082" unicode="&#x2082;" horiz-adv-x="435" 
d="M174 81q0 -4 8 -4h2t50.5 5.5t107.5 5.5q20 0 33 -11.5t13 -31.5q0 -21 -12.5 -33.5t-33.5 -12.5h-251q-37 0 -37 41q0 30 26 60t73 65q83 64 102 80.5t25.5 29.5t6.5 26q0 61 -76 61q-28 0 -49.5 -9t-32.5 -37q-4 -13 -13 -21t-31 -8q-19 0 -31 14.5t-12 33.5q0 17 6 32
q18 42 60.5 65.5t110.5 23.5q74 0 118.5 -38t44.5 -100q0 -39 -18 -74t-106 -101l-76 -53q-8 -5 -8 -9z" />
    <glyph glyph-name="uni2083" unicode="&#x2083;" horiz-adv-x="451" 
d="M395 317q0 -36 -17 -66t-42 -43q23 -11 38 -34.5t15 -51.5q0 -24 -9.5 -48t-32 -43t-58 -30.5t-82.5 -11.5q-34 0 -69.5 7.5t-60.5 19.5q-28 12 -28 45q0 16 11.5 28t25.5 12q13 0 37 -6q52 -16 85 -16q39 -1 61.5 11.5t22.5 34.5q0 17 -13 27.5t-29 12.5t-23 2l-57 -2
q-17 0 -31 12.5t-14 29.5q0 16 13.5 27t31.5 11q42 0 60 2q20 2 35.5 10.5t21.5 21.5t6 26q1 26 -20 44t-57 18q-28 0 -50.5 -7.5t-44.5 -31.5q-21 -21 -49 -21q-17 0 -29.5 12t-12.5 32q0 5 3.5 18.5t17.5 26.5q57 65 165 65q80 0 130 -42t49 -102z" />
    <glyph glyph-name="uni2084" unicode="&#x2084;" horiz-adv-x="469" 
d="M399 158q20 0 32.5 -10.5t12.5 -27.5q0 -18 -12.5 -29.5t-32.5 -11.5h-20v-32q0 -51 -49 -51q-47 -1 -47 51v32h-190q-70 0 -70 43q0 12 5.5 26.5t33.5 48.5l185 220q14 17 29.5 28.5t41.5 11.5q61 0 61 -73v-226h20zM148 158h135v167q0 7 -6 7q-3 0 -9 -7l-111 -135
q-18 -22 -18 -26q0 -6 9 -6z" />
    <glyph glyph-name="Euro" unicode="&#x20ac;" horiz-adv-x="728" 
d="M425 518q-34 0 -63.5 -9t-56 -29.5t-43.5 -56.5h200q19 0 33 -14.5t14 -33.5q0 -20 -14 -34.5t-33 -14.5h-221l-1 -19l1 -30h221q19 0 33 -14t14 -34q0 -19 -14 -33.5t-33 -14.5h-193q23 -43 64 -66.5t90 -23.5q33 0 68 7.5t78 33.5q33 15 41 17t13 2q22 0 36 -12t14 -30
q0 -37 -43 -64q-35 -24 -86.5 -38t-116.5 -14q-103 0 -176.5 50t-105.5 138h-64q-21 0 -34 13t-13 35q0 48 47 48h44l-1 32l1 17h-44q-21 0 -34 13t-13 36q0 48 47 48h59q28 93 105 144.5t189 51.5q61 0 109.5 -17t82.5 -46.5t52 -64.5q12 -24 12 -43q0 -24 -16 -38t-41 -14
t-54 35q-17 27 -39.5 47.5t-52.5 30t-62 9.5z" />
    <glyph glyph-name="trademark" unicode="&#x2122;" horiz-adv-x="910" 
d="M788 703q27 0 42 -18.5t14 -51.5l-2 -232q0 -22 -10.5 -35t-27.5 -13q-22 0 -33 12.5t-11 35.5l2 158q0 12 -4 12q-5 0 -17 -20l-64 -110q-11 -21 -23 -35.5t-32 -14.5q-14 0 -27.5 8t-31.5 44l-4.5 9t-56.5 98q-10 21 -16 21q-7 0 -7 -13v-157q0 -23 -9.5 -35.5
t-26.5 -12.5q-19 0 -30 13t-11 35v231q0 33 17.5 52t43.5 19q19 0 35.5 -7.5t34.5 -38.5l70 -119q1 -2 8.5 -14.5t13.5 -12.5q4 0 7.5 4.5t15.5 23.5l73 117q13 20 22 30t21 13.5t24 3.5zM314 703q18 0 31.5 -11.5t13.5 -31.5q0 -19 -12.5 -30t-32.5 -11h-75v-217
q0 -25 -10.5 -37t-32.5 -12q-19 0 -31 13.5t-12 35.5v217h-78q-18 0 -31.5 11.5t-13.5 29.5q0 21 12 32t33 11h239z" />
    <glyph glyph-name="partialdiff" unicode="&#x2202;" horiz-adv-x="642" 
d="M324 717q53 1 103 -15t90.5 -51.5t64 -95.5t23.5 -141q0 -218 -87 -323t-250 -100q-50 -2 -94.5 9t-77.5 34t-51 56t-18 74q0 44 19.5 81t54.5 63.5t81.5 40.5t98.5 15q67 1 117.5 -12t80.5 -38q9 52 9 82q0 73 -21 120t-59 70.5t-92 22.5q-28 0 -59 -10.5t-52 -37.5
t-25 -64q-10 -36 -25 -48t-34 -12q-30 0 -46.5 14.5t-16.5 43.5q0 50 19.5 91.5t55.5 70.5t85 44.5t106 15.5zM276 88q67 -1 112 26t45 73q0 39 -43 60.5t-100 21.5q-66 0 -109 -27t-43 -68q0 -29 20.5 -50.5t53.5 -29t64 -6.5z" />
    <glyph glyph-name="emptyset" unicode="&#x2205;" horiz-adv-x="765" 
d="M684 608q15 0 26.5 -10.5t11.5 -27.5q0 -20 -18 -34l-56 -49q55 -75 55 -177q0 -64 -23 -119t-65.5 -95t-102 -62t-128.5 -22q-60 0 -113.5 16.5t-93.5 46.5l-62 -55q-21 -16 -37 -16t-26.5 11.5t-10.5 24.5q0 20 22 38l59 52q-57 75 -57 180q0 64 22.5 119.5t65 95.5
t102 62t129.5 22q61 0 115 -17t94 -48l63 54q10 10 28 10zM160 310q0 -32 8.5 -63.5t23.5 -54.5l331 290q-55 37 -139 37q-102 0 -163 -56.5t-61 -152.5zM609 310q0 31 -8.5 62t-22.5 54l-330 -289q55 -35 136 -35q103 0 164 56.5t61 151.5z" />
    <glyph glyph-name="product" unicode="&#x220f;" horiz-adv-x="741" 
d="M606 778q31 -1 46 -19t15 -48v-874q0 -34 -15 -51t-47 -17q-26 0 -43 19.5t-17 48.5v824h-350v-824q0 -34 -15 -51t-46 -17q-26 0 -43 19t-17 49v874q0 29 17 48t43 19h472z" />
    <glyph glyph-name="summation" unicode="&#x2211;" horiz-adv-x="716" 
d="M31 705q0 32 24 52.5t63 20.5l509 -2q28 0 44 -14.5t16 -38.5q0 -32 -15.5 -48.5t-44.5 -16.5h-408q-7 0 -11.5 -3.5t-4.5 -8.5q0 -6 16 -27l230 -270q15 -17 25 -32.5t10 -39.5q0 -13 -6 -31t-32 -50q-36 -43 -116 -144t-105 -130q-18 -20 -18 -25q0 -10 25 -10h395
q28 0 44 -15t16 -42q0 -28 -16 -43t-44 -15l-509 -2q-39 -1 -63 21.5t-24 55.5q0 15 9 39.5t62 88.5l225 270q20 22 20 39t-21 40l-252 280q-43 45 -43 101z" />
    <glyph glyph-name="minus" unicode="&#x2212;" horiz-adv-x="416" 
d="M57 281q0 48 44 48h213q18 0 32 -14t14 -34t-14.5 -35t-31.5 -15h-213q-19 0 -31.5 13t-12.5 37z" />
    <glyph glyph-name="radical" unicode="&#x221a;" horiz-adv-x="574" 
d="M251 -244q-29 0 -55.5 15t-50.5 69q-22 49 -71.5 178t-69.5 174q-2 8 -2 23q0 11 6.5 23.5t21 20.5t27.5 8q19 0 32.5 -11t19.5 -27q6 -18 31.5 -93.5t43 -125.5t27.5 -76t16 -40q2 -5 7.5 -13t16.5 -8q20 0 24 18q14 62 88 429.5t86 421.5q4 38 40 44q16 1 30.5 -5.5
t21 -17.5t7.5 -22q1 -5 -1 -26q-23 -120 -93 -450.5t-94 -421.5q-24 -87 -109 -87z" />
    <glyph glyph-name="infinity" unicode="&#x221e;" horiz-adv-x="888" 
d="M656 562q79 0 130 -57t50 -153q0 -47 -13.5 -86t-38 -66t-59 -41.5t-73.5 -14.5q-66 0 -112 30.5t-81 94.5q-15 -29 -40.5 -61.5t-59.5 -50t-57.5 -21t-39.5 -3.5q-42 0 -80.5 14.5t-68 42.5t-46.5 69.5t-17 92.5t17 93t46.5 70.5t67 43t78.5 14.5q30 0 65 -9.5
t71.5 -40.5t69.5 -89l2 -4q34 68 80.5 99.5t108.5 32.5zM263 236q39 -1 75.5 23.5t76.5 79.5l-8 14q-35 63 -69.5 89.5t-77.5 27.5q-45 0 -78.5 -31.5t-33.5 -86.5q0 -28 12 -55t41.5 -44t61.5 -17zM647 245q28 0 51 17.5t31 42.5t8 47q1 46 -26 77t-66 31
q-38 0 -68.5 -20.5t-64.5 -81.5q18 -33 39 -60t45.5 -40t50.5 -13z" />
    <glyph glyph-name="integral" unicode="&#x222b;" horiz-adv-x="326" 
d="M253 777q29 0 46 -13t17 -35q0 -16 -8 -29t-31 -25q-33 -19 -47.5 -53.5t-14.5 -95.5v-528q0 -82 -22.5 -134t-69.5 -80q-28 -16 -52 -16t-38.5 12.5t-14.5 33.5q0 28 29 49q31 22 46.5 55t15.5 88v520q0 101 22 155t68 81q28 15 54 15z" />
    <glyph glyph-name="approxequal" unicode="&#x2248;" horiz-adv-x="536" 
d="M482 452q-1 -31 -20 -60.5t-44.5 -42t-47.5 -12.5q-27 0 -49.5 9.5t-61.5 36.5t-67 27q-41 0 -56 -39q-4 -9 -13.5 -15t-21.5 -6q-10 0 -21 6.5t-16 17t-5 21.5q0 32 18.5 59.5t46 38.5t51.5 11q42 0 96.5 -32.5t65.5 -36t18 -3.5q35 0 46 42q12 26 39 26q19 0 30.5 -14
t11.5 -34zM477 239q0 -20 -11 -46.5t-38 -47t-59 -20.5q-14 0 -30.5 3.5t-34 11.5t-55 31t-61.5 23q-14 0 -26.5 -6.5t-21.5 -29.5q-13 -21 -37 -21q-16 0 -28 11.5t-12 32.5q0 31 17 57.5t42.5 38.5t52.5 12q24 0 50 -10t67.5 -35.5t58.5 -25.5q32 0 46 42q9 12 17.5 17.5
t22.5 5.5q19 0 29.5 -12.5t10.5 -31.5z" />
    <glyph glyph-name="notequal" unicode="&#x2260;" horiz-adv-x="521" 
d="M431 362h-121l-37 -103h130q16 0 28.5 -13t12.5 -29q0 -17 -12.5 -29.5t-28.5 -12.5h-160l-31 -88q-5 -15 -13.5 -25.5t-25.5 -10.5q-20 0 -33.5 10.5t-13.5 26.5q0 14 6 30l20 57h-48q-22 0 -35 10.5t-13 31.5q0 42 48 42h78l36 103h-115q-23 0 -36 11.5t-13 32.5
q0 42 49 42h145l35 99q5 13 16 21.5t25 8.5q20 0 32.5 -11t12.5 -27q0 -11 -6 -27l-23 -64h91q18 0 31.5 -12.5t13.5 -29.5q0 -18 -13 -31t-32 -13z" />
    <glyph glyph-name="lessequal" unicode="&#x2264;" horiz-adv-x="534" 
d="M56 355q0 64 68 82q126 36 266 72q20 5 37 5q21 0 34.5 -15t13.5 -34q0 -43 -48 -50q-49 -11 -124 -25t-115 -22q-19 -6 -19 -13q0 -2 2 -6t17 -8q52 -11 127 -24.5t112 -20.5q19 -3 33.5 -15t14.5 -36q0 -19 -14 -34.5t-34 -15.5q-9 0 -37 7q-113 27 -266 69
q-34 9 -51 30.5t-17 53.5zM475 106q0 -22 -14 -34.5t-35 -12.5h-325q-20 0 -35.5 14t-15.5 33t15.5 32t35.5 13h325q49 0 49 -45z" />
    <glyph glyph-name="greaterequal" unicode="&#x2265;" horiz-adv-x="534" 
d="M478 355q0 -32 -17.5 -53.5t-50.5 -30.5q-153 -42 -266 -69l-16 -4t-21 -3q-20 0 -34 15.5t-14 34.5t11.5 33t35.5 18q37 7 112.5 20.5t127.5 24.5q10 2 14.5 5t4.5 9q0 7 -19 13q-41 9 -115.5 22.5t-124.5 24.5q-47 7 -47 50q0 19 13.5 34t34.5 15q16 0 37 -5
q140 -36 266 -72q68 -18 68 -82zM59 106q0 45 49 45h325q20 0 35.5 -13t15.5 -32t-15.5 -33t-35.5 -14h-325q-21 0 -35 12.5t-14 34.5z" />
    <glyph glyph-name="lozenge" unicode="&#x25ca;" horiz-adv-x="652" 
d="M327 703q29 0 51.5 -15t48.5 -48l174 -241q23 -35 23 -55q0 -19 -23 -53l-174 -239q-26 -34 -49 -49.5t-51 -15.5q-23 0 -46.5 11.5t-54.5 53.5l-175 239q-23 34 -23 53q0 20 23 55l175 241q24 33 47 48t54 15zM327 596q-16 0 -32 -25l-135 -184q-1 -3 -6.5 -12t-8 -16.5
t-2.5 -14.5q0 -4 2 -10.5t7.5 -17t7.5 -13.5l135 -184q17 -25 32 -25q3 0 10 2.5t23 22.5l132 184q18 29 18 41q0 16 -18 43l-132 184q-6 8 -14 16.5t-19 8.5z" />
    <glyph glyph-name="uniF6BE" unicode="&#xf6be;" horiz-adv-x="252" 
d="M127 501q32 0 50 -20t18 -53v-401q0 -104 -26 -163t-75 -93q-28 -19 -59 -18q-29 1 -45 18.5t-16 44.5q0 9 3.5 20.5t29.5 40.5q26 23 38.5 55t12.5 85v411q0 34 18.5 53.5t50.5 19.5z" />
    <glyph glyph-name="uniF8FF" unicode="&#xf8ff;" horiz-adv-x="1451" 
d="M691 583q0 26 18 44t43 18q26 0 44 -18t18 -44q0 -25 -18 -43t-44 -18q-25 0 -43 18t-18 43zM219 270h-119q0 173 9 314h100q9 -141 10 -314zM694 270q0 92 3 147h-61l3 -65q5 -4 15 -4q13 0 18 5v-74q-4 -6 -21.5 -10.5t-44.5 -4.5q-41 0 -62.5 17t-21.5 49l4 87h-22v79
l119 30l1 -17h178q10 -66 10 -239h-118zM328 265q-43 0 -67.5 28.5t-24.5 84.5q0 136 137 136q59 0 89.5 -30.5t31.5 -86.5v-127h-83l-8 61q-6 -32 -23.5 -49t-51.5 -17zM1090 270h-114l2 96q0 26 -15 26q-18 0 -18 -26l3 -96h-114q0 173 10 239h80q6 -46 6 -76q0 11 8 31
t21 31t26.5 15t25.5 4q30 0 47 -14t22.5 -39.5t6.5 -52.5zM1351 384q0 -39 -17.5 -68.5t-46.5 -40t-60 -10.5q-30 0 -58.5 11t-45.5 40.5t-17 67.5q0 130 122 130q62 0 92.5 -30.5t30.5 -99.5zM390 375q0 26 -23 26t-23 -26q0 -14 6 -22t17 -8q10 0 16.5 8.5t6.5 21.5z
M1251 375q0 26 -23 26q-21 0 -21 -26q0 -14 5.5 -22t15.5 -8t16.5 8.5t6.5 21.5zM428 238h104q10 -61 10 -147q0 -73 -35 -107t-114 -34q-34 0 -58.5 5t-32.5 12v83q8 -6 26.5 -11t42.5 -5q26 0 40 8.5t15 19.5q-14 -11 -49 -11q-90 0 -90 83v13h-55l3 -65q5 -4 15 -4
q13 0 18 5v-73q-4 -6 -22 -10.5t-45 -4.5q-82 0 -82 64q0 46 3 88h-18v80l117 29l-1 -17l177 -1v-119q0 -27 14 -27q17 0 17 27v119zM733 243q37 0 58.5 -29.5t21.5 -82.5q0 -136 -137 -136l1 -39h-119q0 169 10 282h78q7 -53 7 -76q5 32 26 56.5t54 24.5zM1070 129
q0 -24 -3 -37h-124q4 -7 17 -12.5t32 -5.5q36 0 56 12v-75q-8 -6 -29 -11t-49 -5q-25 0 -50.5 5.5t-48.5 21t-32.5 41t-9.5 49.5q0 64 32.5 97.5t93.5 33.5q53 0 84 -30.5t31 -83.5zM978 109q1 13 -3.5 20t-13.5 7q-10 0 -16.5 -7.5t-6.5 -19.5h40zM670 72q14 1 25.5 11
t11.5 27q0 10 -5.5 16t-14.5 6q-22 0 -22 -32q0 -14 5 -28zM1075 13q0 -9 7 -16t16 -7t15.5 7t6.5 16t-6.5 15.5t-15.5 6.5t-16 -6.5t-7 -15.5zM1080 13q0 7 5.5 12.5t12.5 5.5q6 0 11.5 -5.5t5.5 -12.5t-5.5 -12.5t-11.5 -5.5q-7 0 -12.5 5.5t-5.5 12.5zM1108 2l-6 9
q7 0 7 7t-10 7h-11v-23h5v9h5l4 -9h6zM1099 15h-6v6h5l6 -2q0 -4 -5 -4z" />
    <glyph glyph-name="Cacute.aalt" horiz-adv-x="705" 
d="M384 742q-16 0 -28.5 11.5t-12.5 27.5q0 18 17 37q25 35 58 89q8 12 21.5 21t26.5 9q22 0 37.5 -15t15.5 -36q0 -22 -21 -47q-6 -7 -22.5 -25t-28.5 -29.5t-24 -21.5q-23 -21 -39 -21zM388 709q105 0 181.5 -47.5t108.5 -121.5q11 -22 11 -40q0 -29 -22 -49t-48 -20
q-35 0 -60 38q-19 38 -43.5 62t-56.5 36.5t-76 12.5q-41 0 -77 -15t-63 -44t-42.5 -73t-15.5 -98q0 -53 15 -96.5t43 -74t65.5 -46.5t80.5 -16q34 0 75 12.5t78 46.5q23 22 54 22q24 0 41.5 -18.5t17.5 -42.5q0 -42 -59 -83q-40 -28 -93 -46.5t-114 -18.5q-74 0 -138.5 25.5
t-112 73t-73.5 115t-26 146.5q0 81 26.5 148.5t74 114.5t112 72t136.5 25z" />
    <glyph glyph-name="Nacute.aalt" horiz-adv-x="739" 
d="M358 742q-16 0 -28.5 11.5t-12.5 27.5q0 18 17 37q25 35 58 89q8 12 21.5 21t26.5 9q22 0 37.5 -15t15.5 -36q0 -22 -21 -47q-6 -7 -22.5 -25t-28.5 -29.5t-24 -21.5q-23 -21 -39 -21zM601 703q69 0 67 -71v-557q0 -37 -18 -57t-52 -20q-29 0 -48.5 9t-41.5 40l-287 399
q-6 8 -10 8q-5 0 -5 -13v-366q0 -37 -17.5 -56t-48.5 -19q-33 0 -51.5 18.5t-18.5 56.5l3 549q0 35 21 58t60 23q27 0 46.5 -9.5t37.5 -35.5l281 -396q6 -8 11 -8t5 12v364q0 35 17 53t49 18z" />
    <glyph glyph-name="Oacute.aalt" horiz-adv-x="776" 
d="M375 742q-16 0 -28.5 11.5t-12.5 27.5q0 18 17 37q25 35 58 89q8 12 21.5 21t26.5 9q22 0 37.5 -15t15.5 -36q0 -22 -21 -47q-6 -7 -22.5 -25t-28.5 -29.5t-24 -21.5q-23 -21 -39 -21zM388 -11q-76 0 -141 24.5t-111.5 71.5t-71.5 114.5t-25 149.5t25 149.5t71.5 114.5
t111 71.5t141.5 24.5q76 0 141 -24.5t111.5 -71.5t72 -114.5t25.5 -149.5t-25.5 -149.5t-72.5 -114.5t-111.5 -71.5t-140.5 -24.5zM388 122q43 0 80.5 15t65 44.5t42.5 72t15 95.5q0 65 -23 114.5t-68.5 80.5t-111.5 32q-32 0 -67 -10t-68.5 -39.5t-50.5 -77.5t-17 -100
q0 -106 56.5 -167t146.5 -60z" />
    <glyph glyph-name="Sacute.aalt" horiz-adv-x="655" 
d="M308 742q-16 0 -28.5 11.5t-12.5 27.5q0 18 17 37q25 35 58 89q8 12 21.5 21t26.5 9q22 0 37.5 -15t15.5 -36q0 -22 -21 -47q-6 -7 -22.5 -25t-28.5 -29.5t-24 -21.5q-23 -21 -39 -21zM602 187q0 -89 -71.5 -142.5t-196.5 -53.5q-73 0 -132 17t-98 45q-42 30 -42 68
q0 24 16.5 42.5t41.5 18.5q6 0 17.5 -2.5t53.5 -22.5q34 -17 70.5 -27t82.5 -10q27 0 56 4.5t47 18t18 33.5q0 10 -6 20.5t-22 20t-38 15.5t-102 23t-124 34.5t-74.5 42.5t-48.5 62t-18 87q0 54 21 98t60 74.5t94 46.5t120 16q69 0 125.5 -17.5t94 -47t56.5 -65.5t19 -73
q0 -29 -16.5 -48t-48.5 -19q-21 0 -38.5 8t-28.5 38q-15 48 -56 71t-111 23q-78 0 -118 -25.5t-40 -70.5q0 -36 31.5 -62.5t129.5 -47t132.5 -31.5t60 -24.5t44 -32.5t29 -45.5t10.5 -59.5z" />
    <glyph glyph-name="Zacute.aalt" horiz-adv-x="585" 
d="M276 742q-16 0 -28.5 11.5t-12.5 27.5q0 18 17 37q25 35 58 89q8 12 21.5 21t26.5 9q22 0 37.5 -15t15.5 -36q0 -22 -21 -47q-6 -7 -22.5 -25t-28.5 -29.5t-24 -21.5q-23 -21 -39 -21zM545 59q0 -28 -17 -43.5t-44 -15.5h-371q-33 0 -51 15t-18 40q0 6 3.5 22t27.5 53
q173 244 289 421q11 22 11 24q0 8 -12 8h-279q-65 0 -65 61q0 28 17.5 43.5t47.5 15.5h396q38 0 59 -17t21 -44q0 -8 -3.5 -26t-28.5 -56q-104 -162 -288 -416q-11 -17 -11 -21q0 -7 12 -7h243q29 0 45 -15t16 -42z" />
    <glyph glyph-name="A.ss10" horiz-adv-x="1025" 
d="M802 520q49 0 90.5 -20.5t62 -57t20.5 -74.5q0 -79 -60 -79q-20 0 -35 9t-23 33q-5 30 -28.5 52t-58.5 22q-36 0 -72 -31q4 -24 4 -37q0 -51 -23 -94.5t-65.5 -74.5t-101 -47.5t-127.5 -16.5q-75 0 -139.5 22t-111 63t-72 98.5t-25.5 124.5q0 23 8.5 49.5t31 44.5
t52.5 18q17 0 32 -6.5t48 -37.5q31 -31 78 -31q13 0 31.5 3.5t55.5 24.5q70 41 135 41q44 0 82.5 -16t64.5 -44q38 32 72 47t74 15z" />
    <glyph glyph-name="B.aalt" horiz-adv-x="601" 
d="M412 496q21 0 46.5 -7.5t48.5 -27t40.5 -53.5t17.5 -82q0 -29 -6.5 -55.5t-19 -48.5t-25 -37.5t-24 -26.5t-24.5 -23t-14 -13q-27 -24 -38.5 -38t-11.5 -29q0 -11 8.5 -26t8.5 -21q0 -11 -8.5 -19.5t-25.5 -8.5q-43 0 -102.5 22t-115.5 63.5t-93 103.5t-37 136
q0 88 45 140t109 52q44 0 77 -19l2 3q20 34 20 63q0 16 -9.5 30.5t-20.5 17.5q-71 -30 -109 -30q-47 0 -75 26.5t-28 71.5q0 24 13.5 43t35.5 19q20 0 30.5 -8.5t10.5 -20.5q0 -22 11.5 -34.5t33.5 -12.5q11 0 31 6t39 16q43 22 81 36t71 14q59 0 98 -38.5t39 -95.5
q0 -19 -13.5 -32.5t-31.5 -13.5q-17 0 -29 11t-14 26q-2 26 -18 42.5t-41 16.5q-20 0 -40 -5q11 -13 17.5 -32.5t6.5 -38.5q0 -38 -19 -67q18 5 52 5z" />
    <glyph glyph-name="C.aalt" horiz-adv-x="1026" 
d="M896 524q19 0 41 -10.5t36.5 -38t14.5 -63.5q0 -67 -25.5 -124.5t-71.5 -98.5t-111 -63t-140 -22q-68 0 -127 16.5t-101 47.5t-65 74.5t-23 94.5q0 21 4 37q-38 31 -73 31t-58.5 -22t-28.5 -52q-7 -19 -19.5 -30.5t-37.5 -11.5q-60 0 -60 79q0 38 20.5 74.5t62 57
t89.5 20.5q40 0 74.5 -15t71.5 -48q26 28 65 44.5t83 16.5q64 0 134 -41q26 -15 45 -21.5t43 -6.5q45 0 78 31q34 32 48 38t31 6z" />
    <glyph glyph-name="D.aalt" horiz-adv-x="1010" 
d="M252 13h-153q-18 0 -30 12t-12 30v471q0 18 12 30t30 12h153q18 0 30 -12t12 -30v-471q0 -18 -12 -30t-30 -12zM616 41q-31 0 -72.5 10t-46.5 10q-11 0 -36 -5t-34 -5q-57 1 -87 36v409q125 11 245 11q18 0 65.5 -13.5t62.5 -13.5q48 0 85 1.5t60 1.5q10 0 21 -2.5
t15 -2.5q29 0 48 -2.5t25.5 -11t6.5 -26.5q0 -37 -39 -61.5t-120 -24.5l-134 2q-56 0 -95.5 -8t-59 -30t-19.5 -74q0 -31 26 -46t74 -26q22 11 41 11q20 1 32 -10.5t12 -28.5q0 -2 -1.5 -6.5t-13.5 -20.5t-16 -22q-5 -24 -17 -38t-28 -14zM711 191q-8 13 -24 21.5t-32 8.5
q-30 0 -51 -13q-28 6 -41.5 14.5t-13.5 26.5q0 42 35 54t116 12q19 -20 32 -38.5t13 -36.5q0 -26 -34 -49zM172 79q16 0 27 11t11 26t-11.5 26t-26.5 11q-14 0 -25 -11t-11 -26t11 -26t25 -11z" />
    <glyph glyph-name="E.aalt" horiz-adv-x="1011" 
d="M716 55v471q0 18 12.5 30t29.5 12h153q18 0 30 -12t12 -30v-471q0 -18 -12 -30t-30 -12h-153q-17 0 -29.5 12t-12.5 30zM349 93q-4 6 -16 22t-13.5 20.5t-1.5 6.5q0 17 12 28.5t32 10.5q19 0 41 -11q48 11 74 26t26 46q0 45 -14.5 67t-52 33.5t-107.5 11.5l-134 -2
q-81 0 -120 24.5t-39 61.5q0 18 6.5 26.5t25.5 11t48 2.5q4 0 15 2.5t21 2.5q23 0 60 -1.5t85 -1.5q15 0 62.5 13.5t65.5 13.5q120 0 245 -11v-409q-30 -35 -87 -36q-9 0 -34 5t-36 5q-5 0 -46.5 -10t-72.5 -10q-16 0 -28 14t-17 38zM265 240q0 14 9.5 31t36.5 44
q47 0 80 -4t51.5 -16.5t18.5 -45.5q0 -14 -10 -24t-45 -17q-21 13 -50 13q-17 0 -33 -8.5t-23 -21.5q-14 10 -24.5 21.5t-10.5 27.5zM874 116q0 15 -10.5 26t-25.5 11t-26 -11t-11 -26q0 -16 10.5 -26.5t26.5 -10.5q15 0 25.5 11t10.5 26z" />
    <glyph glyph-name="F.aalt" horiz-adv-x="569" 
d="M203 513q-30 27 -44.5 64t-14.5 78q0 32 12 84q34 -10 54 -39.5t20 -72.5q0 -51 -27 -114zM251 590q4 32 15 57t30 45t53 33t77 13q0 -18 -8.5 -41t-29.5 -46.5t-56 -42t-81 -18.5zM176 403q-108 61 -108 175l1 23q52 -13 81 -50.5t29 -99.5q0 -22 -3 -48zM216 473
q9 33 30.5 61.5t60.5 44t83 15.5q-24 -97 -174 -121zM213 315q-2 12 -2 32q0 29 12 56.5t40 46t61 25.5q0 -25 -11 -57.5t-38.5 -61.5t-61.5 -41zM189 273q-37 8 -70.5 28.5t-54 51.5t-20.5 75l1 16q24 -2 56 -18t57.5 -56t30.5 -97zM258 177q-16 35 -16 64q0 19 8.5 41
t29 39t43.5 23q7 -20 7 -43q0 -36 -20.5 -69.5t-51.5 -54.5zM211 157q-40 0 -76.5 13.5t-60.5 39t-37 56.5q21 11 48 11q34 0 69 -20t56.5 -47.5t30.5 -50.5q-9 -2 -30 -2zM352 72q-45 48 -45 89q0 40 48 88q22 -45 22 -85q0 -38 -25 -92zM432 15q-16 12 -29 32t-13 44
q0 33 27 64q28 -36 28 -76q0 -27 -13 -64zM225 29q-41 0 -76.5 21t-51.5 53q44 23 91 23q76 0 144 -59q-27 -20 -55 -29t-52 -9zM509 -26q-37 33 -37 69q0 24 16 52q34 -28 34 -64q0 -21 -13 -57zM288 -67q-38 0 -65 18q20 32 50.5 50.5t69.5 18.5q32 0 77 -16
q-25 -34 -61 -52.5t-71 -18.5zM392 -104q-11 0 -31 6q14 35 44.5 54.5t74.5 19.5l23 -1q-17 -36 -48.5 -57.5t-62.5 -21.5z" />
    <glyph glyph-name="G.aalt" horiz-adv-x="569" 
d="M339 627q0 43 20 72.5t54 39.5q12 -52 12 -84q0 -41 -14.5 -78t-44.5 -64q-27 63 -27 114zM143 738q27 0 56.5 -7t54 -23t42 -46t22.5 -72q-37 0 -77.5 17t-69 55.5t-28.5 75.5zM390 451q0 62 29 99.5t81 50.5l1 -23q0 -114 -108 -175q-3 26 -3 48zM179 594
q28 0 63.5 -8.5t66 -36t44.5 -76.5q-150 24 -174 121zM245 475q33 -7 58.5 -23.5t40 -42.5t14.5 -62q0 -20 -2 -32q-22 8 -48 28t-44.5 56t-18.5 76zM524 444l1 -16q0 -35 -17 -68.5t-54 -56t-74 -30.5q3 38 20 77.5t52.5 65t71.5 28.5zM239 301q0 23 7 43q23 -6 43.5 -23
t29 -39t8.5 -41q0 -29 -16 -64q-31 21 -51.5 54.5t-20.5 69.5zM328 159q9 23 30.5 50.5t56.5 47.5t69 20q27 0 48 -11q-13 -31 -37 -56.5t-60.5 -39t-76.5 -13.5q-21 0 -30 2zM192 164q0 40 22 85q48 -48 48 -88q0 -41 -45 -89q-25 54 -25 92zM124 79q0 40 28 76
q27 -31 27 -64q0 -18 -9.5 -38t-32.5 -38q-13 37 -13 64zM237 67q68 59 144 59q47 0 91 -23q-16 -32 -51.5 -53t-76.5 -21q-24 0 -52 9t-55 29zM47 31q0 36 34 64q16 -28 16 -52q0 -36 -37 -69q-13 36 -13 57zM149 4q45 16 77 16q39 0 69.5 -18.5t50.5 -50.5
q-27 -18 -65 -18q-35 0 -71 18.5t-61 52.5zM66 -25l23 1q44 0 74.5 -19.5t44.5 -54.5q-20 -6 -31 -6q-31 0 -62.5 21.5t-48.5 57.5z" />
    <glyph glyph-name="H.aalt" horiz-adv-x="894" 
d="M794 325q-88 0 -161.5 25t-125 70.5t-75 102t-27 96.5t-3.5 55q1 13 10.5 21.5t22.5 8.5q90 1 164.5 -23.5t120 -64.5t70.5 -85t33.5 -91.5t8.5 -84.5q0 -13 -12 -21.5t-26 -8.5zM375 -8q-81 0 -158.5 35.5t-140.5 101.5q-9 9 -8 19q0 17 14 31q87 86 182.5 132t190.5 46
q82 0 159 -36t141 -103q10 -9 10 -22t-10 -23q-87 -88 -185 -134.5t-195 -46.5z" />
    <glyph glyph-name="I.aalt" horiz-adv-x="894" 
d="M62 355q0 38 8.5 84.5t33.5 91.5t70.5 85t120 64.5t164.5 23.5q13 0 22.5 -8.5t10.5 -21.5q1 -159 -105 -253.5t-287 -95.5q-14 0 -26 8.5t-12 21.5zM139 173q-10 10 -10 23t10 22q64 67 141 103t159 36q95 0 190.5 -46t182.5 -132q14 -14 14 -31q1 -10 -8 -19
q-63 -66 -140.5 -101.5t-158.5 -35.5q-97 0 -195 46.5t-185 134.5z" />
    <glyph glyph-name="J.aalt" horiz-adv-x="1019" 
d="M744 -13q-27 0 -50.5 10t-23.5 24q0 3 1.5 7.5t16 25t18.5 26.5l-1 1q-21 -20 -28 -25.5t-14 -5.5q-12 0 -28 14t-16 24q0 2 1.5 5.5t21.5 15.5t21 12.5t5 3.5l-1 2q-24 -8 -35 -8q-16 0 -28 8t-12 19q0 8 6 21l-2 1q-28 -28 -61.5 -45t-60.5 -17q-16 0 -36 4t-35.5 13
t-15.5 17q0 6 2 11t20 20t30 26t23 22l-1 1q-56 -31 -78.5 -40t-45.5 -9q-13 0 -31.5 6.5t-34.5 21.5t-16 29q0 8 5.5 16t40.5 27t48.5 27t20.5 12l-1 1q-77 -27 -121 -27q-20 0 -43.5 10t-40.5 32.5t-17 42.5t24 29t153 24v1q-40 2 -88 14t-82 34t-47 44t-13 42
q0 22 11.5 35t28.5 13q4 0 11.5 -1.5t23.5 -5.5t17 -4q7 -2 136 -33v1q-61 34 -102 79.5t-41 84.5q0 24 14 37.5t30 13.5t35 -7.5t55 -36.5q105 -81 188.5 -122t215.5 -67q93 -18 93 -87q0 -11 -5.5 -34t-5.5 -33q0 -37 19.5 -54.5t51.5 -18.5q21 -1 33.5 -15.5t12.5 -37.5
q0 -2 -3.5 -26t-3.5 -35q0 -12 5.5 -53.5t5.5 -55.5q0 -22 -18 -43.5t-37.5 -31t-30.5 -9.5q-4 0 -7 3.5t-3 8.5l2 44h-1q-11 -37 -18 -48q-10 -17 -28 -24t-35 -7z" />
    <glyph glyph-name="K.aalt" horiz-adv-x="1019" 
d="M212 18q-7 11 -18 48h-1l2 -44q0 -2 -2 -7t-8 -5q-11 0 -30.5 9.5t-37.5 31t-18 43.5q0 14 5.5 55.5t5.5 53.5q0 11 -3.5 35t-3.5 26q0 23 12.5 37.5t33.5 15.5q32 1 51.5 18.5t19.5 54.5q0 10 -5.5 33t-5.5 34q0 69 93 87q132 26 215.5 67t188.5 122q29 24 49 34t41 10
q16 0 30 -13.5t14 -37.5q0 -39 -41 -84.5t-102 -79.5v-1q129 31 136 33q2 0 16 4t22.5 5.5t13.5 1.5q17 0 28.5 -13t11.5 -35q0 -20 -13 -42t-47 -44t-82 -34t-88 -14v-1q129 -15 153 -24t24 -29q0 -13 -10 -32.5t-35.5 -36t-55.5 -16.5q-44 0 -121 27l-1 -1
q24 -14 52 -29.5t37.5 -21t15.5 -11t8 -10t2 -10.5q0 -9 -9.5 -22t-31 -24t-41.5 -11q-18 0 -37.5 6t-86.5 43l-1 -1q24 -24 48 -44t25.5 -26t1.5 -9q0 -5 -9 -13t-31 -14.5t-47 -6.5q-27 0 -60.5 17t-61.5 45l-2 -1q6 -13 6 -21q0 -11 -12 -19t-28 -8q-11 0 -35 8l-1 -2
q10 -7 25 -16t19.5 -12t4.5 -9q0 -10 -16 -24t-28 -14q-3 0 -9 2.5t-33 28.5l-1 -1q8 -11 19 -27t14 -21t3 -11q0 -14 -23.5 -24t-50.5 -10q-17 0 -35 7t-28 24z" />
    <glyph glyph-name="L.aalt" horiz-adv-x="622" 
d="M1 -3q-17 0 -28 11t-11 28v621q0 17 11 28t28 11h621q16 0 27 -11t11 -28v-311q0 -16 -11 -27t-27 -11t-27 11t-11 27v274h-546v-547h336v336h-136v-163q0 -16 -11 -27t-27 -11t-27 11t-11 27v200q0 17 11 28t28 11h211q16 0 27 -11t11 -28v-410q0 -17 -11 -28t-27 -11
h-411z" />
    <glyph glyph-name="M.aalt" horiz-adv-x="624" 
d="M1 -4q-17 0 -28 11t-11 28v311q0 16 11 27t27 11t27 -11t11 -27v-274h548v548h-336v-336h136v163q0 16 11 27t27 11t27 -11t11 -27v-200q0 -17 -11 -28t-27 -11h-211q-17 0 -28 11t-11 28v410q0 17 11 28t28 11h411q16 0 27 -11t11 -28v-622q0 -17 -11 -28t-27 -11h-623z
" />
    <glyph glyph-name="N.aalt" horiz-adv-x="956" 
d="M478 356q-4 0 -10.5 2t-14.5 8t-18.5 15.5t-13.5 12.5l-299 266h711l-298 -266q-31 -27 -39.5 -32.5t-17.5 -5.5zM78 120v500l280 -250zM878 116l-280 254l280 250v-504zM109 77l290 256l27 -23q31 -25 52 -25q20 0 52 26l27 23l287 -257h-735z" />
    <glyph glyph-name="O.ss10" horiz-adv-x="630" 
d="M543 329l31 -212q-68 -7 -98.5 -15.5t-53.5 -27.5q-30 -24 -81 -36.5t-133 -12.5q-31 0 -57.5 11.5t-36.5 26t-10 24.5l3 22q0 7 -12.5 22.5t-12.5 24.5q0 10 2 14.5t2 15.5t-14.5 28t-14.5 36q0 11 10.5 25t10.5 22q0 7 -7.5 21t-7.5 32q0 32 31.5 43t120.5 13
q-10 11 -20.5 29.5t-17 40.5t-6.5 38q0 33 5.5 47.5t16.5 20t24 5.5q17 0 24.5 -8t16.5 -30t17 -35.5t17 -24.5t18 -19q5 -5 16.5 -13t35.5 -18t31.5 -17t9.5 -11q3 -5 17 -36.5t23.5 -43t16.5 -11.5q38 0 83 9z" />
    <glyph glyph-name="P.aalt" horiz-adv-x="845" 
d="M542 332q69 -6 123 -22t84 -43t30 -64q0 -30 -18.5 -60.5t-42 -44t-42.5 -13.5q-81 0 -190 152l-8 -4q27 -60 38.5 -101t11.5 -78q0 -15 -4 -34.5t-16 -35.5t-33.5 -26.5t-51.5 -10.5q-18 0 -43 7t-44 31.5t-19 68.5q0 28 8.5 66t41.5 113l-7 3q-109 -151 -191 -151
q-19 0 -42.5 13.5t-41.5 44.5t-18 60q0 37 30 64t83.5 43t122.5 22v5v5q-69 6 -122.5 22t-83.5 43t-30 64q0 18 10.5 45.5t36.5 50t55 22.5q83 0 191 -151l7 3q-27 60 -38.5 101t-11.5 78q0 30 11.5 55.5t38 38.5t56.5 13q18 0 42.5 -7t43.5 -31.5t19 -68.5q0 -28 -8.5 -66
t-41.5 -113l8 -4q33 48 68 84t66 52t56 16q19 0 43 -13.5t42 -44.5t18 -60q0 -37 -30 -64t-84 -43t-123 -22v-7v-3zM505 336q0 36 -22.5 58.5t-60.5 22.5q-37 0 -59.5 -22t-22.5 -58t22.5 -58t59.5 -22t60 22t23 57z" />
    <glyph glyph-name="Q.aalt" horiz-adv-x="781" 
d="M440 3q-96 0 -170.5 35.5t-121 90t-69 114t-22.5 107.5q0 61 12.5 108.5t32.5 87t56.5 78.5t87.5 65q7 4 15 4q7 0 11.5 -4.5t4.5 -11.5q0 -1 -0.5 -4.5t-10.5 -47.5t-10 -89q0 -77 25 -144t71.5 -115.5t113.5 -75.5t147 -27q26 0 55 3.5t36 3.5q10 0 17 -4.5t7 -11.5
q0 -8 -9 -22q-50 -73 -124.5 -106.5t-154.5 -33.5z" />
    <glyph glyph-name="R.aalt" horiz-adv-x="623" 
d="M309 184q-195 0 -336 145q-9 11 -9 20q0 14 9 23q141 144 336 144q196 0 337 -145q3 -3 6 -9.5t3 -10.5q0 -13 -9 -22q-141 -145 -337 -145zM309 248q81 0 146.5 25t122.5 77q-73 67 -159 89q12 -22 12 -45q0 -25 -11.5 -54t-41.5 -48.5t-69 -19.5q-25 0 -53.5 11.5
t-48.5 42t-20 68.5q0 23 12 45q-85 -22 -158 -89q57 -52 123 -77t145 -25zM309 368q12 0 19 7t7 18q0 12 -7.5 19t-18.5 7q-12 0 -19.5 -7t-7.5 -19q0 -11 7.5 -18t19.5 -7z" />
    </font>
</defs>
</svg>
